<svg width="95" height="29" viewBox="0 0 95 29" fill="none" xmlns="http://www.w3.org/2000/svg">
<g id="Abia-State-University.svg" clip-path="url(#clip0_16_1971)">
<path id="Vector" d="M0.290375 11.0344H2.14621L2.74447 9.09313H5.90672L6.50499 11.0344H8.56838L5.73579 2.30467H3.1596L0.290375 11.0344ZM4.3317 3.91632L5.47939 7.68904H3.17181L4.3317 3.91632ZM13.168 11.1687C14.7552 11.1687 15.9517 9.98442 15.9517 7.87219V7.77451C15.9517 5.66227 14.7308 4.50238 13.168 4.50238C12.2279 4.50238 11.4831 5.03959 11.129 5.65007V1.75525H9.35864V11.0344H11.129V10.0211C11.4587 10.6804 12.179 11.1687 13.168 11.1687ZM12.643 9.78907C11.6784 9.78907 11.068 9.16639 11.068 7.8844V7.78672C11.068 6.50473 11.7029 5.85763 12.6308 5.85763C13.5221 5.85763 14.157 6.49252 14.157 7.78672V7.8844C14.157 9.12976 13.6197 9.78907 12.643 9.78907ZM16.9373 11.0344H18.6955V4.64889H16.9373V11.0344ZM17.8042 3.78202C18.378 3.78202 18.8176 3.3669 18.8176 2.81747C18.8176 2.26805 18.378 1.85292 17.8042 1.85292C17.2425 1.85292 16.803 2.26805 16.803 2.81747C16.803 3.3669 17.2425 3.78202 17.8042 3.78202ZM21.7997 11.1687C22.8009 11.1687 23.3625 10.778 23.7288 10.2652V11.0344H25.4503V6.87101C25.4503 5.13727 24.3393 4.50238 22.7765 4.50238C21.2137 4.50238 20.0171 5.1739 19.9073 6.68787H21.5799C21.6532 6.13844 21.9707 5.78437 22.6666 5.78437C23.4724 5.78437 23.7044 6.19949 23.7044 6.95648V7.21288H22.984C21.0305 7.21288 19.6631 7.77451 19.6631 9.26406C19.6631 10.6071 20.6398 11.1687 21.7997 11.1687ZM22.3247 9.93558C21.6776 9.93558 21.3968 9.63035 21.3968 9.16639C21.3968 8.48266 21.9951 8.26289 23.0207 8.26289H23.7044V8.8001C23.7044 9.50825 23.1061 9.93558 22.3247 9.93558ZM32.3992 11.1687C34.4626 11.1687 35.7323 9.93558 35.7323 8.38498C35.7323 6.57798 34.6457 6.00414 32.5335 5.73553C31.1904 5.54018 30.9096 5.24715 30.9096 4.62447C30.9096 4.03842 31.3491 3.63551 32.216 3.63551C33.0829 3.63551 33.5468 4.00179 33.6689 4.7954H35.4881C35.3294 3.06166 34.1817 2.18258 32.216 2.18258C30.2869 2.18258 29.0416 3.29364 29.0416 4.78319C29.0416 6.4681 29.9573 7.13962 32.1916 7.43265C33.4736 7.628 33.8399 7.87219 33.8399 8.56813C33.8399 9.25185 33.266 9.72802 32.3992 9.72802C31.1049 9.72802 30.7753 9.08092 30.6898 8.29952H28.7974C28.9072 10.0455 30.0061 11.1687 32.3992 11.1687ZM39.0856 11.1565C39.5618 11.1565 39.9159 11.0711 40.16 10.9856V9.61814C39.9525 9.7036 39.7571 9.74023 39.4885 9.74023C39.0368 9.74023 38.7804 9.49604 38.7804 8.98325V5.90646H40.1234V4.64889H38.7804V3.26922H37.0222V4.64889H36.2042V5.90646H37.0222V9.14197C37.0222 10.4728 37.7426 11.1565 39.0856 11.1565ZM42.893 11.1687C43.8941 11.1687 44.4558 10.778 44.8221 10.2652V11.0344H46.5436V6.87101C46.5436 5.13727 45.4325 4.50238 43.8697 4.50238C42.3069 4.50238 41.1104 5.1739 41.0005 6.68787H42.6732C42.7465 6.13844 43.0639 5.78437 43.7598 5.78437C44.5657 5.78437 44.7977 6.19949 44.7977 6.95648V7.21288H44.0773C42.1238 7.21288 40.7563 7.77451 40.7563 9.26406C40.7563 10.6071 41.7331 11.1687 42.893 11.1687ZM43.418 9.93558C42.7709 9.93558 42.4901 9.63035 42.4901 9.16639C42.4901 8.48266 43.0883 8.26289 44.1139 8.26289H44.7977V8.8001C44.7977 9.50825 44.1994 9.93558 43.418 9.93558ZM50.1509 11.1565C50.6271 11.1565 50.981 11.0711 51.2252 10.9856V9.61814C51.0176 9.7036 50.8225 9.74023 50.5538 9.74023C50.1021 9.74023 49.8457 9.49604 49.8457 8.98325V5.90646H51.1885V4.64889H49.8457V3.26922H48.0875V4.64889H47.2695V5.90646H48.0875V9.14197C48.0875 10.4728 48.8079 11.1565 50.1509 11.1565ZM55.1195 11.1687C56.8654 11.1687 57.9643 10.3995 58.1718 9.01988H56.4991C56.3893 9.55709 55.9863 9.91117 55.1683 9.91117C54.2038 9.91117 53.6299 9.30069 53.5811 8.23847H58.184V7.75009C58.184 5.46692 56.7189 4.50238 55.0706 4.50238C53.2148 4.50238 51.7863 5.80879 51.7863 7.82335V7.92102C51.7863 9.96 53.1904 11.1687 55.1195 11.1687ZM53.6055 7.15183C53.7398 6.24833 54.277 5.72332 55.0706 5.72332C55.9131 5.72332 56.4015 6.18728 56.4625 7.15183H53.6055ZM4.50264 24.9044C6.85906 24.9044 8.18989 23.6712 8.18989 21.2904V16.0403H6.19975V21.1683C6.19975 22.7677 5.68695 23.3294 4.51485 23.3294C3.31832 23.3294 2.89099 22.6945 2.89099 21.2415V16.0403H0.900847V21.3636C0.900847 23.6834 2.20726 24.9044 4.50264 24.9044ZM9.53751 24.7701H11.3079V21.0828C11.3079 20.1427 11.8817 19.6787 12.6387 19.6787C13.4201 19.6787 13.762 20.0939 13.762 20.9607V24.7701H15.5324V20.7043C15.5324 18.995 14.6411 18.238 13.3835 18.238C12.3213 18.238 11.6253 18.763 11.3079 19.3979V18.3845H9.53751V24.7701ZM16.8538 24.7701H18.612V18.3845H16.8538V24.7701ZM17.7207 17.5177C18.2945 17.5177 18.7341 17.1025 18.7341 16.5531C18.7341 16.0037 18.2945 15.5886 17.7207 15.5886C17.1591 15.5886 16.7195 16.0037 16.7195 16.5531C16.7195 17.1025 17.1591 17.5177 17.7207 17.5177ZM21.7162 24.7701H23.7064L26.0262 18.3845H24.3169L22.8029 22.9509L21.2767 18.3845H19.3842L21.7162 24.7701ZM29.37 24.9044C31.116 24.9044 32.2148 24.1352 32.4224 22.7555H30.7497C30.6398 23.2927 30.2369 23.6468 29.4189 23.6468C28.4543 23.6468 27.8805 23.0363 27.8316 21.9741H32.4346V21.4857C32.4346 19.2026 30.9695 18.238 29.3212 18.238C27.4654 18.238 26.0369 19.5444 26.0369 21.559V21.6567C26.0369 23.6956 27.4409 24.9044 29.37 24.9044ZM27.8561 20.8875C27.9904 19.984 28.5276 19.459 29.3212 19.459C30.1637 19.459 30.652 19.9229 30.7131 20.8875H27.8561ZM33.3493 24.7701H35.1197V21.5712C35.1197 20.3503 35.8767 19.9229 37.1831 19.9351V18.2869C36.1453 18.2991 35.5226 18.7508 35.1197 19.6055V18.3845H33.3493V24.7701ZM40.4208 24.9044C42.1057 24.9044 43.1068 24.184 43.1068 22.8044C43.1068 21.4369 42.2278 21.034 40.6283 20.802C39.7004 20.6677 39.3952 20.509 39.3952 20.1061C39.3952 19.7154 39.7248 19.4468 40.2987 19.4468C40.9091 19.4468 41.2022 19.6909 41.2998 20.2159H42.9237C42.765 18.7508 41.7028 18.238 40.2865 18.238C38.98 18.238 37.7591 18.8973 37.7591 20.2282C37.7591 21.4735 38.4184 21.9619 40.1155 22.2183C41.0312 22.3526 41.4097 22.5357 41.4097 22.9753C41.4097 23.4148 41.0923 23.6712 40.4086 23.6712C39.6394 23.6712 39.3585 23.3416 39.2853 22.7677H37.637C37.6981 24.1474 38.6992 24.9044 40.4208 24.9044ZM44.0342 24.7701H45.7923V18.3845H44.0342V24.7701ZM44.901 17.5177C45.4749 17.5177 45.9144 17.1025 45.9144 16.5531C45.9144 16.0037 45.4749 15.5886 44.901 15.5886C44.3394 15.5886 43.8998 16.0037 43.8998 16.5531C43.8998 17.1025 44.3394 17.5177 44.901 17.5177ZM49.5071 24.8922C49.9833 24.8922 50.3373 24.8067 50.5815 24.7212V23.3538C50.374 23.4392 50.1786 23.4759 49.91 23.4759C49.4583 23.4759 49.2019 23.2317 49.2019 22.7189V19.6421H50.5449V18.3845H49.2019V17.0049H47.4437V18.3845H46.6257V19.6421H47.4437V22.8776C47.4437 24.2084 48.1641 24.8922 49.5071 24.8922ZM52.3393 26.9434H54.0486L57.5039 18.3845H55.8068L54.3783 22.2183L52.8277 18.3845H50.923L53.4626 24.123L52.3393 26.9434Z" fill="#011B33"/>
</g>
<defs>
<clipPath id="clip0_16_1971">
<rect width="94.3146" height="27.98" fill="white" transform="translate(0.442688 0.859863)"/>
</clipPath>
</defs>
</svg>
