<svg width="140" height="29" viewBox="0 0 140 29" fill="none" xmlns="http://www.w3.org/2000/svg">
<g id="Air-Peace-Stack-Blue_200305_154114.svg" clip-path="url(#clip0_16_1784)">
<path id="Vector" d="M75.2365 24.698C75.2375 24.5459 75.2971 24.4 75.403 24.2905C75.5085 24.181 75.6521 24.1163 75.8042 24.1098C75.86 24.1092 75.9149 24.1203 75.966 24.1423C76.0172 24.1644 76.0631 24.1969 76.1009 24.2378C76.1387 24.2787 76.1674 24.3271 76.1854 24.3798C76.2034 24.4326 76.2098 24.4884 76.2049 24.5439C76.2062 24.6952 76.1482 24.8409 76.0428 24.9496C75.9375 25.0582 75.7937 25.1211 75.6424 25.1244C75.5869 25.1261 75.5317 25.116 75.4803 25.0948C75.4289 25.0737 75.3827 25.042 75.3444 25.0018C75.3061 24.9615 75.2766 24.9137 75.2581 24.8614C75.2396 24.809 75.2321 24.7534 75.2365 24.698Z" fill="#011B33"/>
<path id="Vector_2" d="M77.1041 24.698C77.1051 24.5459 77.1647 24.4 77.2705 24.2905C77.3761 24.181 77.5197 24.1163 77.6718 24.1098C77.7275 24.1092 77.7825 24.1203 77.8336 24.1423C77.8847 24.1644 77.9307 24.1969 77.9685 24.2378C78.0062 24.2787 78.035 24.3271 78.053 24.3798C78.071 24.4326 78.0774 24.4884 78.0725 24.5439C78.0733 24.695 78.0147 24.8404 77.9096 24.9489C77.8043 25.0574 77.661 25.1204 77.5099 25.1244C77.4544 25.1261 77.3992 25.116 77.3478 25.0948C77.2965 25.0737 77.2502 25.042 77.212 25.0018C77.1737 24.9615 77.1441 24.9137 77.1256 24.8614C77.1071 24.809 77.0997 24.7534 77.1041 24.698Z" fill="#011B33"/>
<path id="Vector_3" d="M78.9716 24.698C78.9726 24.5459 79.0322 24.4 79.138 24.2905C79.2436 24.181 79.3872 24.1163 79.5393 24.1098C79.595 24.1092 79.65 24.1203 79.7011 24.1423C79.7522 24.1644 79.7982 24.1969 79.836 24.2378C79.8737 24.2787 79.9025 24.3271 79.9205 24.3798C79.9385 24.4326 79.9449 24.4884 79.94 24.5439C79.9408 24.695 79.8822 24.8404 79.7771 24.9489C79.6718 25.0574 79.5285 25.1204 79.3774 25.1244C79.3219 25.1261 79.2667 25.116 79.2153 25.0948C79.164 25.0737 79.1177 25.042 79.0794 25.0018C79.0412 24.9615 79.0116 24.9137 78.9931 24.8614C78.9746 24.809 78.9672 24.7534 78.9716 24.698Z" fill="#011B33"/>
<path id="Vector_4" d="M80.2123 26.3087L80.4435 25.7744C80.5223 25.817 80.6107 25.8382 80.7004 25.836C80.9881 25.836 81.2681 25.5792 81.4556 25.2118L81.5583 25.0089L80.9752 21.6694H81.6893L81.9 23.37C81.9385 23.6731 81.9693 24.0636 81.9873 24.3821H82.013C82.162 24.0661 82.3315 23.686 82.4857 23.37L83.3334 21.6669H84.0501L82.1517 25.2195C81.7381 25.9542 81.3194 26.4269 80.6464 26.4269C80.4948 26.419 80.3469 26.3787 80.2123 26.3087Z" fill="#011B33"/>
<path id="Vector_5" d="M84.0219 23.7527C84.0219 22.4683 84.9518 21.5897 85.8765 21.5897C86.6343 21.5897 87.1352 22.1215 87.1352 22.9615C87.1352 24.2459 86.2053 25.1244 85.278 25.1244C84.5151 25.1244 84.0219 24.5927 84.0219 23.7527ZM86.3903 22.982C86.3903 22.4683 86.1848 22.1831 85.7969 22.1831C85.2626 22.1831 84.7694 22.8613 84.7694 23.7244C84.7694 24.2382 84.9749 24.5233 85.3602 24.5233C85.8945 24.5259 86.3903 23.8477 86.3903 22.9872V22.982Z" fill="#011B33"/>
<path id="Vector_6" d="M90.2692 25.0423H89.6681L89.7014 24.5593H89.6732C89.3773 24.8783 88.9755 25.079 88.5429 25.1245C87.9803 25.1245 87.744 24.8137 87.744 24.2716C87.7453 24.1126 87.7633 23.9542 87.798 23.799L88.2244 21.6669H88.9591L88.5506 23.7014C88.5201 23.8181 88.5018 23.9378 88.4967 24.0584C88.4869 24.1163 88.4908 24.1756 88.5082 24.2316C88.5254 24.2877 88.5558 24.3388 88.5966 24.3811C88.6372 24.4233 88.6873 24.4554 88.7428 24.4747C88.798 24.4941 88.8571 24.5002 88.9154 24.4926C89.144 24.4926 89.406 24.3307 89.7477 23.9788L90.1998 21.6669H90.937L90.2692 25.0423Z" fill="#011B33"/>
<path id="Vector_7" d="M91.9646 21.6668H92.5657L92.504 22.3167H92.5323C92.7891 21.9005 93.1693 21.5846 93.5598 21.5846C93.6751 21.5796 93.7902 21.6007 93.8963 21.6462L93.6394 22.2936C93.5408 22.2506 93.4334 22.2312 93.326 22.237C93.0101 22.237 92.6864 22.4939 92.409 23.0077L92.0108 25.0447H91.2761L91.9646 21.6668Z" fill="#011B33"/>
<path id="Vector_8" d="M95.8512 25.3736L95.6585 26.378H94.9239L95.8692 21.6668H96.4703L96.4523 22.0804H96.4728C96.7683 21.7922 97.1556 21.6168 97.5672 21.5846C98.1606 21.5846 98.5279 22.0239 98.5279 22.8151C98.5279 24.0995 97.6494 25.127 96.7297 25.127C96.5777 25.1252 96.4287 25.0835 96.2979 25.0059C96.1672 24.9284 96.0593 24.8177 95.9848 24.6851H95.9719L95.8512 25.3736ZM96.4035 22.6943L96.1158 24.1303C96.16 24.2442 96.2365 24.3426 96.3359 24.4133C96.4356 24.4841 96.5538 24.5241 96.6758 24.5284C97.2435 24.5284 97.7675 23.7963 97.7675 22.9281C97.7675 22.4374 97.5723 22.2062 97.2666 22.2062C97.0958 22.2197 96.9301 22.2704 96.7809 22.3547C96.6319 22.439 96.5029 22.5549 96.4035 22.6943Z" fill="#011B33"/>
<path id="Vector_9" d="M100.871 21.5897C101.654 21.5897 101.944 22.1369 101.944 22.833C101.938 23.0779 101.889 23.3197 101.798 23.5472H99.7429C99.6736 24.2587 100.064 24.5593 100.578 24.5593C100.827 24.5429 101.065 24.4536 101.264 24.3024L101.533 24.7725C101.196 25.0072 100.794 25.1319 100.383 25.1295C99.5785 25.1295 99.0314 24.6158 99.0314 23.7038C99.0339 22.4374 99.9844 21.5897 100.871 21.5897ZM101.3 23.0796C101.322 22.9828 101.333 22.8837 101.333 22.7842C101.333 22.458 101.194 22.1626 100.783 22.1626C100.372 22.1626 99.9741 22.5042 99.8123 23.0796H101.3Z" fill="#011B33"/>
<path id="Vector_10" d="M104.428 22.9512C104.448 22.8765 104.457 22.7997 104.457 22.7225C104.457 22.3218 104.272 22.178 103.928 22.178C103.615 22.195 103.312 22.2913 103.046 22.458L102.815 21.9442C103.205 21.7336 103.639 21.6158 104.082 21.6C104.775 21.6 105.186 21.9236 105.186 22.6532C105.184 22.8131 105.165 22.9724 105.13 23.1284L104.75 25.0525H104.151V24.6851H104.128C103.85 24.9536 103.486 25.1132 103.1 25.1347C102.989 25.1404 102.878 25.123 102.774 25.0835C102.67 25.0441 102.576 24.9834 102.496 24.9053C102.417 24.8273 102.355 24.7336 102.314 24.6302C102.273 24.5269 102.254 24.4161 102.258 24.3049C102.273 23.3211 103.19 22.9769 104.428 22.9512ZM102.992 24.1534C102.992 24.4257 103.18 24.5592 103.445 24.5592C103.728 24.5311 103.991 24.4005 104.184 24.1919L104.341 23.4213C103.46 23.429 102.992 23.6987 102.992 24.1457V24.1534Z" fill="#011B33"/>
<path id="Vector_11" d="M105.803 23.7527C105.803 22.5454 106.686 21.5898 107.737 21.5898C107.907 21.5879 108.075 21.6241 108.228 21.6957C108.382 21.7673 108.518 21.8724 108.626 22.0034L108.207 22.4375C108.148 22.3573 108.07 22.2922 107.981 22.2476C107.892 22.203 107.793 22.18 107.693 22.1806C107.087 22.1806 106.558 22.8819 106.558 23.7219C106.558 24.2357 106.784 24.5208 107.239 24.5208C107.474 24.5108 107.699 24.4201 107.876 24.2639L108.192 24.7289C107.877 24.9803 107.487 25.1179 107.085 25.1193C106.35 25.1245 105.803 24.6261 105.803 23.7527Z" fill="#011B33"/>
<path id="Vector_12" d="M110.586 21.5897C111.357 21.5897 111.66 22.1369 111.66 22.833C111.653 23.078 111.602 23.3199 111.511 23.5472H109.456C109.386 24.2587 109.779 24.5593 110.29 24.5593C110.539 24.5429 110.778 24.4536 110.976 24.3024L111.246 24.7725C110.909 25.0077 110.507 25.1324 110.095 25.1295C109.291 25.1295 108.747 24.6158 108.747 23.7038C108.749 22.4374 109.689 21.5897 110.586 21.5897ZM111.012 23.0796C111.035 22.9828 111.046 22.8837 111.046 22.7842C111.046 22.458 110.907 22.1626 110.496 22.1626C110.085 22.1626 109.687 22.5042 109.525 23.0796H111.012Z" fill="#011B33"/>
<path id="Vector_13" d="M111.703 25.8309C111.9 25.7851 112.08 25.6879 112.226 25.5493C112.372 25.4108 112.479 25.2357 112.536 25.0423L112.613 24.4437L112.803 24.9575C112.73 25.0193 112.641 25.057 112.546 25.0654C112.488 25.0712 112.43 25.0647 112.375 25.0465C112.32 25.0283 112.27 24.9987 112.227 24.9597C112.185 24.9206 112.151 24.873 112.128 24.82C112.105 24.7669 112.093 24.7096 112.094 24.6518C112.091 24.5806 112.103 24.5096 112.129 24.4433C112.155 24.377 112.194 24.3168 112.245 24.2666C112.295 24.2163 112.356 24.1771 112.422 24.1514C112.488 24.1258 112.559 24.1142 112.631 24.1175C112.936 24.1175 113.106 24.3307 113.106 24.6775C113.106 25.0513 112.976 25.4134 112.738 25.7021C112.501 25.9907 112.17 26.1878 111.803 26.2599L111.703 25.8309Z" fill="#011B33"/>
<path id="Vector_14" d="M115.377 23.7527C115.377 22.4683 116.309 21.5897 117.234 21.5897C117.992 21.5897 118.49 22.1215 118.49 22.9615C118.49 24.2459 117.56 25.1244 116.635 25.1244C115.878 25.1244 115.377 24.5927 115.377 23.7527ZM117.748 22.982C117.748 22.4683 117.542 22.1831 117.154 22.1831C116.617 22.1831 116.127 22.8613 116.127 23.7244C116.127 24.2382 116.332 24.5233 116.72 24.5233C117.249 24.5259 117.748 23.8477 117.748 22.9872V22.982Z" fill="#011B33"/>
<path id="Vector_15" d="M121.624 25.0423H121.023L121.056 24.5593H121.031C120.734 24.8788 120.331 25.0797 119.898 25.1245C119.335 25.1245 119.099 24.8137 119.099 24.2716C119.1 24.1125 119.119 23.9539 119.155 23.799L119.579 21.6669H120.317L119.906 23.7014C119.876 23.8184 119.858 23.938 119.852 24.0584C119.842 24.1164 119.847 24.1758 119.864 24.2318C119.882 24.2878 119.912 24.3389 119.954 24.381C119.994 24.4232 120.044 24.4552 120.1 24.4746C120.155 24.4939 120.215 24.5001 120.273 24.4926C120.499 24.4926 120.763 24.3307 121.103 23.9788L121.557 21.6669H122.292L121.624 25.0423Z" fill="#011B33"/>
<path id="Vector_16" d="M123.317 21.6669H123.918L123.859 22.3168H123.885C124.141 21.9006 124.522 21.5847 124.912 21.5847C125.028 21.5793 125.144 21.6004 125.251 21.6463L124.994 22.2937C124.896 22.2509 124.788 22.2316 124.681 22.2371C124.365 22.2371 124.041 22.494 123.764 23.0078L123.366 25.0449H122.628L123.317 21.6669Z" fill="#011B33"/>
<path id="Vector_17" d="M126.256 25.7307C126.256 25.3145 126.633 25.0397 127.013 24.8701V24.847C126.948 24.7923 126.895 24.7234 126.86 24.6456C126.825 24.5677 126.808 24.4829 126.81 24.3975C126.823 24.2625 126.869 24.1329 126.946 24.021C127.022 23.9091 127.126 23.8185 127.247 23.7578V23.7219C127.134 23.6285 127.042 23.5107 126.981 23.3773C126.919 23.2439 126.888 23.0983 126.89 22.9512C126.89 22.766 126.927 22.5826 126.998 22.4119C127.07 22.2412 127.175 22.0867 127.308 21.9575C127.441 21.8283 127.599 21.7272 127.771 21.6601C127.944 21.5929 128.128 21.5611 128.313 21.5667C128.464 21.5637 128.613 21.5917 128.752 21.6489H129.952L129.847 22.2063H129.261C129.337 22.3301 129.376 22.4723 129.377 22.6173C129.377 23.4034 128.778 23.9531 127.943 23.9531C127.831 23.9545 127.719 23.9372 127.612 23.9017C127.555 23.9376 127.507 23.9866 127.472 24.0447C127.438 24.1028 127.418 24.1682 127.414 24.2356C127.414 24.436 127.525 24.5156 128.013 24.5696C128.94 24.6852 129.225 24.9164 129.225 25.3402C129.225 26.1263 128.37 26.5193 127.532 26.5193C127.001 26.5476 126.256 26.3729 126.256 25.7307ZM128.506 25.538C128.506 25.2811 128.231 25.1861 127.787 25.1347C127.679 25.1193 127.53 25.0936 127.383 25.0577C127.162 25.1707 126.893 25.3634 126.893 25.5971C126.893 25.9156 127.173 26.0595 127.612 26.0595C128.126 26.0595 128.506 25.8386 128.506 25.538ZM128.74 22.6533C128.74 22.3142 128.568 22.1061 128.288 22.1061C127.866 22.1061 127.568 22.5351 127.568 22.9615C127.568 23.3006 127.74 23.5087 128.02 23.5087C128.442 23.5087 128.74 23.0797 128.74 22.6533Z" fill="#011B33"/>
<path id="Vector_18" d="M129.957 23.7527C129.957 22.4683 130.887 21.5897 131.815 21.5897C132.585 21.5897 133.071 22.1215 133.071 22.9615C133.071 24.2459 132.141 25.1244 131.216 25.1244C130.458 25.1244 129.957 24.5927 129.957 23.7527ZM132.326 22.982C132.326 22.4683 132.12 22.1831 131.735 22.1831C131.198 22.1831 130.707 22.8613 130.707 23.7244C130.707 24.2382 130.913 24.5233 131.301 24.5233C131.83 24.5259 132.326 23.8477 132.326 22.9872V22.982Z" fill="#011B33"/>
<path id="Vector_19" d="M135.591 22.9512C135.612 22.8769 135.622 22.7998 135.621 22.7225C135.621 22.3218 135.434 22.178 135.092 22.178C134.78 22.195 134.476 22.2913 134.211 22.458L133.98 21.9442C134.37 21.7332 134.803 21.6154 135.246 21.6C135.94 21.6 136.348 21.9236 136.348 22.6532C136.347 22.813 136.329 22.9724 136.294 23.1284L135.912 25.0525H135.316V24.6851H135.293C135.015 24.9536 134.65 25.1132 134.265 25.1347C134.154 25.1404 134.043 25.123 133.939 25.0835C133.835 25.0441 133.74 24.9834 133.66 24.9054C133.581 24.8274 133.518 24.7338 133.477 24.6304C133.436 24.527 133.416 24.4162 133.42 24.3049C133.435 23.3211 134.35 22.9769 135.591 22.9512ZM134.155 24.1534C134.155 24.4257 134.345 24.5592 134.609 24.5592C134.892 24.5315 135.154 24.4007 135.347 24.1919L135.506 23.4213C134.625 23.429 134.155 23.6987 134.155 24.1457V24.1534Z" fill="#011B33"/>
<path id="Vector_20" d="M137.864 20.1949H138.601L137.628 25.0423H136.893L137.864 20.1949Z" fill="#011B33"/>
<path id="Vector_21" d="M139.269 8.36553L140.05 5.63745H130.003L128.385 8.36553H139.269Z" fill="#011B33"/>
<path id="Vector_22" d="M138.129 12.3575L138.979 9.38538H128.93L126.823 16.7424H136.872L137.684 13.9039H132.03L132.475 12.3575H138.129Z" fill="#011B33"/>
<path id="Vector_23" d="M126.744 8.36552L128.359 5.64258H120.139C119.368 5.64155 118.617 5.89168 118.001 6.35517C117.385 6.81863 116.936 7.47021 116.723 8.21139L116.679 8.36295L126.744 8.36552Z" fill="#011B33"/>
<path id="Vector_24" d="M116.397 9.38538L115.305 13.2155C115.187 13.6273 115.167 14.0609 115.245 14.482C115.323 14.9031 115.498 15.3003 115.756 15.6422C116.014 15.9842 116.348 16.2615 116.732 16.4524C117.115 16.6434 117.538 16.7426 117.966 16.7424H124.347L125.159 13.9168H119.076L120.36 9.39822L116.397 9.38538Z" fill="#011B33"/>
<path id="Vector_25" d="M104.976 9.38538L98.6486 16.7424H103.475L107.246 12.3575H109.671L110.699 16.7424H114.999L113.273 9.38538H104.976Z" fill="#011B33"/>
<path id="Vector_26" d="M113.034 8.36553L112.394 5.64002L112.397 5.63745H108.199L105.852 8.36553H113.034Z" fill="#011B33"/>
<path id="Vector_27" d="M100.267 12.3575L101.12 9.38538H91.0707L88.9642 16.7424H99.0134L99.8252 13.9039H94.1712L94.6156 12.3575H100.267Z" fill="#011B33"/>
<path id="Vector_28" d="M101.41 8.36553L102.191 5.63745H92.1444L90.5261 8.36553H101.41Z" fill="#011B33"/>
<path id="Vector_29" d="M77.4894 9.38538L75.3829 16.7424H79.1668L80.4229 12.3575H85.5606C86.4709 12.3566 87.3579 12.069 88.0957 11.5355C88.8335 11.0021 89.3845 10.2497 89.6706 9.38538H77.4894Z" fill="#011B33"/>
<path id="Vector_30" d="M89.9635 8.36553C90.0277 8.03392 90.0182 7.69221 89.935 7.36482C89.8517 7.03743 89.6973 6.73246 89.4826 6.47177C89.2678 6.21107 88.9979 6.00109 88.6924 5.85685C88.387 5.71261 88.0536 5.63768 87.7158 5.63745H78.5605L76.9448 8.36553H89.9635Z" fill="#011B33"/>
<path id="Vector_31" d="M66.4949 8.36553C66.5588 8.03376 66.5486 7.69201 66.4651 7.36461C66.3816 7.03725 66.227 6.73235 66.0119 6.47172C65.7969 6.21109 65.5272 6.00117 65.2215 5.85693C64.9161 5.71272 64.5824 5.63779 64.2446 5.63745H55.0406L53.4325 8.36553H66.4949Z" fill="#011B33"/>
<path id="Vector_32" d="M66.2046 9.38538H53.9668L51.8604 16.7424H55.6468L56.9004 12.3575H61.1928L59.9393 16.7424H63.7231L64.5657 13.796C64.6625 13.4615 64.6713 13.1077 64.5911 12.7688C64.511 12.4299 64.3448 12.1174 64.1084 11.8617C65.102 11.3397 65.8537 10.4516 66.2046 9.38538Z" fill="#011B33"/>
<path id="Vector_33" d="M51.904 8.36555L52.6798 5.65289H48.6571L47.8813 8.36555H51.904Z" fill="#011B33"/>
<path id="Vector_34" d="M44.136 8.36555L43.5195 5.65289H39.3246L36.933 8.36555H44.136Z" fill="#011B33"/>
<path id="Vector_35" d="M47.5884 9.38538L45.7903 15.6712L44.3646 9.38538H36.0365L33.6295 12.1186H40.7811L41.9781 16.7424H49.5047L51.6112 9.38538H47.5884Z" fill="#011B33"/>
<path id="Vector_36" d="M28.515 12.5707C28.5001 12.3532 28.4708 12.137 28.4277 11.9233C28.3969 11.7769 28.3686 11.687 28.3326 11.52C27.8492 9.11555 26.6033 6.93103 24.78 5.29067C24.7266 5.24312 24.6699 5.19935 24.6104 5.15966C24.2097 4.8026 23.7935 4.45838 23.3645 4.13214C21.37 2.5754 19.0282 1.52479 16.5392 1.07012C15.0637 0.814313 13.5571 0.791775 12.0746 1.00333C10.6923 1.20732 9.33978 1.57822 8.04675 2.10792C6.14712 2.84252 4.47318 4.06211 3.1917 5.64517L3.09409 5.76847C3.08389 5.78291 3.07274 5.79662 3.06069 5.80957C2.88362 6.02139 2.71812 6.24264 2.56491 6.47232C2.55844 6.48085 2.54945 6.48712 2.53922 6.4903C2.15904 7.0426 1.76858 7.6848 1.73005 7.75416C0.71393 9.47713 0.0649976 11.3916 -0.176007 13.3773C-0.467947 15.8597 0.0348013 18.3707 1.25996 20.5494C1.33445 20.683 1.40895 20.8063 1.49372 20.945C1.56006 21.0814 1.64666 21.207 1.7506 21.3175C0.851672 19.6106 0.361839 17.7181 0.319772 15.7894V15.6327C0.319772 15.5351 0.319772 15.4375 0.319772 15.3424C0.351636 14.3295 0.512188 13.3247 0.79757 12.3523C1.14764 11.1864 1.65769 10.0746 2.31317 9.04884C2.31317 9.04884 2.35941 8.97434 2.44418 8.8459C2.79747 8.31691 3.18266 7.8099 3.59757 7.32773C3.60821 7.31368 3.62026 7.30079 3.63354 7.2892C3.8262 7.06315 4.03427 6.83195 4.25776 6.60333L4.2706 6.59049C4.45042 6.41067 4.63537 6.23085 4.8306 6.06131C5.47388 5.459 6.1801 4.92765 6.93702 4.47636C8.57605 3.53024 10.3921 2.93128 12.2724 2.71672C13.6726 2.53618 15.0923 2.57606 16.4801 2.83489C18.1343 3.14447 19.7141 3.76698 21.1348 4.66902C22.4492 5.50586 23.6369 6.52663 24.6618 7.70021C24.6812 7.72277 24.7027 7.74339 24.726 7.76186C26.609 10.0738 27.1279 13.498 27.1484 13.6496C27.1844 14.1993 27.1998 14.749 27.1921 15.3039C27.1921 15.4631 27.1921 15.625 27.1921 15.7868C27.1487 17.0755 26.9478 18.354 26.5936 19.5938C25.8864 22.0915 24.3554 24.2768 22.2497 25.7949C20.6165 26.9574 18.79 27.821 16.8552 28.3456C16.3414 28.492 15.8277 28.6179 15.3011 28.7566C15.3498 28.7594 15.3987 28.7594 15.4475 28.7566C15.8354 28.6898 16.2181 28.6256 16.6086 28.5434C18.3052 28.1963 19.9424 27.6045 21.4688 26.7863C23.0866 25.9263 24.5135 24.7475 25.6637 23.3211C27.5004 21.0092 28.3506 18.3505 28.533 15.4426C28.6026 14.4863 28.5965 13.526 28.515 12.5707Z" fill="#011B33"/>
<path id="Vector_37" d="M34.6545 5.15967C34.656 5.11893 34.6481 5.0784 34.6309 5.04138C34.6137 5.00439 34.588 4.972 34.5559 4.9469C34.5238 4.9218 34.4862 4.90472 34.4462 4.89704C34.4061 4.88938 34.3647 4.89133 34.3257 4.90279L33.3829 5.04151C32.0672 5.23132 30.7692 5.52771 29.5015 5.92775C28.8382 6.13741 28.1868 6.38178 27.5492 6.65986C27.5132 6.67527 27.4593 6.73178 27.4105 6.71894L27.0174 6.90132L26.984 6.9193C26.6912 7.05288 26.4061 7.20701 26.1132 7.34573C24.8198 7.96915 23.6836 8.87617 22.7892 9.9993C21.8032 11.2357 20.9355 12.5619 20.1972 13.9604C19.9558 14.4048 19.7246 14.8518 19.4857 15.2988C19.1774 15.9564 18.3811 15.6378 18.0369 15.4606C17.9809 15.4361 17.9275 15.406 17.8776 15.3707C17.8031 15.3219 17.7312 15.2705 17.6567 15.2294C16.5129 14.5937 15.2644 14.1683 13.9704 13.9733C12.4669 13.7669 10.9367 13.8807 9.48017 14.3072C8.70953 14.5281 7.9209 14.7696 7.16824 15.0419C7.00641 15.101 6.48751 15.2988 5.40861 15.7226L5.2776 15.7766L5.22622 15.7971C5.15173 15.8279 5.07466 15.8588 5.00274 15.8921C4.98984 15.9074 4.97368 15.9194 4.95542 15.9274C4.93718 15.9355 4.91732 15.9392 4.89742 15.9384L4.64054 16.0617C4.38366 16.1876 4.12677 16.3186 3.86989 16.447C3.26366 16.7861 2.85008 17.043 2.82696 17.061C2.3816 17.3521 1.96906 17.6906 1.5965 18.0705C2.08971 17.9986 2.54953 17.9292 3.01191 17.8676C4.88766 17.5814 6.78405 17.4525 8.68127 17.4822C9.7445 17.4923 10.8008 17.6549 11.8178 17.9652C12.5241 18.1737 13.1658 18.5582 13.6827 19.0826C13.7726 19.1802 13.7675 19.2188 13.6339 19.2521C13.3411 19.3266 13.0559 19.4191 12.7631 19.491C11.8717 19.712 10.9649 19.8764 10.0838 20.141C9.69466 20.2348 9.32509 20.3965 8.9921 20.6188C8.60164 20.909 8.58879 20.9758 8.91503 21.3586C9.24844 21.7027 9.66803 21.951 10.1301 22.0778C11.2515 22.4329 12.4068 22.6705 13.5774 22.7868C13.6853 22.7868 13.6956 22.7688 13.6622 22.6789C13.588 22.4823 13.5464 22.275 13.5389 22.065C13.521 21.8873 13.5667 21.709 13.6678 21.5618C13.7689 21.4146 13.9189 21.308 14.0912 21.261C14.3926 21.1602 14.7046 21.0946 15.0211 21.0657C15.6993 20.9964 16.3826 21.0066 17.0607 20.9244C17.9605 20.8344 18.8385 20.593 19.6578 20.2103C20.554 19.7385 21.3594 19.1114 22.0365 18.3582C22.653 17.7126 23.2652 17.0644 23.8732 16.4136C23.9682 16.3109 24.0402 16.2775 24.1712 16.3597C24.3022 16.4419 24.5051 16.5292 24.6695 16.6166C24.7492 16.6602 24.7903 16.6654 24.7903 16.5523C24.8002 16.2625 24.7804 15.9724 24.7312 15.6866C24.7106 15.5081 24.6546 15.3354 24.5664 15.1788C24.4782 15.0222 24.3595 14.8848 24.2174 14.7747C24.0875 14.6737 23.9353 14.6053 23.7734 14.5753C23.6116 14.5454 23.445 14.5547 23.2875 14.6026C23.3055 14.5435 23.3158 14.4999 23.3286 14.4588C23.5649 13.7774 23.8606 13.1181 24.2123 12.4885C24.5758 11.8307 25.0594 11.2469 25.638 10.7674C25.6752 10.7336 25.7192 10.708 25.7669 10.6921C25.8147 10.6762 25.8653 10.6703 25.9154 10.6749C26.049 10.6856 26.1831 10.6588 26.3025 10.5975C26.4217 10.5363 26.5217 10.443 26.591 10.3281C26.6732 10.2022 26.7066 10.0584 26.7811 9.9171C27.002 10.323 27.3796 10.4026 27.7752 10.4129C27.9738 10.4241 28.1696 10.3608 28.3239 10.2354C28.4783 10.1099 28.5803 9.93141 28.6101 9.73472C28.9954 9.97619 29.1701 9.95564 29.3499 9.62169C29.4244 9.48041 29.4963 9.40077 29.6659 9.42389C29.746 9.42554 29.8239 9.39712 29.8842 9.34426C30.0214 9.24058 30.1185 9.09264 30.1591 8.92554C30.1873 8.83564 30.213 8.82279 30.2978 8.8716C30.3746 8.92023 30.4638 8.94604 30.5547 8.94604C30.6456 8.94604 30.7348 8.92023 30.8116 8.8716C30.9449 8.78385 31.0536 8.66363 31.1275 8.52224C31.1686 8.45031 31.1995 8.41692 31.2971 8.43747C31.3636 8.46478 31.4355 8.476 31.5072 8.47027C31.5789 8.46455 31.6482 8.44199 31.7094 8.40444C31.7708 8.3669 31.8224 8.31545 31.8602 8.25424C31.8977 8.19302 31.9205 8.12379 31.9264 8.05215C31.9318 8.01398 31.9483 7.97824 31.974 7.94945C31.9994 7.92065 32.033 7.90008 32.0703 7.89031C32.2206 7.84947 32.3511 7.75581 32.4379 7.62652C32.5247 7.49726 32.562 7.341 32.5429 7.18646C32.5414 7.10732 32.5345 7.02838 32.5224 6.95013C32.5224 6.90646 32.5224 6.86536 32.5686 6.86279C32.6198 6.86903 32.6714 6.86377 32.7202 6.84738C32.7189 6.83199 32.7189 6.81653 32.7202 6.80114L32.7433 6.83197C32.7798 6.81075 32.8109 6.78182 32.835 6.7472C32.8589 6.71257 32.8748 6.67311 32.882 6.6316C32.882 6.6316 32.882 6.6316 32.882 6.61619C32.8807 6.60594 32.8807 6.59558 32.882 6.58536C32.8944 6.44564 32.8741 6.30495 32.8229 6.17435C33.0927 6.21545 33.3367 6.25912 33.573 6.28738C33.683 6.30541 33.796 6.29714 33.9021 6.26321C34.0084 6.22927 34.105 6.17065 34.1844 6.09215C34.3647 5.91891 34.5096 5.71209 34.6108 5.48334C34.6525 5.3809 34.6676 5.26951 34.6545 5.15967Z" fill="#011B33"/>
</g>
<defs>
<clipPath id="clip0_16_1784">
<rect width="140" height="28" fill="white" transform="translate(0 0.859863)"/>
</clipPath>
</defs>
</svg>
