<svg width="75" height="29" viewBox="0 0 75 29" fill="none" xmlns="http://www.w3.org/2000/svg">
<g id="Ariiya-Stack-Blue_200304_155307.svg" clip-path="url(#clip0_16_1883)">
<g id="Layer 2">
<g id="Layer 1">
<path id="Vector" d="M38.9116 0.878244C38.5624 0.908749 38.2203 0.995356 37.8987 1.13473C37.39 1.35984 36.9008 1.79598 36.6963 2.21696C36.5881 2.4464 36.5881 2.46696 36.5881 2.8663C36.5881 3.26565 36.5946 3.29919 36.6844 3.48317C36.9658 4.05135 37.6443 4.49831 38.4517 4.63683C38.9498 4.7066 39.4563 4.68903 39.9484 4.58488C40.693 4.38684 41.365 3.89875 41.6248 3.35872C41.9852 2.61739 41.7427 1.83385 41.0014 1.33819C40.4289 0.968069 39.7092 0.808981 38.9116 0.878244Z" fill="#011B33"/>
<path id="Vector_2" d="M44.7167 0.87827C44.3729 0.912222 44.0364 0.998725 43.7189 1.13476C43.2092 1.35986 42.7211 1.796 42.5165 2.21699C42.4083 2.44642 42.4029 2.46698 42.4029 2.86633C42.4029 3.26567 42.4094 3.29922 42.4992 3.4832C42.7806 4.05137 43.4592 4.49833 44.2665 4.63686C44.7646 4.70663 45.2711 4.68905 45.7632 4.58491C46.5078 4.38686 47.1799 3.89878 47.4396 3.35874C47.8 2.61741 47.5576 1.83388 46.8162 1.33822C46.2491 0.968095 45.4937 0.801431 44.7167 0.87827Z" fill="#011B33"/>
<path id="Vector_3" d="M6.71525 4.15853C6.666 4.18996 6.61336 4.21574 6.55833 4.23536C6.08859 4.45025 5.69855 4.80773 5.44363 5.25699C5.35525 5.44091 5.28283 5.63209 5.22718 5.82841C5.17848 6.00914 5.11896 6.25156 5.08541 6.36952C5.05186 6.48749 4.98476 6.74722 4.92957 6.95826C4.87437 7.16929 4.75316 7.63465 4.65576 7.99828C4.45447 8.74935 4.39278 8.98852 4.0811 10.1627C3.95556 10.6313 3.81379 11.1681 3.76509 11.3532C3.71639 11.5383 3.65686 11.745 3.64388 11.8034C3.60925 11.9116 3.35276 12.877 3.09302 13.8824C3.01727 14.1659 2.91662 14.5501 2.86792 14.7308C2.81922 14.9116 2.72615 15.2925 2.6439 15.5782C2.56165 15.8639 2.47074 16.2362 2.42745 16.4094C2.38416 16.5825 2.2781 16.9711 2.19477 17.2752C2.11144 17.5793 2.01079 17.9678 1.96642 18.1409C1.92205 18.3141 1.82032 18.6821 1.74456 18.9721C1.66881 19.2621 1.5779 19.6095 1.53677 19.7513C1.49565 19.8931 1.39067 20.3065 1.29435 20.6701C1.19804 21.0338 1.08332 21.4775 1.03462 21.6571C0.985918 21.8368 0.899339 22.1668 0.840899 22.3844C0.782458 22.6019 0.698044 22.9255 0.649344 23.1019C0.403678 24.0131 0.680729 24.6084 1.45669 24.8335C1.48158 24.841 1.49132 24.8681 1.48158 24.8995C1.47184 24.9309 2.38524 24.9514 10.5539 24.9514C19.6165 24.9514 19.6447 24.9514 19.6652 24.8822C19.676 24.8335 19.7139 24.8129 19.7734 24.8129C19.9055 24.8129 20.2832 24.6333 20.5397 24.4493C21.0007 24.1246 21.2604 23.7112 21.4477 23.011C21.5093 22.7729 21.6067 22.4049 21.6641 22.1972C21.7215 21.9894 21.8199 21.6117 21.886 21.366C22.0656 20.6939 22.2182 20.1225 22.308 19.7719C22.3535 19.5987 22.4466 19.2492 22.5158 18.9927C22.5851 18.7362 22.703 18.2892 22.7766 18.0057C22.8502 17.7221 22.9671 17.2741 23.0364 17.0187C23.1056 16.7633 23.1955 16.4332 23.2333 16.2903C23.2712 16.1475 23.3199 15.9516 23.3481 15.8574C23.3762 15.7633 23.4314 15.5328 23.479 15.3553C23.5266 15.1778 23.6392 14.7525 23.729 14.4202C23.8989 13.7796 23.94 13.6194 24.1478 12.8434C24.2171 12.5772 24.3112 12.2168 24.3589 12.0469C24.4065 11.877 24.5115 11.4614 24.598 11.1292C24.7441 10.5675 24.9833 9.68115 25.0623 9.39761C25.0796 9.33159 25.1283 9.15194 25.1705 8.99934C25.2647 8.63247 25.4173 8.06754 25.5688 7.49288C25.6381 7.23639 25.7322 6.8825 25.7766 6.71259C25.821 6.54268 25.9162 6.18338 25.9855 5.91607C26.0937 5.50049 26.1099 5.39335 26.0937 5.17149C26.0875 5.02673 26.0583 4.88388 26.0071 4.74834C25.8897 4.52057 25.708 4.33238 25.4844 4.20723L25.335 4.13147H16.0376C10.9273 4.13147 6.7304 4.14446 6.71525 4.15853ZM20.3817 7.10977C20.3722 7.18327 20.3558 7.25573 20.333 7.32622C20.0732 8.09568 19.4942 10.1324 19.1165 11.5978C18.8471 12.6508 18.7042 13.2049 18.6003 13.5891C18.5559 13.7698 18.4412 14.1995 18.3546 14.5425C17.9326 16.1843 17.8384 16.5512 17.714 17.0198C17.6382 17.2968 17.5062 17.7643 17.4196 18.0587C16.8893 19.8325 16.6187 20.9309 16.5809 21.4569L16.5603 21.7588L16.4358 21.7935C15.7809 21.9938 15.0761 21.9554 14.4467 21.6853C14.0794 21.5073 13.749 21.2617 13.4727 20.9612L13.2238 20.6799L13.0366 20.8184C12.4546 21.2576 11.7827 21.5629 11.0691 21.7123C10.5568 21.7916 10.0342 21.7751 9.52797 21.6636C8.3873 21.3487 7.53558 20.3887 7.18169 19.0176C7.01286 18.3682 6.96524 17.9461 6.96524 17.1226C6.96524 16.6897 6.98581 16.2427 7.00637 16.1172C7.02693 15.9916 7.07238 15.7362 7.10377 15.5458C7.18637 15.064 7.30576 14.5893 7.46091 14.1259C7.99012 12.5177 8.78015 11.2038 9.8548 10.1216C11.3115 8.65195 12.8255 8.08378 14.2671 8.44741C14.8184 8.60752 15.3108 8.9254 15.6837 9.36189C15.7811 9.47661 15.8677 9.55994 15.8817 9.54587C15.8958 9.5318 16.1101 8.77965 16.1447 8.59351C16.1653 8.47554 16.4694 8.18767 16.8027 7.96906C17.5532 7.49134 18.4062 7.19834 19.2919 7.1141C19.3998 7.10822 19.5069 7.09081 19.6111 7.06215C19.7429 7.04269 19.8762 7.03545 20.0094 7.04051C20.3568 7.04051 20.3817 7.04484 20.3817 7.10977Z" fill="#011B33"/>
<path id="Vector_4" d="M13.5225 11.351C12.7043 11.5794 11.7628 12.7157 11.2076 14.1432C10.8999 14.8922 10.7252 15.6891 10.6914 16.4981C10.6535 17.5587 10.8266 18.1853 11.2249 18.4386C11.344 18.525 11.4911 18.5636 11.6372 18.5468C11.8208 18.5581 12.0031 18.5095 12.1567 18.4082C12.9327 18.0197 13.7801 16.8563 14.2909 15.4635C14.6826 14.3997 14.832 13.6313 14.793 12.8477C14.7487 11.982 14.5441 11.535 14.1253 11.3759C13.9333 11.2978 13.7202 11.289 13.5225 11.351Z" fill="#011B33"/>
<path id="Vector_5" d="M66.9934 7.04484C65.2337 7.26994 63.2835 8.76666 61.9069 10.9409C61.4906 11.6479 61.1289 12.3856 60.8247 13.1475C60.4802 14.0431 60.2451 14.977 60.1245 15.9289C60.0427 16.7699 60.0427 17.617 60.1245 18.458C60.3777 20.3325 61.132 21.5651 62.4145 22.1993C62.8603 22.4325 63.3561 22.554 63.8592 22.5532C64.1369 22.5699 64.4155 22.5568 64.6904 22.5142C65.5605 22.3476 66.3813 21.9853 67.0908 21.4547C67.1564 21.3981 67.2315 21.3534 67.3126 21.3227C67.395 21.4001 67.4713 21.4837 67.541 21.5727C67.983 22.0783 68.56 22.4474 69.2044 22.6365C69.568 22.7361 70.3862 22.7448 70.7769 22.6571C71.4734 22.4834 72.1382 22.2007 72.7465 21.8195C73.0593 21.629 73.0712 21.6149 73.121 21.4418C73.6134 19.7167 73.859 18.8368 73.8482 18.8271C73.7631 18.8378 73.6796 18.8585 73.5993 18.8888C73.3049 18.9786 72.8612 19.0132 72.6599 18.9613C72.3418 18.8747 72.1751 18.6085 72.2141 18.2481C72.2238 18.1507 72.8634 15.6291 73.6372 12.6432C74.411 9.65734 75.0441 7.20068 75.0441 7.1931C75.0441 7.18553 74.0701 7.18336 72.8894 7.18661L70.7379 7.19743L70.5712 7.81647C70.4782 8.15629 70.3981 8.44416 70.3916 8.45065C70.3102 8.3838 70.2375 8.30709 70.1751 8.2223C69.4327 7.30457 68.2856 6.88142 66.9934 7.04484ZM68.4728 10.5502C68.8613 10.7753 69.0518 11.2082 69.1221 12.0404C69.2119 12.9506 69.029 13.9971 68.5713 15.1994C68.0691 16.5198 67.5843 17.3336 66.8667 18.0609C66.3094 18.629 65.9079 18.8541 65.4534 18.8541C64.9198 18.8541 64.5984 18.5186 64.4242 17.7806C64.3452 17.4407 64.3159 16.4635 64.369 15.9754C64.646 13.5577 66.1568 10.9625 67.5561 10.4982C67.8527 10.4052 68.265 10.4257 68.4728 10.5502Z" fill="#011B33"/>
<path id="Vector_6" d="M35.7634 7.19741C35.7634 7.20715 34.876 10.6227 33.7884 14.7871C32.7007 18.9515 31.8133 22.3627 31.8133 22.3735C31.8133 22.3844 32.8014 22.3876 34.0102 22.3876C36.0751 22.3876 36.2104 22.3876 36.2277 22.3259C36.245 22.2642 40.114 7.4117 40.1486 7.27317L40.1692 7.17902H37.9658C36.7537 7.17902 35.7634 7.18659 35.7634 7.19741Z" fill="#011B33"/>
<path id="Vector_7" d="M41.5782 7.19741C41.5782 7.20715 40.6919 10.6227 39.6042 14.7871C38.5166 18.9515 37.6292 22.3627 37.6292 22.3735C37.6292 22.3844 38.6161 22.3876 39.8261 22.3876C41.8899 22.3876 42.0252 22.3876 42.0425 22.3259C42.0598 22.2642 45.9342 7.40845 45.9688 7.27317L45.9894 7.17902H43.786C42.5739 7.17902 41.5782 7.18659 41.5782 7.19741Z" fill="#011B33"/>
<path id="Vector_8" d="M46.9764 7.27317C46.984 7.32837 47.3163 10.7439 47.7145 14.8672L48.4385 22.3638L48.155 22.7307C47.9076 23.0349 47.645 23.3264 47.3682 23.604C46.786 24.1863 46.3152 24.525 45.8163 24.7122C45.5392 24.8205 45.4808 24.827 45.1161 24.8302C44.7514 24.8335 44.7048 24.8237 44.5695 24.7436C44.4094 24.6538 44.2849 24.4871 44.2849 24.3659C44.2849 24.3281 44.2752 24.2934 44.2611 24.2934C44.247 24.2934 43.7828 24.9233 43.2287 25.6927L42.2276 27.0921V27.3312C42.2276 28.0239 42.8369 28.5304 43.9213 28.7381C45.615 29.0747 47.2816 28.5509 49.1593 27.0888C49.7439 26.6095 50.2853 26.0797 50.7772 25.5055C51.0272 25.1938 51.8097 24.0304 52.2923 23.2545C52.4514 22.998 54.7209 19.2838 57.3355 14.9981L62.0887 7.21473H57.6743L57.1516 8.07294C56.275 9.50798 52.2815 16.0306 52.2631 16.0447C52.2447 16.0587 52.2458 16.0511 52.2393 16.0447C52.2328 16.0382 52.0348 14.0393 51.7989 11.6075L51.3735 7.18335H46.9634L46.9764 7.27317Z" fill="#011B33"/>
<path id="Vector_9" d="M33.1368 7.2667C32.5827 7.37492 31.758 7.70608 31.1239 8.08378C30.968 8.17685 30.9442 8.18443 30.9583 8.12923C30.968 8.0946 31.0167 7.91279 31.0665 7.7169C31.1163 7.52102 31.1639 7.34245 31.1747 7.30782C31.192 7.25263 31.0665 7.24938 28.9929 7.24938H26.796L26.7581 7.3576C26.7127 7.50262 22.7366 22.3065 22.7366 22.3303C22.7366 22.3541 23.7236 22.3508 24.9324 22.3508C26.9973 22.3508 27.1326 22.3508 27.1499 22.2891C27.1564 22.2578 27.6964 20.2481 28.3479 17.8304C29.415 13.8672 29.5503 13.3932 29.7029 13.0685C30.5546 11.2742 31.8674 10.6876 33.4236 11.403C33.5278 11.4559 33.6365 11.4998 33.7483 11.5339C33.7613 11.5339 33.9939 10.6097 34.2602 9.4831C34.811 7.18986 34.7905 7.39765 34.4647 7.29375C34.2245 7.218 33.4691 7.20068 33.1368 7.2667Z" fill="#011B33"/>
</g>
</g>
</g>
<defs>
<clipPath id="clip0_16_1883">
<rect width="74.2832" height="27.98" fill="white" transform="translate(0.663452 0.859863)"/>
</clipPath>
</defs>
</svg>
