<svg width="159" height="29" viewBox="0 0 159 29" fill="none" xmlns="http://www.w3.org/2000/svg">
<g id="Axa-mansard-_-Plain.svg" clip-path="url(#clip0_16_1252)">
<path id="Vector" d="M28.2602 28.6699C28.2602 28.6699 0.297545 28.6649 0.291426 28.6588C0.285306 28.6527 0.280304 25.8031 0.280304 25.8031H0.880588C1.43126 25.8031 1.48302 25.8006 1.50687 25.7739C1.52116 25.7579 1.59433 25.6454 1.66944 25.524C1.85467 25.2247 2.16191 24.787 2.35645 24.5454C2.51773 24.3451 3.21279 23.441 4.22786 22.1112L4.77493 21.3945H6.8413H8.90768L9.11252 22.1029C9.22516 22.4925 9.33194 22.862 9.34975 22.9239L9.38215 23.0366L9.03842 23.4823C7.97619 24.8595 7.81319 25.0562 7.40158 25.458C7.21342 25.6417 7.11663 25.7477 7.12021 25.7663C7.12528 25.7926 7.19733 25.7951 8.09799 25.799C8.63275 25.8014 9.08019 25.7976 9.09228 25.7907C9.10443 25.7838 9.17202 25.6637 9.24261 25.5239C9.37693 25.2579 9.51189 25.055 9.79225 24.6976C9.88444 24.5801 9.96827 24.4731 9.97842 24.4601C9.98858 24.447 10.0015 24.4363 10.007 24.4363C10.0171 24.4363 10.1309 24.7875 10.2072 25.0545C10.2298 25.1333 10.269 25.3235 10.2945 25.4771C10.321 25.6371 10.3508 25.7663 10.3641 25.7798C10.3837 25.7992 10.551 25.8031 11.3781 25.8031H12.3687L12.3916 25.7655C12.4043 25.7449 12.4701 25.6233 12.5379 25.4952C12.6057 25.3671 12.7185 25.1854 12.7886 25.0914C12.9701 24.8482 13.2886 24.4817 13.3045 24.4977C13.3425 24.5359 13.5089 25.1549 13.5609 25.4513C13.5951 25.6459 13.6264 25.7802 13.6397 25.7886C13.6645 25.8044 16.1374 25.8086 16.1782 25.7929C16.1927 25.7873 16.2045 25.7739 16.2045 25.763C16.2045 25.752 16.14 25.6272 16.0611 25.4855C15.7574 24.9404 15.7792 24.9986 15.1888 23.1592C15.0413 22.6996 14.9206 22.3148 14.9206 22.304C14.9206 22.2931 15.0638 22.0821 15.2388 21.8351L15.5569 21.386L17.6353 21.3902L19.7138 21.3945L20.0188 22.3779C20.47 23.8328 20.7371 24.7088 20.7818 24.8803C20.8322 25.0736 20.8714 25.3369 20.8848 25.5721C20.892 25.6964 20.903 25.7635 20.9189 25.7795C20.9388 25.7994 21.1442 25.8031 22.2406 25.8031C22.9545 25.8031 23.5505 25.7985 23.565 25.7929C23.6034 25.7782 23.5983 25.76 23.5313 25.6729C23.4091 25.5138 23.2093 25.0512 22.9604 24.3507C22.815 23.9417 22.5059 23.0016 22.0902 21.7043C21.9422 21.2422 21.7988 20.8037 21.7715 20.7299C21.6773 20.4745 20.4084 16.048 20.383 15.8859C20.3693 15.7988 20.3498 15.6487 20.3398 15.5525C20.3298 15.4563 20.3177 15.3644 20.3129 15.3483C20.3048 15.3209 20.2403 15.3192 19.2643 15.3192H18.2243L18.1512 15.4734C18.055 15.6761 17.7965 16.1203 17.659 16.3192C17.2902 16.8526 14.3966 20.6688 14.3768 20.648C14.3623 20.6327 14.0702 19.5934 14.0761 19.5781C14.0829 19.5601 14.7021 18.7711 16.1362 16.9526C16.808 16.1005 17.127 15.7336 17.4037 15.4942C17.4778 15.43 17.5385 15.3644 17.5385 15.3483C17.5385 15.3209 17.4768 15.3192 16.4717 15.3192H15.4048L15.3965 15.3567C15.392 15.3773 15.3803 15.4406 15.3707 15.4973C15.3316 15.7264 15.2601 15.8752 15.068 16.1276C14.7582 16.5346 13.4405 18.1921 13.4213 18.199C13.4141 18.2017 13.3764 18.0892 13.3375 17.9491C13.2228 17.5354 12.9302 16.5027 12.8303 16.1584C12.742 15.8541 12.714 15.6932 12.6986 15.4025L12.6946 15.3275L11.4283 15.3232C10.6529 15.3206 10.1559 15.325 10.1463 15.3346C10.1364 15.3445 10.1589 15.4054 10.2061 15.4972C10.4055 15.8849 10.4992 16.1473 11.1191 18.0534C11.4597 19.1008 11.7351 19.9704 11.731 19.9858C11.7191 20.0315 11.0801 20.8374 11.0668 20.8237C11.0335 20.7896 9.68926 16.3934 9.65894 16.2198C9.64542 16.1422 9.61903 15.9247 9.60029 15.7364C9.58155 15.5482 9.56274 15.3773 9.55845 15.3566L9.5508 15.3192H8.45345H7.35617L7.1294 15.7733C7.00469 16.0231 6.84606 16.3223 6.77692 16.4382C6.6191 16.7025 5.6149 18.0478 4.16571 19.9361C3.8667 20.3257 3.45391 20.8657 3.24839 21.1361C2.46612 22.1655 1.73538 23.1019 0.914838 24.1265C0.607125 24.5108 0.338748 24.8445 0.318439 24.8683L0.281521 24.9114L0.280304 0.689941H26.6335C26.6335 0.689941 23.7729 4.42426 18.0253 11.8573C16.9138 13.2947 16.0044 14.4846 16.0044 14.5014C16.0044 14.519 16.0204 14.5362 16.042 14.5419C16.0912 14.5552 17.5688 14.555 17.6182 14.5419C17.6582 14.5311 17.6825 14.5 19.9149 11.6023C20.6106 10.6993 21.3533 9.73557 21.5653 9.46057C22.4612 8.29857 28.2374 0.698642 28.2455 0.689941L28.2602 28.6699ZM11.8044 23.0837C11.6537 22.6169 11.5873 22.3889 11.5968 22.3701C11.6205 22.3226 12.2579 21.5029 12.2709 21.5029C12.2777 21.5029 12.3074 21.576 12.337 21.6654C12.4401 21.9768 12.6485 22.5622 12.699 22.6825L12.7499 22.8036L12.6575 22.9324C12.38 23.3196 12.0464 23.7697 12.0369 23.7697C12.0309 23.7697 11.9263 23.461 11.8044 23.0837ZM5.82833 20.082C5.83721 20.0704 5.9943 19.8735 6.17741 19.6444C6.62586 19.0831 7.08231 18.4878 7.32981 18.1414C7.5397 17.8476 7.78387 17.476 7.78387 17.4504C7.78387 17.4425 7.79138 17.436 7.80053 17.436C7.81069 17.436 7.8172 17.5102 7.8172 17.6254C7.8172 17.7297 7.82871 17.8815 7.84266 17.9629C7.87084 18.1264 8.02504 18.6467 8.30218 19.5133C8.40231 19.8262 8.4842 20.0869 8.4842 20.0925C8.4842 20.0981 7.883 20.1028 7.14819 20.1028C6.08189 20.1028 5.81543 20.0986 5.82833 20.082ZM16.5993 20.0653C17.4557 19.0107 18.1648 18.0697 18.4537 17.6044L18.5678 17.4207L18.5767 17.6658C18.5816 17.8006 18.5971 17.9634 18.6112 18.0277C18.6455 18.184 18.812 18.7341 19.04 19.4443C19.143 19.7652 19.2308 20.0446 19.2352 20.0652L19.2432 20.1028H17.906H16.5689L16.5993 20.0653Z" fill="#011B33"/>
<path id="Vector_2" d="M36.7071 24.8019L40.8466 12.4597H43.8604L47.9479 24.8019H45.5577L44.5705 21.7466H39.8421L38.8721 24.8019H36.7071ZM42.2149 14.3413L40.379 20.0722H44.0335L42.2149 14.3413Z" fill="#011B33"/>
<path id="Vector_3" d="M48.4371 24.8019L52.4207 18.4668L48.7142 12.4597H51.3122L53.9449 16.8442L56.5603 12.4597H58.9331L55.2786 18.415L59.2449 24.8019H56.6122L53.7024 19.9859L50.7927 24.8019H48.4371Z" fill="#011B33"/>
<path id="Vector_4" d="M59.72 24.8019L63.8595 12.4597H66.8732L70.9608 24.8019H68.5706L67.5834 21.7466H62.8549L61.885 24.8019H59.72ZM65.2278 14.3413L63.3919 20.0722H67.0465L65.2278 14.3413Z" fill="#011B33"/>
<path id="Vector_5" d="M75.9388 24.8019V12.4597H79.0217L82.2779 20.8835L85.4648 12.4597H88.5132V24.8019H86.2096V15.4805L82.5204 24.8019H81.7756L78.0171 15.4805V24.8019H75.9388Z" fill="#011B33"/>
<path id="Vector_6" d="M89.8754 24.8019L94.0149 12.4597H97.0288L101.116 24.8019H98.7261L97.7389 21.7466H93.0102L92.0404 24.8019H89.8754ZM95.3833 14.3413L93.5471 20.0722H97.202L95.3833 14.3413Z" fill="#011B33"/>
<path id="Vector_7" d="M102.486 24.8019V12.4597H105.241L110.454 21.3841V12.4597H112.55V24.8019H110.159L104.582 15.3424V24.8019H102.486Z" fill="#011B33"/>
<path id="Vector_8" d="M119.081 24.9744C117.465 24.9744 116.253 24.6177 115.444 23.9042C114.648 23.1907 114.203 22.2125 114.11 20.9697H116.328C116.42 21.6947 116.662 22.2585 117.055 22.6613C117.448 23.0526 118.123 23.2482 119.081 23.2482C119.774 23.2482 120.335 23.0756 120.762 22.7303C121.2 22.3736 121.42 21.9133 121.42 21.3494C121.42 20.774 121.24 20.354 120.883 20.0893C120.525 19.8246 119.844 19.6117 118.839 19.4506C117.303 19.2435 116.189 18.8752 115.496 18.3458C114.815 17.805 114.474 16.9707 114.474 15.8429C114.474 14.8187 114.873 13.9728 115.669 13.3054C116.466 12.6379 117.505 12.3042 118.787 12.3042C120.127 12.3042 121.183 12.6092 121.957 13.2191C122.73 13.8175 123.175 14.7036 123.29 15.8774H121.177C121.062 15.233 120.813 14.7669 120.432 14.4792C120.052 14.18 119.503 14.0304 118.787 14.0304C118.106 14.0304 117.58 14.18 117.211 14.4792C116.841 14.7669 116.656 15.1582 116.656 15.653C116.656 16.1824 116.824 16.5794 117.159 16.8441C117.505 17.1087 118.192 17.3159 119.22 17.4655C120.756 17.6726 121.876 18.0466 122.58 18.5875C123.285 19.1169 123.637 19.9742 123.637 21.1595C123.637 22.2528 123.215 23.1619 122.372 23.8869C121.529 24.6119 120.432 24.9744 119.081 24.9744Z" fill="#011B33"/>
<path id="Vector_9" d="M123.955 24.8019L128.095 12.4597H131.108L135.196 24.8019H132.806L131.819 21.7466H127.09L126.12 24.8019H123.955ZM129.463 14.3413L127.627 20.0722H131.282L129.463 14.3413Z" fill="#011B33"/>
<path id="Vector_10" d="M136.566 24.8019V12.4597H140.723C142.143 12.4597 143.269 12.7589 144.101 13.3573C144.932 13.9557 145.348 14.8649 145.348 16.0847V16.1537C145.348 17.8914 144.43 18.9962 142.593 19.468L146.075 24.8019H143.581L140.342 19.8132H138.87V24.8019H136.566ZM138.87 18.1734H140.723C142.294 18.1734 143.079 17.5174 143.079 16.2055V16.1365C143.079 15.4575 142.876 14.9742 142.473 14.6865C142.08 14.3873 141.497 14.2377 140.723 14.2377H138.87V18.1734Z" fill="#011B33"/>
<path id="Vector_11" d="M149.7 22.9894H151.051C152.413 22.9894 153.435 22.6212 154.116 21.8847C154.809 21.1366 155.155 20.0664 155.155 18.674V18.5359C155.155 15.6934 153.782 14.2722 151.033 14.2722H149.7V22.9894ZM147.396 24.8019V12.4597H151.155C153.256 12.4597 154.85 13.0063 155.935 14.0996C157.021 15.1813 157.563 16.6486 157.563 18.5013V18.6567C157.563 20.521 157.015 22.0113 155.918 23.1276C154.821 24.2438 153.222 24.8019 151.12 24.8019H147.396Z" fill="#011B33"/>
<path id="Vector_12" d="M36.8514 24.8019L40.991 12.4597H44.0047L48.0922 24.8019H45.702L44.7148 21.7466H39.9864L39.0165 24.8019H36.8514ZM42.3593 14.3413L40.5233 20.0722H44.1779L42.3593 14.3413Z" fill="#011B33"/>
<path id="Vector_13" d="M48.5814 24.8019L52.5651 18.4668L48.8585 12.4597H51.4566L54.0892 16.8442L56.7046 12.4597H59.0774L55.4229 18.415L59.3892 24.8019H56.7566L53.8468 19.9859L50.9369 24.8019H48.5814Z" fill="#011B33"/>
<path id="Vector_14" d="M59.8643 24.8019L64.0038 12.4597H67.0176L71.1051 24.8019H68.7149L67.7277 21.7466H62.9993L62.0293 24.8019H59.8643ZM65.3721 14.3413L63.5362 20.0722H67.1907L65.3721 14.3413Z" fill="#011B33"/>
<path id="Vector_15" d="M76.083 24.8019V12.4597H79.1661L82.4222 20.8835L85.6092 12.4597H88.6575V24.8019H86.3539V15.4805L82.6647 24.8019H81.92L78.1615 15.4805V24.8019H76.083Z" fill="#011B33"/>
<path id="Vector_16" d="M90.0196 24.8019L94.159 12.4597H97.1729L101.261 24.8019H98.8702L97.883 21.7466H93.1549L92.1846 24.8019H90.0196ZM95.5274 14.3413L93.6918 20.0722H97.3461L95.5274 14.3413Z" fill="#011B33"/>
<path id="Vector_17" d="M102.631 24.8019V12.4597H105.385L110.598 21.3841V12.4597H112.694V24.8019H110.304L104.727 15.3424V24.8019H102.631Z" fill="#011B33"/>
<path id="Vector_18" d="M119.226 24.9744C117.609 24.9744 116.397 24.6177 115.589 23.9042C114.792 23.1907 114.347 22.2125 114.255 20.9697H116.472C116.564 21.6947 116.807 22.2585 117.199 22.6613C117.592 23.0526 118.267 23.2482 119.226 23.2482C119.919 23.2482 120.479 23.0756 120.906 22.7303C121.344 22.3736 121.564 21.9133 121.564 21.3494C121.564 20.774 121.385 20.354 121.027 20.0893C120.669 19.8246 119.988 19.6117 118.983 19.4506C117.447 19.2435 116.333 18.8752 115.641 18.3458C114.959 17.805 114.619 16.9707 114.619 15.8429C114.619 14.8187 115.017 13.9728 115.814 13.3054C116.611 12.6379 117.65 12.3042 118.931 12.3042C120.271 12.3042 121.328 12.6092 122.101 13.2191C122.874 13.8175 123.319 14.7036 123.435 15.8774H121.322C121.206 15.233 120.958 14.7669 120.577 14.4792C120.196 14.18 119.647 14.0304 118.931 14.0304C118.25 14.0304 117.724 14.18 117.355 14.4792C116.986 14.7669 116.801 15.1582 116.801 15.653C116.801 16.1824 116.969 16.5794 117.303 16.8441C117.65 17.1087 118.337 17.3159 119.364 17.4655C120.9 17.6726 122.02 18.0466 122.724 18.5875C123.429 19.1169 123.781 19.9742 123.781 21.1595C123.781 22.2528 123.36 23.1619 122.516 23.8869C121.674 24.6119 120.577 24.9744 119.226 24.9744Z" fill="#011B33"/>
<path id="Vector_19" d="M124.099 24.8019L128.239 12.4597H131.253L135.34 24.8019H132.95L131.963 21.7466H127.234L126.264 24.8019H124.099ZM129.607 14.3413L127.771 20.0722H131.426L129.607 14.3413Z" fill="#011B33"/>
<path id="Vector_20" d="M136.711 24.8019V12.4597H140.868C142.288 12.4597 143.413 12.7589 144.245 13.3573C145.076 13.9557 145.492 14.8649 145.492 16.0847V16.1537C145.492 17.8914 144.574 18.9962 142.738 19.468L146.219 24.8019H143.725L140.487 19.8132H139.014V24.8019H136.711ZM139.014 18.1734H140.868C142.438 18.1734 143.223 17.5174 143.223 16.2055V16.1365C143.223 15.4575 143.021 14.9742 142.617 14.6865C142.224 14.3873 141.641 14.2377 140.868 14.2377H139.014V18.1734Z" fill="#011B33"/>
<path id="Vector_21" d="M149.844 22.9894H151.195C152.557 22.9894 153.58 22.6212 154.261 21.8847C154.954 21.1366 155.3 20.0664 155.3 18.674V18.5359C155.3 15.6934 153.926 14.2722 151.178 14.2722H149.844V22.9894ZM147.541 24.8019V12.4597H151.299C153.401 12.4597 154.994 13.0063 156.079 14.0996C157.165 15.1813 157.707 16.6486 157.707 18.5013V18.6567C157.707 20.521 157.159 22.0113 156.062 23.1276C154.965 24.2438 153.366 24.8019 151.264 24.8019H147.541Z" fill="#011B33"/>
</g>
<defs>
<clipPath id="clip0_16_1252">
<rect width="157.849" height="27.98" fill="white" transform="translate(0.280304 0.689941)"/>
</clipPath>
</defs>
</svg>
