<svg width="101" height="29" viewBox="0 0 101 29" fill="none" xmlns="http://www.w3.org/2000/svg">
<g id="Betway-Plain.svg" clip-path="url(#clip0_16_1930)">
<path id="Vector" fill-rule="evenodd" clip-rule="evenodd" d="M84.6884 24.5696C84.281 24.4398 83.9254 24.2891 83.6244 24.1179L82.2048 27.9229C82.8278 28.2032 83.4844 28.4291 84.1718 28.6029C84.8599 28.7742 85.6124 28.8599 86.43 28.8599C87.7201 28.8599 88.8436 28.5899 89.8019 28.0527C90.7595 27.5154 91.5176 26.5889 92.0755 25.2781L99.9477 6.6347H94.1412L90.98 15.8253L87.7873 6.6347H81.6567L88.3354 21.6963L87.4317 23.7312C87.2581 24.1179 87.0481 24.3853 86.801 24.5358C86.5546 24.6863 86.2277 24.7616 85.8175 24.7616C85.4752 24.7616 85.0986 24.6993 84.6884 24.5696ZM75.664 15.327C75.986 15.2959 76.3101 15.2673 76.6321 15.2465V18.1821C76.3521 18.3975 76.0455 18.5688 75.7137 18.6985C75.3784 18.8283 75.0102 18.8906 74.6 18.8906C74.0421 18.8906 73.606 18.7479 73.2945 18.4572C72.983 18.1665 72.8248 17.7953 72.8248 17.3437C72.8248 16.9129 72.9648 16.521 73.2448 16.1654C73.5255 15.8124 73.998 15.5788 74.6651 15.4724C75.0102 15.4074 75.342 15.3582 75.664 15.327ZM76.9877 21.1487L77.4392 22.3763L82.181 22.3763V12.4407C82.181 10.3332 81.5685 8.77847 80.3414 7.77925C79.1157 6.77738 77.4707 6.27905 75.4071 6.27905C73.9224 6.27905 72.6484 6.4945 71.5837 6.92535C70.5197 7.35361 69.5569 7.94533 68.6978 8.69804L71.2127 11.5038C71.7293 11.0962 72.2613 10.7745 72.8087 10.5356C73.3596 10.2994 73.9434 10.1827 74.5685 10.1827C75.1271 10.1827 75.6122 10.3332 76.0196 10.6343C76.427 10.9354 76.6321 11.4077 76.6321 12.0541V12.4407C76.1393 12.4617 75.594 12.5007 75.0025 12.5525C74.4103 12.6069 73.7719 12.6873 73.0838 12.7964C72.3313 12.9028 71.6229 13.0845 70.9558 13.3441C70.2889 13.6011 69.7023 13.9358 69.1961 14.3433C68.6926 14.7508 68.2929 15.2465 68.0048 15.8253C67.7141 16.4067 67.5687 17.0867 67.5687 17.8602C67.5687 18.6129 67.6959 19.2799 67.9555 19.8587C68.2124 20.4401 68.5732 20.941 69.0352 21.3589C69.4972 21.7794 70.0422 22.096 70.6653 22.3114C71.2883 22.5242 71.9652 22.6333 72.6974 22.6333C73.6655 22.6333 74.5146 22.488 75.2461 22.1973C75.9755 21.9091 76.5572 21.5588 76.9877 21.1487ZM42.4807 2.65843L49.4574 22.3763H53.7478L56.1979 14.1175L58.6818 22.3763H63.0033L68.5862 6.6347H62.8112L60.4882 14.9896L58.0692 6.6347H54.3914L51.9724 14.9896L47.939 2.65843H42.4807ZM32.4881 6.6347V10.5695H34.715V17.4735C34.715 18.2677 34.7956 18.9866 34.9564 19.633C35.1174 20.2792 35.3925 20.8269 35.7792 21.2784C36.1659 21.7301 36.6772 22.0804 37.3105 22.327C37.9464 22.5737 38.7251 22.6982 39.649 22.6982C40.747 22.6982 41.7099 22.5684 42.5378 22.3114C43.3658 22.0519 44.1341 21.6781 44.8426 21.1825L43.3918 17.7616C43.1114 17.977 42.7948 18.1718 42.4392 18.343C42.0862 18.5142 41.7151 18.6025 41.3283 18.6025C40.9183 18.6025 40.6561 18.452 40.5367 18.1509C40.4199 17.8498 40.3602 17.4294 40.3602 16.8921V10.5695H44.1471L42.7532 6.6347H40.3602V2.66622H34.7151V6.6347H32.4881ZM26.5704 10.585C27.0116 11.0678 27.2633 11.7297 27.3282 12.5706H22.4254C22.5111 11.7531 22.7966 11.0964 23.2793 10.6006C23.7647 10.1075 24.3279 9.85829 24.9741 9.85829C25.5971 9.85829 26.1291 10.1023 26.5704 10.585ZM23.313 17.7798C22.7421 17.2529 22.4358 16.5157 22.3916 15.5684H32.6179C32.5971 12.4071 31.8937 10.0686 30.5051 8.55279C29.1192 7.03701 27.253 6.27914 24.9093 6.27914C23.7699 6.27914 22.7109 6.46082 21.7324 6.8268C20.7539 7.19275 19.9104 7.73 19.1992 8.44114C18.4881 9.14975 17.93 10.014 17.5225 11.0367C17.1124 12.0593 16.91 13.2247 16.91 14.538C16.91 15.8928 17.1228 17.079 17.5537 18.1016C17.9845 19.1216 18.5659 19.9729 19.2978 20.6477C20.0272 21.3278 20.8811 21.8391 21.8622 22.1817C22.8407 22.5244 23.8866 22.6982 25.0053 22.6982C25.9293 22.6982 26.7624 22.6229 27.5048 22.4724C28.2471 22.3219 28.9037 22.1064 29.4721 21.8261C30.0432 21.5484 30.5493 21.2292 30.9905 20.8762C31.4317 20.5206 31.8236 20.1286 32.1689 19.6978L28.7168 16.9881C28.2834 17.5254 27.8162 17.9251 27.3127 18.182C26.8066 18.4416 26.1993 18.5687 25.4907 18.5687C24.6082 18.5687 23.8814 18.3067 23.313 17.7798ZM6.66819 18.522C6.44238 18.4882 6.20881 18.4416 5.97261 18.3741V10.7614C6.23216 10.6758 6.48911 10.6055 6.74866 10.5537C7.00562 10.4994 7.28592 10.4733 7.58699 10.4733C8.49027 10.4733 9.23773 10.7952 9.82951 11.4389C10.4187 12.0851 10.7146 13.0844 10.7146 14.4392C10.7146 15.8383 10.4135 16.8764 9.81131 17.5538C9.20917 18.2313 8.42538 18.5687 7.45721 18.5687C7.15616 18.5687 6.894 18.5531 6.66819 18.522ZM7.34563 6.39074C6.86027 6.46602 6.40346 6.56983 5.97261 6.69959V0.859863H0.330017V21.4394C1.29554 21.8054 2.3493 22.1117 3.48873 22.3583C4.63074 22.6075 5.91031 22.732 7.32744 22.732C8.61739 22.732 9.80613 22.5581 10.8936 22.2155C11.9786 21.8704 12.9207 21.3487 13.7149 20.6478C14.5117 19.9522 15.1295 19.0646 15.5707 17.9875C16.012 16.913 16.2325 15.6437 16.2325 14.1825C16.2325 13.0846 16.0717 12.0542 15.7472 11.0861C15.4254 10.118 14.9582 9.2796 14.3456 8.56847C13.7331 7.85993 12.9726 7.29926 12.0694 6.89178C11.1662 6.48429 10.1461 6.27922 9.00673 6.27922C8.38121 6.27922 7.82835 6.31539 7.34563 6.39074Z" fill="#011B33"/>
</g>
<defs>
<clipPath id="clip0_16_1930">
<rect width="100" height="28" fill="white" transform="translate(0.380005 0.859863)"/>
</clipPath>
</defs>
</svg>
