<svg width="49" height="29" viewBox="0 0 49 29" fill="none" xmlns="http://www.w3.org/2000/svg">
<g id="Bolt-Stack-Blue_200304_153027.svg" clip-path="url(#clip0_16_1243)">
<g id="Layer 2">
<g id="Layer 1">
<path id="Vector" d="M33.9189 21.7269H38.8684V0.689941L33.9189 1.74136V21.7269Z" fill="#011B33"/>
<path id="Vector_2" d="M24.7754 6.66431C23.2648 6.66431 21.7881 7.11226 20.532 7.95151C19.276 8.79076 18.2971 9.98362 17.719 11.3792C17.1409 12.7749 16.9896 14.3106 17.2843 15.7922C17.579 17.2737 18.3065 18.6347 19.3746 19.7028C20.4428 20.771 21.8037 21.4984 23.2853 21.7931C24.7669 22.0878 26.3026 21.9366 27.6982 21.3585C29.0938 20.7804 30.2867 19.8015 31.126 18.5454C31.9652 17.2894 32.4132 15.8127 32.4132 14.3021C32.4132 12.2764 31.6085 10.3337 30.1761 8.90136C28.7437 7.469 26.801 6.66431 24.7754 6.66431ZM24.7754 16.7765C24.2858 16.7765 23.8072 16.6313 23.4002 16.3593C22.9931 16.0873 22.6759 15.7007 22.4885 15.2483C22.3012 14.796 22.2523 14.2983 22.3478 13.8182C22.4434 13.338 22.6792 12.897 23.0254 12.5508C23.3717 12.2047 23.8128 11.969 24.293 11.8736C24.7732 11.7782 25.2709 11.8273 25.7231 12.0148C26.1754 12.2023 26.5619 12.5196 26.8338 12.9268C27.1056 13.3339 27.2507 13.8125 27.2505 14.3021C27.2503 14.9584 26.9895 15.5878 26.5253 16.0518C26.0611 16.5158 25.4317 16.7765 24.7754 16.7765Z" fill="#011B33"/>
<path id="Vector_3" d="M24.7754 23.7205C24.2858 23.7205 23.8073 23.8656 23.4002 24.1376C22.9932 24.4096 22.676 24.7961 22.4886 25.2484C22.3013 25.7007 22.2523 26.1984 22.3478 26.6785C22.4433 27.1586 22.679 27.5997 23.0252 27.9458C23.3713 28.292 23.8123 28.5277 24.2925 28.6232C24.7726 28.7187 25.2703 28.6697 25.7226 28.4824C26.1748 28.295 26.5614 27.9778 26.8334 27.5707C27.1054 27.1637 27.2505 26.6852 27.2505 26.1956C27.2505 25.5392 26.9897 24.9096 26.5256 24.4454C26.0614 23.9812 25.4318 23.7205 24.7754 23.7205Z" fill="#011B33"/>
<path id="Vector_4" d="M11.6471 1.6594C10.6217 1.02548 9.44 0.689777 8.23449 0.689941H0.535034V21.7269H9.19927C10.4878 21.7259 11.747 21.3421 12.8168 20.624C13.8867 19.9059 14.719 18.886 15.2081 17.6939C15.6971 16.5018 15.8208 15.1912 15.5634 13.9287C15.306 12.6662 14.6791 11.5086 13.7624 10.6031C14.2108 9.87694 14.5118 9.0696 14.6482 8.22714C14.7846 7.38468 14.7537 6.52361 14.5572 5.6931C14.3608 4.86258 14.0027 4.0789 13.5034 3.38679C13.0041 2.69468 12.3733 2.10771 11.6471 1.6594ZM5.4916 5.64026H8.24152C8.65183 5.64026 9.04533 5.80326 9.33546 6.09339C9.62559 6.38352 9.78859 6.77702 9.78859 7.18733C9.78859 7.59764 9.62559 7.99115 9.33546 8.28128C9.04533 8.57141 8.65183 8.73441 8.24152 8.73441H5.4916V5.64026ZM9.20395 16.7773H5.4916V13.6832H9.20395C9.40999 13.6785 9.61487 13.7151 9.80657 13.7908C9.99828 13.8664 10.1729 13.9796 10.3203 14.1237C10.4676 14.2678 10.5847 14.4398 10.6647 14.6298C10.7446 14.8197 10.7858 15.0238 10.7858 15.2298C10.7858 15.4359 10.7446 15.6399 10.6647 15.8299C10.5847 16.0199 10.4676 16.1919 10.3203 16.336C10.1729 16.4801 9.99828 16.5933 9.80657 16.6689C9.61487 16.7446 9.40999 16.7812 9.20395 16.7765V16.7773Z" fill="#011B33"/>
<path id="Vector_5" d="M47.1181 17.8216C46.1284 17.8216 45.7506 16.9552 45.7506 15.7797V11.8956H48.2187V6.94608H45.7436V3.16504L40.794 4.21646V17.0247C40.794 20.0423 42.6674 21.7814 45.4345 21.9258C45.4618 21.9258 45.4961 21.9329 45.5235 21.9329H45.5734C45.6351 21.9329 45.6897 21.9399 45.7522 21.9399H45.8138C46.6571 21.9363 47.4864 21.7236 48.2273 21.3209V17.6772C47.8659 17.7757 47.4927 17.8243 47.1181 17.8216Z" fill="#011B33"/>
</g>
</g>
</g>
<defs>
<clipPath id="clip0_16_1243">
<rect width="47.69" height="27.98" fill="white" transform="translate(0.535034 0.689941)"/>
</clipPath>
</defs>
</svg>
