<svg width="132" height="29" viewBox="0 0 132 29" fill="none" xmlns="http://www.w3.org/2000/svg">
<g id="carbon-dark.svg" clip-path="url(#clip0_16_1933)">
<path id="Vector" d="M69.8454 21.8416V13.3751C69.8192 11.01 71.4707 8.8936 73.9487 8.11677C74.9112 7.79958 77.0668 7.71169 78.0927 7.8569V11.174C77.8998 11.174 76.5475 11.1453 76.3545 11.174C74.591 11.2886 73.565 12.244 73.565 13.7458V21.8378L69.8454 21.8416Z" fill="#011B33"/>
<path id="Vector_2" fill-rule="evenodd" clip-rule="evenodd" d="M109.693 8.35736C104.456 6.38931 98.7834 9.76178 98.72 14.9322C98.7178 15.8919 98.9072 16.8439 99.2796 17.743C100.47 20.4471 103.368 22.2249 106.595 22.2313C109.822 22.2375 112.728 20.4711 113.931 17.7717C115.628 14.0342 113.652 9.84587 109.693 8.35736ZM106.623 19.0989C105.42 19.0989 104.281 18.6115 103.521 17.7717L103.529 17.7697C101.922 16.0893 102.059 13.5682 103.841 12.0375C105.93 10.2108 109.297 10.8299 110.481 13.4151C111.17 14.8787 110.876 16.5677 109.724 17.7717C108.964 18.6115 107.825 19.0989 106.623 19.0989Z" fill="#011B33"/>
<path id="Vector_3" d="M116.657 21.6233V13.709C116.657 10.9269 118.42 8.68565 121.095 7.83344C126.513 6.12907 131.238 9.19582 131.238 13.709V21.6615H127.583V13.7662C127.583 11.8364 126.136 10.5008 123.993 10.5008C121.85 10.5008 120.309 11.8078 120.309 13.7662V21.6233H116.657Z" fill="#011B33"/>
<path id="Vector_4" d="M96.7652 14.6515C96.7652 14.6115 96.7652 14.5713 96.7652 14.5313C96.7075 13.7021 96.5228 12.8841 96.2162 12.1007C95.1946 9.50788 92.511 7.79778 89.2004 7.79778H85.9406V11.3384H89.1409C91.335 11.3384 92.8715 12.6301 93.022 14.5313H93.0093C93.0093 14.6076 93.0093 14.684 93.0198 14.7605C93.0246 15.8319 92.5517 16.8602 91.7077 17.6146C90.8638 18.3691 89.7193 18.7863 88.5306 18.773C86.0613 18.7443 84.0795 16.9235 84.0795 14.3784V0.859863H80.345V14.472C80.345 19.0674 83.6792 22.0748 88.5538 22.0461C93.1663 22.0461 96.5193 19.0769 96.7543 15.2688H96.7713C96.7779 15.0663 96.7757 14.8599 96.7652 14.6515Z" fill="#011B33"/>
<path id="Vector_5" d="M51.0325 15.1836C51.0325 15.2238 51.0325 15.264 51.0325 15.304C51.0915 16.1326 51.277 16.9498 51.5837 17.7326C52.5987 20.3274 55.2736 22.0375 58.5929 22.0375H61.8615V18.497H58.6629C56.4693 18.497 54.9323 17.2052 54.7818 15.304H54.7945C54.7945 15.2277 54.7945 15.1512 54.7945 15.0748C54.7902 14.0033 55.2627 12.975 56.1066 12.2207C56.951 11.4662 58.0955 11.0489 59.2837 11.0622C61.7534 11.0909 63.7348 12.9118 63.7348 15.4569V21.9898H67.4549V15.3633C67.4549 10.768 64.1207 7.76044 59.2457 7.78914C54.6357 7.78914 51.2783 10.7546 51.0325 14.5646C51.0325 14.5646 51.0325 14.9754 51.0325 15.1836Z" fill="#011B33"/>
<path id="Vector_6" d="M49.1171 18.2465H44.1448C41.8386 18.2465 40.266 16.8 40.2999 14.7211C40.2999 12.6709 41.8704 11.2818 44.1448 11.2818H49.1171V7.78894H44.0769C38.761 7.78894 35.1516 12.3098 37.1566 17.4936C38.1591 20.0559 40.8022 21.7431 44.0769 21.7431H49.1171V18.2465Z" fill="#011B33"/>
<path id="Vector_7" opacity="0.6" d="M27.6231 7.78894H18.6575L27.6231 21.7909V7.79082V7.78894Z" fill="#011B33"/>
<path id="Vector_8" d="M27.7331 7.8589L14.2825 0.859863L18.7675 7.8589H27.7331Z" fill="#011B33"/>
<path id="Vector_9" opacity="0.6" d="M18.6535 7.86083L14.1706 0.859863L0.719971 7.86083H18.6535Z" fill="#011B33"/>
<path id="Vector_10" opacity="0.6" d="M0.719971 21.7909H9.68776L0.719971 7.78894V21.7909Z" fill="#011B33"/>
<path id="Vector_11" d="M0.719971 21.647L14.1706 28.646L9.68776 21.647H0.719971Z" fill="#011B33"/>
<path id="Vector_12" opacity="0.6" d="M9.46997 21.647L13.9549 28.646L27.4034 21.647H9.46997Z" fill="#011B33"/>
</g>
<defs>
<clipPath id="clip0_16_1933">
<rect width="131.25" height="28" fill="white" transform="translate(0.719971 0.859863)"/>
</clipPath>
</defs>
</svg>
