<svg width="13" height="13" viewBox="0 0 13 13" fill="none" xmlns="http://www.w3.org/2000/svg">
<g id="check.svg" clip-path="url(#clip0_16_1305)">
<g id="Page-1">
<g id="check">
<path id="Shape" fill-rule="evenodd" clip-rule="evenodd" d="M12.5008 3.98618C12.5008 4.17974 12.4233 4.37331 12.284 4.51267L5.62549 11.1712C5.48612 11.3105 5.29256 11.3879 5.099 11.3879C4.90544 11.3879 4.71188 11.3105 4.57252 11.1712L0.716788 7.31543C0.577424 7.17606 0.5 6.9825 0.5 6.78894C0.5 6.59538 0.577424 6.40182 0.716788 6.26246L1.76976 5.20949C1.90912 5.07012 2.10268 4.9927 2.29624 4.9927C2.4898 4.9927 2.68336 5.07012 2.82273 5.20949L5.099 7.4935L10.178 2.40673C10.3174 2.26737 10.511 2.18994 10.7045 2.18994C10.8981 2.18994 11.0916 2.26737 11.231 2.40673L12.284 3.4597C12.4233 3.59906 12.5008 3.79262 12.5008 3.98618Z" fill="#3BB75E"/>
</g>
</g>
</g>
<defs>
<clipPath id="clip0_16_1305">
<rect width="12" height="12" fill="white" transform="translate(0.5 0.75)"/>
</clipPath>
</defs>
</svg>
