<svg width="148" height="29" viewBox="0 0 148 29" fill="none" xmlns="http://www.w3.org/2000/svg">
<g id="Cowrywise-dark.svg" clip-path="url(#clip0_16_1997)">
<g id="Clip path group">
<mask id="mask0_16_1997" style="mask-type:luminance" maskUnits="userSpaceOnUse" x="-1" y="0" width="151" height="29">
<g id="clip0">
<path id="Vector" d="M149.236 0.859863H-0.656433V28.5281H149.236V0.859863Z" fill="white"/>
</g>
</mask>
<g mask="url(#mask0_16_1997)">
<g id="Group">
<path id="Vector_2" d="M13.1755 0.859863H5.42342L5.40858 0.886817L4.33871 2.8357H13.1755C19.7213 2.8357 25.0311 8.14381 25.0311 14.6918C25.0311 21.2398 19.723 26.5479 13.1755 26.5479C6.62811 26.5479 1.3194 21.2392 1.3194 14.6918C1.31887 13.4532 1.51284 12.2222 1.89422 11.0438H4.15774C2.55316 15.009 3.727 19.557 7.05011 22.2503C10.3732 24.9436 15.0658 25.1502 18.6127 22.7593C22.1597 20.3684 23.7285 15.941 22.4786 11.8502C21.2286 7.75938 17.453 4.9651 13.1755 4.965H3.17037L2.08619 6.94027H13.1755C16.659 6.94102 19.7142 9.26575 20.6435 12.6231C21.5728 15.9804 20.148 19.5452 17.1607 21.3371C14.1734 23.129 10.3575 22.7077 7.83315 20.3072C5.3087 17.9067 4.69604 14.1169 6.33547 11.0432H8.89984C7.18816 13.0526 7.10537 15.9824 8.70083 18.0853C10.2963 20.1881 13.1401 20.8974 15.5362 19.7901C17.9324 18.6828 19.2351 16.0574 18.6676 13.4794C18.1001 10.9016 15.8151 9.066 13.1755 9.0674H0.917857L-0.166875 11.0438C-0.49157 12.2326 -0.656208 13.4595 -0.656433 14.6918C-0.656433 22.3306 5.53619 28.5237 13.1755 28.5237C20.8148 28.5237 27.0074 22.3306 27.0074 14.6918C27.0074 7.05304 20.8143 0.859863 13.1755 0.859863ZM13.1755 11.0438C15.1903 11.0438 16.8236 12.6771 16.8236 14.6918C16.8236 16.7066 15.1903 18.3399 13.1755 18.3399C11.1608 18.3399 9.52749 16.7066 9.52749 14.6918C9.52749 12.6771 11.1608 11.0438 13.1755 11.0438ZM33.0873 14.9839C33.0873 11.1411 35.6655 8.44139 39.5319 8.44139C41.9153 8.44139 43.8609 9.48655 44.8824 11.2385L42.6453 12.8194C41.9395 11.7 40.8697 11.1653 39.6051 11.1653C37.5148 11.1653 36.1275 12.6505 36.1275 14.9839C36.1275 17.2942 37.5137 18.8019 39.6051 18.8019C40.8702 18.8019 41.9395 18.2425 42.6453 17.1236L44.8824 18.7046C43.8609 20.4801 41.9153 21.5016 39.5319 21.5016C35.6655 21.5016 33.0873 18.8019 33.0873 14.9839ZM45.3027 14.9839C45.3027 11.3843 47.8566 8.44139 51.8211 8.44139C55.8092 8.44139 58.3384 11.3843 58.3384 14.9839C58.3384 18.5593 55.8082 21.5016 51.8211 21.5016C47.8593 21.5016 45.3027 18.5588 45.3027 14.9839ZM55.2986 14.9839C55.2986 12.722 53.9605 11.1411 51.8211 11.1411C49.6811 11.1411 48.3428 12.722 48.3428 14.9839C48.3428 17.221 49.6806 18.8019 51.8211 18.8019C53.961 18.8019 55.2986 17.221 55.2986 14.9839ZM77.8145 8.7808L74.0187 21.1601H70.814L68.1314 12.4288L65.4253 21.1601H62.2161L58.4428 8.7808H61.3867L63.9504 17.7062L66.7039 8.7808H69.5529L72.3069 17.7062L74.8466 8.7808H77.8145ZM119.506 8.7808L115.707 21.1601H112.503L109.82 12.4288L107.114 21.1601H103.911L100.137 8.78355H103.08L105.644 17.7089L108.395 8.7808H111.244L113.998 17.7062L116.538 8.7808H119.506ZM86.6941 8.73349V11.5059C86.2435 11.4312 85.7883 11.3906 85.3321 11.3843C83.1677 11.3843 82.0245 12.4789 82.0245 15.0565V21.1623H79.0591V8.7808H81.9745V10.8491C82.5826 9.4145 83.9201 8.56296 85.6224 8.56296C85.9871 8.55586 86.3499 8.61362 86.6941 8.73349ZM99.0038 8.7808V19.9196C99.0038 24.0787 96.6935 26.3642 92.6074 26.3642C90.4914 26.3642 88.5458 25.7322 87.3782 24.6376L88.7162 22.4731C89.7609 23.2981 91.1235 23.7134 92.437 23.7134C94.7234 23.7134 96.0854 22.4247 96.0854 19.918V18.8503C95.3799 20.2123 93.8725 21.039 92.0478 21.039C89.4212 21.039 87.7679 19.3855 87.7679 16.3695V8.7808H90.7347V15.6159C90.7347 17.5131 91.5132 18.3399 93.0691 18.3399C94.8693 18.3399 96.0609 17.2458 96.0609 15.4454V8.7808H99.0038ZM120.287 4.86654C120.287 3.79611 121.041 3.01777 122.184 3.01777C123.302 3.01777 124.054 3.79611 124.054 4.86654C124.054 5.93698 123.3 6.71478 122.184 6.71478C121.041 6.71478 120.287 5.93643 120.287 4.86654ZM120.7 8.7819H123.667V21.1612H120.7V8.7819ZM125.16 19.1424L126.765 17.2694C127.738 18.3399 129.246 18.9719 130.827 18.9719C132.237 18.9719 133.016 18.4372 133.016 17.6589C133.016 17.0021 132.529 16.589 131.289 16.2969L129.27 15.8349C126.692 15.227 125.598 14.035 125.598 12.3326C125.598 10.0465 127.494 8.44139 130.705 8.44139C132.894 8.44139 134.718 9.19501 135.788 10.4117L134.207 12.3326C133.137 11.4085 131.921 10.9706 130.632 10.9706C129.245 10.9706 128.564 11.4816 128.564 12.2358C128.564 12.8194 128.977 13.1841 130.291 13.4756L132.431 13.9866C135.033 14.5703 135.982 15.7617 135.982 17.4641C135.982 19.9207 134.085 21.5016 130.802 21.5016C128.346 21.5016 126.279 20.5775 125.16 19.1424ZM149.159 15.859H139.941C140.257 17.8536 141.569 18.9235 143.588 18.9235C144.974 18.9235 146.142 18.413 147.042 17.3668L148.817 19.1182C147.65 20.6259 145.777 21.5016 143.491 21.5016C139.551 21.5016 136.924 18.9235 136.924 15.0323C136.924 11.1895 139.454 8.44139 143.199 8.44139C146.799 8.44139 149.23 10.9464 149.23 14.716C149.23 15.0981 149.206 15.4799 149.159 15.859ZM139.941 13.8414H146.266C146.12 12.0168 145.001 11.0201 143.226 11.0201C141.401 11.0196 140.258 12.0653 139.941 13.8414Z" fill="#011B33"/>
</g>
</g>
</g>
</g>
<defs>
<clipPath id="clip0_16_1997">
<rect width="147.263" height="27.98" fill="white" transform="translate(0.658417 0.859863)"/>
</clipPath>
</defs>
</svg>
