<svg width="131" height="29" viewBox="0 0 131 29" fill="none" xmlns="http://www.w3.org/2000/svg">
<g id="Dominos-Plain.svg" clip-path="url(#clip0_16_1222)">
<path id="Vector" d="M39.8166 4.53638H33.0036C32.7864 4.53638 32.5964 4.72637 32.5964 4.94351V20.3062C32.5964 20.5233 32.7864 20.7133 33.0036 20.7133H39.8438C45.2182 20.7133 48.6925 17.5376 48.6925 12.6248C48.6925 7.68491 45.2182 4.53638 39.8166 4.53638ZM39.8166 16.4248H37.4823V8.79775H39.8438C42.2595 8.79775 43.7253 10.2091 43.7253 12.5977C43.7253 14.4977 42.3952 16.4248 39.8166 16.4248Z" fill="#011B33"/>
<path id="Vector_2" d="M78.9302 8.68921C77.0574 8.68921 75.5102 9.72062 74.8316 10.752C74.343 9.39491 73.203 8.68921 71.4658 8.68921C69.5386 8.68921 68.1 9.66634 67.5843 10.3178V9.39491C67.5843 9.17777 67.3943 8.98777 67.1771 8.98777H63.6213C63.4042 8.98777 63.2142 9.17777 63.2142 9.39491V20.279C63.2142 20.4962 63.4042 20.6862 63.6213 20.6862H67.1771C67.3943 20.6862 67.5843 20.4962 67.5843 20.279V13.4663C67.8286 13.1677 68.3714 12.5434 69.3486 12.5434C70.2172 12.5434 70.6786 13.0049 70.6786 13.8463V20.279C70.6786 20.4962 70.8686 20.6862 71.0858 20.6862H74.6416C74.8587 20.6862 75.0487 20.4962 75.0487 20.279V13.4663C75.293 13.1677 75.8359 12.5434 76.8402 12.5434C77.6817 12.5434 78.1702 13.032 78.1702 13.8463V20.279C78.1702 20.4962 78.3603 20.6862 78.5774 20.6862H82.1332C82.3503 20.6862 82.5403 20.4962 82.5403 20.279V12.1906C82.5675 9.93776 81.2646 8.68921 78.9302 8.68921Z" fill="#011B33"/>
<path id="Vector_3" d="M88.2949 8.98779H84.7391C84.522 8.98779 84.332 9.17779 84.332 9.39493V20.279C84.332 20.4962 84.522 20.6862 84.7391 20.6862H88.2949C88.5121 20.6862 88.7021 20.4962 88.7021 20.279V9.39493C88.7021 9.17779 88.5121 8.98779 88.2949 8.98779Z" fill="#011B33"/>
<path id="Vector_4" d="M86.6121 3.23364C85.2549 3.23364 84.1692 4.31934 84.1692 5.67646C84.1692 7.03359 85.2821 8.11929 86.6121 8.11929C87.9693 8.11929 89.055 7.03359 89.055 5.67646C89.0822 4.34648 87.9693 3.23364 86.6121 3.23364Z" fill="#011B33"/>
<path id="Vector_5" d="M98.9349 8.68921C96.682 8.68921 95.4334 9.69348 94.9177 10.3178V9.39491C94.9177 9.17777 94.7277 8.98777 94.5105 8.98777H90.9548C90.7376 8.98777 90.5476 9.17777 90.5476 9.39491V20.279C90.5476 20.4962 90.7376 20.6862 90.9548 20.6862H94.5105C94.7277 20.6862 94.9177 20.4962 94.9177 20.279V13.4663C95.1891 13.1406 95.732 12.5434 96.7906 12.5434C97.9306 12.5434 98.5006 13.1134 98.5006 14.2262V20.3062C98.5006 20.5233 98.6907 20.7133 98.9078 20.7133H102.464C102.681 20.7133 102.871 20.5233 102.871 20.3062V12.4077C102.844 10.0735 101.378 8.68921 98.9349 8.68921Z" fill="#011B33"/>
<path id="Vector_6" d="M55.7499 8.63501C52.3298 8.63501 49.5612 11.4035 49.5612 14.8235C49.5612 18.2434 52.3298 21.012 55.7499 21.012C59.1699 21.012 61.9386 18.2434 61.9386 14.8235C61.9114 11.4035 59.1428 8.63501 55.7499 8.63501ZM55.7499 16.8592C54.5827 16.8592 53.6327 15.9092 53.6327 14.7421C53.6327 13.5749 54.5827 12.625 55.7499 12.625C56.917 12.625 57.867 13.5749 57.867 14.7421C57.8399 15.9092 56.917 16.8592 55.7499 16.8592Z" fill="#011B33"/>
<path id="Vector_7" d="M110.308 8.66211C106.888 8.66211 104.119 11.4306 104.119 14.8506C104.119 18.2705 106.888 21.0391 110.308 21.0391C113.728 21.0391 116.497 18.2705 116.497 14.8506C116.497 11.4306 113.728 8.66211 110.308 8.66211ZM110.308 16.8591C109.141 16.8591 108.191 15.9091 108.191 14.742C108.191 13.5749 109.141 12.6249 110.308 12.6249C111.475 12.6249 112.425 13.5749 112.425 14.742C112.425 15.9091 111.475 16.8591 110.308 16.8591Z" fill="#011B33"/>
<path id="Vector_8" d="M119.917 5.2149C119.917 5.18776 119.917 5.18776 119.917 5.2149C119.917 5.18776 119.917 5.18776 119.917 5.18776C119.645 3.96635 118.315 3.0978 117.013 3.36922C115.683 3.64065 114.814 4.86206 115.085 6.11061C115.303 7.14202 116.198 7.84772 117.257 7.90201C117.203 8.30915 116.823 8.68916 116.524 8.87911C116.307 8.98773 116.443 9.20485 116.443 9.20485L116.714 9.61199C116.795 9.74772 116.904 9.82911 117.04 9.74771C119.727 8.60771 120.188 6.3006 119.917 5.2149Z" fill="#011B33"/>
<path id="Vector_9" d="M123.066 12.462C123.066 12.0277 123.608 11.8377 124.341 11.8377C125.753 11.8377 126.567 12.2448 127.463 12.842C127.544 12.8963 127.68 12.9234 127.789 12.8963C127.897 12.8691 128.006 12.7877 128.06 12.7063L129.254 10.6163C129.363 10.4263 129.309 10.182 129.119 10.0734C128.141 9.4763 126.703 8.71631 124.178 8.71631C120.568 8.71631 118.641 10.4263 118.967 12.8691C119.537 17.1576 126.214 15.6919 126.106 17.1576C126.079 17.4833 125.481 17.7548 124.477 17.7548C123.147 17.7548 121.654 17.1033 120.704 16.5062C120.623 16.4519 120.487 16.4247 120.378 16.4519C120.27 16.479 120.188 16.5605 120.134 16.6419L118.75 18.949C118.641 19.139 118.696 19.3833 118.886 19.4919C120.216 20.3876 122.36 20.9847 124.233 20.9847C127.843 20.9847 129.933 19.4376 129.933 16.8862C129.879 12.1634 123.093 13.6291 123.066 12.462Z" fill="#011B33"/>
<path id="Vector_10" d="M27.5389 8.79895L19.9292 1.18218C19.6186 0.871291 19.1786 0.689941 18.7386 0.689941C18.2727 0.689941 17.8585 0.871291 17.5479 1.18218L11.1548 7.55542L0.542626 18.1774C-0.130338 18.851 -0.130338 19.9132 0.542626 20.5868L8.12641 28.1777C8.43704 28.4886 8.87704 28.6699 9.31704 28.6699C9.78293 28.6699 10.1971 28.4886 10.5077 28.1777L20.0068 18.6697L27.4871 11.1824C28.1859 10.5348 28.1859 9.44666 27.5389 8.79895Z" fill="white"/>
<path id="Vector_11" d="M26.9953 9.31699L19.3856 1.72613C19.0233 1.36343 18.428 1.36343 18.0656 1.72613L9.8606 9.93876L18.7903 18.8768L26.9953 10.6642C27.3577 10.2756 27.3577 9.70561 26.9953 9.31699ZM20.3174 11.5191C19.8774 11.9596 19.3339 12.1668 18.7644 12.1668C18.195 12.1668 17.6514 11.9596 17.2115 11.5191C16.7715 11.0787 16.5643 10.5346 16.5643 9.9647C16.5643 9.39472 16.7715 8.82475 17.2115 8.41023C17.6514 7.96983 18.195 7.76257 18.7644 7.76257C19.3339 7.76257 19.8774 7.96983 20.3174 8.41023C20.7574 8.85064 20.9645 9.39472 20.9645 9.9647C20.9645 10.5346 20.7316 11.1046 20.3174 11.5191Z" fill="#011B33"/>
<path id="Vector_12" d="M1.11205 18.6955C0.74968 19.0583 0.74968 19.6541 1.11205 20.0169L8.69583 27.6336C8.87704 27.815 9.10999 27.9186 9.36883 27.9186C9.60178 27.9186 9.86056 27.815 10.0418 27.6336L18.2468 19.4209L9.31704 10.4829L1.11205 18.6955ZM7.68642 20.8977C7.24637 21.3122 6.70284 21.5454 6.13337 21.5454C5.56397 21.5454 4.99453 21.3381 4.5804 20.8977C4.14038 20.4573 3.93332 19.9132 3.93332 19.3433C3.93332 18.7733 4.14038 18.2033 4.5804 17.7888C5.02042 17.3484 5.56397 17.1411 6.13337 17.1411C6.70284 17.1411 7.27226 17.3484 7.68642 17.7888C8.12642 18.2292 8.33347 18.7733 8.33347 19.3433C8.33347 19.9132 8.10052 20.4573 7.68642 20.8977ZM11.0253 17.8665C11.4653 17.4261 12.0089 17.2188 12.5783 17.2188C13.1478 17.2188 13.7172 17.4261 14.1313 17.8665C14.5713 18.3069 14.7784 18.851 14.7784 19.4209C14.7784 19.9909 14.5713 20.535 14.1313 20.9754C13.6913 21.4158 13.1478 21.6231 12.5783 21.6231C12.0089 21.6231 11.4653 21.4158 11.0253 20.9754C10.5853 20.535 10.3782 19.9909 10.3782 19.4209C10.3782 18.8769 10.5853 18.3069 11.0253 17.8665Z" fill="#011B33"/>
</g>
<defs>
<clipPath id="clip0_16_1222">
<rect width="130.234" height="27.98" fill="white" transform="translate(0.0379028 0.689941)"/>
</clipPath>
</defs>
</svg>
