<svg width="20" height="21" viewBox="0 0 20 21" fill="none" xmlns="http://www.w3.org/2000/svg">
<g id="Frame">
<path id="Vector" d="M20 0.309814H0V20.3098H20V0.309814Z" fill="white"/>
<path id="Vector_2" d="M18.8962 0.309814H1.10375C0.49375 0.309814 0 0.803564 0 1.41356V19.206C0 19.816 0.49375 20.3098 1.10375 20.3098H10.6825V12.5648H8.075V9.54731H10.6825V7.31856C10.6825 4.73606 12.26 3.33106 14.565 3.33106C15.6688 3.33106 16.6175 3.41106 16.8938 3.44856V6.14856H15.2937C14.0437 6.14856 13.8 6.74856 13.8 7.62356V9.54856H16.7875L16.4 12.5735H13.8V20.3098H18.8962C19.5062 20.3098 20 19.816 20 19.206V1.41356C20 0.803564 19.5062 0.309814 18.8962 0.309814Z" fill="#3D5E69"/>
</g>
</svg>
