<svg width="81" height="29" viewBox="0 0 81 29" fill="none" xmlns="http://www.w3.org/2000/svg">
<g id="FilmHouse-Stack-Blue_200304_153641.svg" clip-path="url(#clip0_16_1823)">
<g id="Layer 2">
<g id="Layer 1">
<path id="Vector" d="M1.55311 13.462H0.0739136V10.1933H1.55311V7.74973C1.55311 4.8595 2.68861 3.07141 7.06384 3.07141H7.26977V6.61423H6.95507C6.09511 6.61423 5.71661 6.99273 5.71661 8.12823V10.1933H7.23061V13.462H5.71661V28.531H1.55311V13.462ZM7.8832 3.76025H12.1105V7.8875H7.8832V3.76025ZM7.918 10.1948H12.0815V28.531H7.918V10.1933V10.1948Z" fill="#011B33"/>
<path id="Vector_2" d="M13.1822 3.07141H17.3457V28.531H13.1822V3.07141Z" fill="#011B33"/>
<path id="Vector_3" d="M18.3086 10.1933H22.5055V12.1888C23.2625 11.1562 24.8113 9.95258 26.2209 9.95258C27.5971 9.95258 28.4571 10.4688 28.7326 12.2236C29.5926 11.0881 31.2791 9.95258 32.5582 9.95258C34.2433 9.95258 35.2063 10.64 35.2063 13.7709V28.531H31.0442V15.2501C31.0442 14.322 30.8992 13.8739 30.3554 13.8739C29.9087 13.8739 29.2895 14.2872 28.8414 14.7339V28.531H24.6793V15.2501C24.6793 14.322 24.5415 13.8739 24.0253 13.8739C23.509 13.8739 22.8898 14.322 22.5113 14.7339V28.531H18.3086V10.1933Z" fill="#011B33"/>
<path id="Vector_4" d="M36.6797 3.07141H38.1603V12.6064C38.9159 11.5753 40.2239 10.2325 41.8061 10.2325C43.4927 10.2325 44.3178 11.2998 44.3178 14.5685V28.5368H42.8386V14.7005C42.8386 12.7384 42.7357 11.6377 41.4972 11.6377C40.4995 11.6377 39.158 12.808 38.1618 14.1146V28.531H36.6797V3.07141Z" fill="#011B33"/>
<path id="Vector_5" d="M45.8666 19.5166C45.8666 13.2546 47.0007 10.2266 49.9939 10.2266C52.9537 10.2266 54.1226 13.2546 54.1226 19.5166C54.1226 25.7089 52.9537 28.7717 49.9939 28.7717C47.034 28.7717 45.8666 25.7089 45.8666 19.5166ZM52.61 19.4817C52.61 15.2849 52.2997 11.6029 49.9997 11.6029C47.7968 11.6029 47.3502 14.9746 47.3502 19.4817C47.3502 23.7134 47.659 27.3954 49.9997 27.3954C52.1967 27.3983 52.61 24.0629 52.61 19.4817Z" fill="#011B33"/>
<path id="Vector_6" d="M55.6714 24.3675V10.4688H57.1505V24.2297C57.1505 26.1918 57.2535 27.2925 58.492 27.2925C59.4897 27.2925 60.8311 26.1222 61.8274 24.8156V10.4688H63.3023V28.531H61.8231V26.3629C61.0719 27.3984 59.7652 28.7035 58.1831 28.7035C56.4965 28.7035 55.6714 27.6362 55.6714 24.3675Z" fill="#011B33"/>
<path id="Vector_7" d="M64.1724 25.1593L65.4776 24.6778C66.1316 26.4659 67.0945 27.4636 68.6085 27.4636C70.0877 27.4636 70.7418 26.4325 70.7418 24.8533C70.7418 23.0304 69.5033 21.5512 68.1604 19.9342C66.6479 18.1099 65.0643 16.2522 65.0643 13.913C65.0643 11.7378 66.4753 10.1628 68.5737 10.1628C70.5344 10.1628 71.5321 11.4361 72.3239 13.5693L71.0187 14.0508C70.5025 12.6006 69.8832 11.5391 68.5752 11.5391C67.3715 11.5391 66.5797 12.5368 66.5797 13.913C66.5797 15.9085 67.9907 17.4225 69.2974 18.9699C70.8462 20.8624 72.2572 22.6867 72.2572 24.8533C72.2572 27.1939 70.9839 28.8442 68.61 28.8442C66.4042 28.8399 65.0976 27.6362 64.1724 25.1593Z" fill="#011B33"/>
<path id="Vector_8" d="M73.1143 19.5166C73.1143 13.1169 74.2831 10.2266 77.243 10.2266C80.6146 10.2266 81.0961 14.8672 81.0961 19.344V19.5166H74.5935C74.5935 24.5748 75.1097 27.3954 77.2763 27.3954C78.8599 27.3954 79.2718 26.2251 79.6503 23.5771L80.9554 23.7134C80.5088 27.4984 79.0702 28.7717 77.2052 28.7717C74.2831 28.7717 73.1143 25.8466 73.1143 19.5166ZM79.5821 18.2114C79.5473 14.5293 79.134 11.6043 77.243 11.6043C75.3156 11.6043 74.8342 13.7042 74.5935 18.2114H79.5821Z" fill="#011B33"/>
<path id="Vector_9" d="M40.701 5.8152C40.701 3.65151 42.1614 2.87421 43.4187 2.87421C44.8254 2.87421 45.4229 3.65151 45.7637 4.52597L44.6543 4.92043C44.4309 4.28089 44.0263 3.972 43.397 3.972C42.6516 3.972 42.0222 4.46217 42.0222 5.8152C42.0222 7.01885 42.5123 7.68014 43.3767 7.68014C43.9727 7.68014 44.3918 7.49887 44.6978 6.69981L45.784 7.09571C45.3794 8.00208 44.7079 8.75763 43.3448 8.75763C42.0338 8.75618 40.701 7.88317 40.701 5.8152Z" fill="#011B33"/>
<path id="Vector_10" d="M46.5511 0.859863H47.894V1.99971H46.5511V0.859863ZM46.5627 2.98004H47.8838V8.63579H46.5627V2.98004Z" fill="#011B33"/>
<path id="Vector_11" d="M49.0904 2.98002H50.413V3.74717C50.6791 3.4678 50.9999 3.24633 51.3555 3.09662C51.7111 2.9469 52.0937 2.87216 52.4795 2.87706C53.4714 2.87706 54.1095 3.45713 54.1095 4.58248V8.64302H52.7884V4.90878C52.7884 4.28084 52.523 3.99225 51.9473 3.99225C51.3715 3.99225 50.8915 4.29099 50.413 4.7275V8.64302H49.0904V2.98002Z" fill="#011B33"/>
<path id="Vector_12" d="M54.8752 5.8152C54.8752 3.66311 56.3979 2.87421 57.5711 2.87421C58.8386 2.87421 60.0538 3.63121 60.0538 5.93266V6.24155H56.1847C56.2384 7.25669 56.8678 7.71205 57.6987 7.71205C57.9955 7.7234 58.2912 7.67014 58.5654 7.55596C58.8396 7.44178 59.0857 7.26941 59.2867 7.05076L59.9784 7.7338C59.6818 8.06808 59.3152 8.33296 58.9046 8.50966C58.4941 8.68635 58.0497 8.77052 57.603 8.75619C56.1847 8.75619 54.8752 7.89332 54.8752 5.8152ZM58.8502 5.26122C58.7748 4.39111 58.3484 3.9401 57.5595 3.9401C56.92 3.9401 56.3341 4.30265 56.2065 5.26122H58.8502Z" fill="#011B33"/>
<path id="Vector_13" d="M60.8848 2.98002H62.19V3.76023C62.4312 3.4828 62.7291 3.2603 63.0635 3.10771C63.398 2.95511 63.7613 2.87597 64.1289 2.87561C65.0773 2.87561 65.4515 3.24831 65.6748 3.80228C65.9214 3.51698 66.2254 3.28695 66.567 3.12726C66.9087 2.96757 67.2801 2.88182 67.6572 2.87561C68.8072 2.87561 69.309 3.5688 69.309 4.58104V8.64157H68.0038V4.90878C68.0038 4.28085 67.8225 3.99226 67.2047 3.99226C66.6711 3.99226 66.2447 4.291 65.7545 4.72896V8.64447H64.4494V4.90878C64.4494 4.28085 64.2681 3.99226 63.6503 3.99226C63.1282 3.99226 62.6917 4.291 62.2001 4.72896V8.64447H60.8949V2.98873L60.8848 2.98002Z" fill="#011B33"/>
<path id="Vector_14" d="M70.05 7.27552C70.05 6.05011 71.0942 5.2293 73.7364 4.93056V4.76089C73.7364 4.19531 73.4391 3.95023 72.8097 3.95023C72.0208 3.95023 71.3813 4.33453 70.9027 4.71738L70.2632 3.89658C71.0158 3.23275 71.9875 2.87112 72.991 2.88144C74.5036 2.88144 75.0213 3.60654 75.0213 4.92766V7.25377C75.0213 7.93536 75.0648 8.35156 75.1822 8.6387H73.8597C73.7739 8.40664 73.7307 8.16101 73.7321 7.91361C73.152 8.49368 72.4849 8.72281 71.6438 8.72281C70.7316 8.72426 70.05 8.21235 70.05 7.27552ZM73.7437 7.06234V5.81518C72.1774 6.02836 71.3465 6.41266 71.3465 7.03044C71.3465 7.4771 71.6554 7.71203 72.1354 7.71203C72.4331 7.71526 72.7285 7.65951 73.0045 7.548C73.2805 7.43649 73.5317 7.27143 73.7437 7.06234Z" fill="#011B33"/>
<path id="Vector_15" d="M75.6869 7.86142L76.4004 7.06236C76.897 7.48797 77.5273 7.72562 78.1812 7.7338C78.8846 7.7338 79.3095 7.55253 79.3095 7.08411C79.3095 6.6157 78.7294 6.48663 78.0522 6.32711C77.0791 6.10233 75.9189 5.8471 75.9189 4.53613C75.9189 3.54565 76.7717 2.87421 78.0174 2.87421C79.0949 2.87421 79.7576 3.1831 80.3377 3.67326L79.7098 4.52597C79.2539 4.16137 78.697 3.94571 78.1145 3.90819C77.3894 3.90819 77.156 4.16343 77.156 4.48827C77.156 4.94653 77.7215 5.0843 78.393 5.23367C79.3617 5.44685 80.5451 5.69193 80.5451 7.01305C80.5451 8.20656 79.469 8.76053 78.1798 8.76053C77.1357 8.75618 76.1988 8.38348 75.6869 7.86142Z" fill="#011B33"/>
</g>
</g>
</g>
<defs>
<clipPath id="clip0_16_1823">
<rect width="80.7115" height="27.98" fill="white" transform="translate(0.229248 0.859863)"/>
</clipPath>
</defs>
</svg>
