<svg width="117" height="81" viewBox="0 0 117 81" fill="none" xmlns="http://www.w3.org/2000/svg">
<g id="For-International-Businesses_180823_165939.svg" clip-path="url(#clip0_16_1471)">
<path id="Vector" d="M30.3783 16.2429C29.0704 16.0483 27.7508 15.9437 26.4286 15.9298C25.1065 15.9443 23.7869 16.0489 22.479 16.2429C16.377 17.1763 10.7925 20.2114 6.69005 24.8239C2.58757 29.4364 0.224683 35.3368 0.00946045 41.5061C0.0696682 43.7699 0.912577 50.3927 8.06526 58.9422L26.4166 80.8338L44.7679 58.9422C51.9326 50.3927 52.7755 43.7699 52.8237 41.5061C52.6095 35.3404 50.25 29.4428 46.1524 24.8307C42.0547 20.2187 36.4759 17.1814 30.3783 16.2429ZM35.5441 42.8306C34.9617 44.7979 33.7588 46.5242 32.1149 47.7519C30.4711 48.9796 28.4743 49.643 26.4226 49.643C24.3709 49.643 22.3742 48.9796 20.7303 47.7519C19.0864 46.5242 17.8836 44.7979 17.3011 42.8306C17.0509 41.9905 16.9251 41.1183 16.9278 40.2417C16.9279 38.8261 17.2534 37.4294 17.8791 36.1596C18.8309 34.1738 20.4446 32.5814 22.4429 31.6561C23.6872 31.0798 25.0455 30.7917 26.4166 30.8132C27.7877 30.7917 29.146 31.0798 30.3903 31.6561C32.3796 32.5859 33.9842 34.1778 34.93 36.1596C35.5653 37.4265 35.8952 38.8245 35.8933 40.2417C35.8919 41.1163 35.7745 41.9869 35.5441 42.8306Z" fill="#BDDEF4"/>
<path id="Vector_2" d="M31.5704 16.2429C30.2626 16.0479 28.9429 15.9433 27.6208 15.9298C26.2986 15.9433 24.9789 16.0479 23.6711 16.2429C17.5713 17.1788 11.9896 20.215 7.88959 24.8273C3.78953 29.4396 1.42835 35.3386 1.21362 41.5061C1.27383 43.7699 2.11674 50.3927 9.28146 58.9422L27.6087 80.8338L45.96 58.9422C53.185 50.3927 53.9677 43.7699 54.0279 41.5061C53.8131 35.3386 51.452 29.4396 47.3519 24.8273C43.2519 20.215 37.6702 17.1788 31.5704 16.2429ZM36.7362 42.8306C36.1272 45.0565 34.7289 46.9846 32.8023 48.255C30.8757 49.5253 28.5527 50.0511 26.2669 49.734C23.9811 49.417 21.8888 48.2788 20.3808 46.532C18.8727 44.7852 18.052 42.5493 18.0718 40.2417C18.0719 38.8261 18.3973 37.4294 19.0231 36.1596C19.9795 34.1729 21.5972 32.5808 23.5989 31.6561C24.8432 31.0798 26.2015 30.7917 27.5726 30.8132C28.9397 30.7931 30.2938 31.0812 31.5343 31.6561C33.5472 32.5728 35.175 34.1665 36.1341 36.1596C36.7599 37.4294 37.0853 38.8261 37.0854 40.2417C37.0899 41.1167 36.9723 41.9881 36.7362 42.8306Z" fill="#DCF6FF"/>
<g id="Clip path group">
<mask id="mask0_16_1471" style="mask-type:luminance" maskUnits="userSpaceOnUse" x="1" y="15" width="54" height="66">
<g id="a">
<path id="Vector_3" d="M31.5704 16.2429C30.2626 16.0479 28.9429 15.9433 27.6208 15.9298C26.2986 15.9433 24.9789 16.0479 23.6711 16.2429C17.5713 17.1788 11.9896 20.215 7.88959 24.8273C3.78953 29.4396 1.42835 35.3386 1.21362 41.5061C1.27383 43.7699 2.11674 50.3927 9.28146 58.9422L27.6087 80.8338L45.96 58.9422C53.185 50.3927 53.9677 43.7699 54.0279 41.5061C53.8131 35.3386 51.452 29.4396 47.3519 24.8273C43.2519 20.215 37.6702 17.1788 31.5704 16.2429ZM36.7362 42.8306C36.1272 45.0565 34.7289 46.9846 32.8023 48.255C30.8757 49.5253 28.5527 50.0511 26.2669 49.734C23.9811 49.417 21.8888 48.2788 20.3808 46.532C18.8727 44.7852 18.052 42.5493 18.0718 40.2417C18.0719 38.8261 18.3973 37.4294 19.0231 36.1596C19.9795 34.1729 21.5972 32.5808 23.5989 31.6561C24.8432 31.0798 26.2015 30.7917 27.5726 30.8132C28.9397 30.7931 30.2938 31.0812 31.5343 31.6561C33.5472 32.5728 35.175 34.1665 36.1341 36.1596C36.7599 37.4294 37.0853 38.8261 37.0854 40.2417C37.0899 41.1167 36.9723 41.9881 36.7362 42.8306Z" fill="white"/>
</g>
</mask>
<g mask="url(#mask0_16_1471)">
<g id="Group">
<path id="Vector_4" d="M85.2275 36.7978C80.7918 32.3678 75.1424 29.3521 68.9933 28.1321C62.8441 26.912 56.4713 27.5422 50.6802 29.9431C44.8892 32.344 39.9399 36.4078 36.4578 41.6208C32.9758 46.8339 31.1173 52.9622 31.1173 59.2312C31.1173 65.5002 32.9758 71.6285 36.4578 76.8416C39.9399 82.0546 44.8892 86.1184 50.6802 88.5193C56.4713 90.9202 62.8441 91.5505 68.9933 90.3304C75.1424 89.1103 80.7918 86.0947 85.2275 81.6646C91.1645 75.7082 94.4983 67.6412 94.4983 59.2312C94.4983 50.8213 91.1645 42.7543 85.2275 36.7978Z" fill="#BDDEF4"/>
</g>
</g>
</g>
<path id="Vector_5" d="M76.7984 9.46348H68.5741V13.3529H76.7984V9.46348Z" fill="#9FFFB3"/>
<path id="Vector_6" d="M76.7984 13.3649H68.5741V17.5072H76.7984V13.3649Z" fill="#011B33"/>
<path id="Vector_7" d="M85.0228 9.46348H76.7985V13.3529H85.0228V9.46348Z" fill="#9FFFB3"/>
<path id="Vector_8" d="M85.0228 13.3649H76.7985V17.5072H85.0228V13.3649Z" fill="#011B33"/>
<path id="Vector_9" d="M68.5741 80.9542V9.46348" stroke="#DCF6FF" stroke-width="0.986714" stroke-miterlimit="10"/>
<path id="Vector_10" d="M37.8079 54.1376C37.7995 59.4161 39.3575 64.5784 42.2847 68.9709C45.2119 73.3634 49.3766 76.7886 54.2515 78.8129C59.1264 80.8371 64.4924 81.3694 69.67 80.3422C74.8476 79.3151 79.604 76.7748 83.337 73.0429L45.6229 35.3167C43.1465 37.7858 41.1816 40.7191 39.8406 43.9487C38.4996 47.1783 37.8088 50.6407 37.8079 54.1376Z" fill="#DCF6FF"/>
<path id="Vector_11" d="M64.4799 27.5138C60.9783 27.5123 57.5108 28.2006 54.2752 29.5395C51.0397 30.8783 48.0996 32.8414 45.6229 35.3167L83.337 73.0429C87.0601 69.3105 89.5942 64.559 90.6196 59.3878C91.645 54.2167 91.1156 48.8577 89.0983 43.9871C87.081 39.1165 83.6662 34.9525 79.2848 32.0207C74.9034 29.0889 69.7518 27.5206 64.4799 27.5138Z" fill="white"/>
<path id="Vector_12" d="M37.8079 54.1376C37.7995 59.4161 39.3575 64.5784 42.2847 68.9709C45.2119 73.3634 49.3766 76.7886 54.2515 78.8129C59.1264 80.8371 64.4924 81.3694 69.67 80.3422C74.8476 79.3151 79.604 76.7748 83.337 73.0429L45.6229 35.3167C43.1465 37.7858 41.1816 40.7191 39.8406 43.9487C38.4996 47.1783 37.8088 50.6407 37.8079 54.1376Z" fill="#DCF6FF"/>
<g id="Clip path group_2">
<mask id="mask1_16_1471" style="mask-type:luminance" maskUnits="userSpaceOnUse" x="37" y="27" width="55" height="54">
<g id="b">
<path id="Vector_13" d="M64.48 80.8579C79.2105 80.8579 91.152 68.9164 91.152 54.1858C91.152 39.4552 79.2105 27.5138 64.48 27.5138C49.7494 27.5138 37.8079 39.4552 37.8079 54.1858C37.8079 68.9164 49.7494 80.8579 64.48 80.8579Z" fill="white"/>
</g>
</mask>
<g mask="url(#mask1_16_1471)">
<g id="Group_2">
<path id="Vector_14" d="M55.4006 46.3949L54.8587 47.1656L53.5101 47.9362L52.9682 49.1404L51.764 49.4294L50.018 51.8377L50.0903 53.0419L49.3798 54.7638L50.7405 58.3763L52.631 60.0621L54.0881 59.9537L55.509 60.3631C55.509 60.3631 57.821 59.7008 57.9173 59.7129C58.4634 60.1462 58.986 60.6085 59.4827 61.0977H60.7952L60.3136 63.506L62.8904 68.0697L62.0475 69.7315L63.6972 72.5371V73.6329L65.1543 74.6685L64.8291 75.3669L65.2988 75.8245L67.8877 75.5475L70.9703 74.1025L71.464 72.8984L72.6682 72.4288V70.5623L75.3414 68.7681L74.6671 64.9991L78.6769 60.1223L79.6282 56.5098L79.4837 56.1245L76.8105 57.4852L76.2204 57.0758L76.3649 56.6423L74.6671 55.3538L74.1613 53.8727L73.4629 53.1502L72.4033 51.633L71.0546 49.9954H71.7651L74.342 52.5482L76.8466 56.4496L78.0508 55.691L79.2549 54.824L79.9895 53.6199L81.0491 52.9214L81.6271 50.8503L80.0737 49.9592L79.1947 50.9466L77.0754 48.9839L77.9785 48.7792L79.3151 49.6702L80.3989 49.3692L81.0491 49.8268L83.7103 49.1886L85.6972 49.9351L88.2138 55.4502L89.117 53.8727L88.4788 51.4644L89.0808 49.899L89.0086 48.454L89.5504 47.3703L90.4897 48.4661L94.1022 48.141L87.2385 35.0999L73.1619 27.5138L71.5844 29.0069L73.7881 31.5236L73.3546 32.4628L71.4279 32.6073L70.5248 30.4158L69.4411 30.8372L70.6452 33.5586L69.4411 33.6188L65.5878 33.4864L63.9019 34.6303L62.0475 36.0151L61.1805 37.0988L62.18 37.9418L60.9758 38.4355L60.3015 39.7119L58.8565 40.7234H57.6524L58.1942 41.482L57.5801 42.951L56.1953 42.6741L55.1718 43.4207L54.5697 45.4436L56.978 45.6002L59.0733 44.396L59.868 43.1919L61.9873 43.0353L62.2402 43.6254L63.6491 44.7452L62.8784 46.2143L63.7574 46.6358L64.9616 45.0944L64.1909 43.3243L65.6359 43.0474L65.5275 44.4081C65.5275 44.4081 65.7082 45.7206 65.9851 45.8892C66.2621 46.0578 67.0327 46.6358 67.0327 46.6358L68.1044 44.8416L68.5379 46.3468L70.1154 47.1535L72.03 46.2263L72.1263 47.0933L71.8614 48.2975L70.6572 48.8875L66.5511 48.454L64.9375 48.7792L64.5281 49.6221L62.6255 48.8875L61.8669 47.4185L61.9512 46.3588L59.4345 45.8169L57.6765 46.4792L55.4006 46.3949Z" fill="#011B33"/>
<path id="Vector_15" d="M78.7612 67.1184L77.4126 68.6236L76.8105 68.9126L76.2807 69.4906L76.5215 70.2854L76.2325 70.9958L75.8231 71.4534C75.8247 71.7489 75.857 72.0435 75.9194 72.3324L77.0513 72.5612L78.0267 70.3335L78.7492 68.6718L79.1947 68.3587L79.0743 67.3352L78.7612 67.1184Z" fill="#011B33"/>
<path id="Vector_16" d="M37.8079 49.3451C38.1739 49.9118 38.5076 50.4988 38.8074 51.1032C38.8074 51.2356 38.6869 52.9094 38.6749 52.9094C38.6629 52.9094 38.6749 53.7644 38.6749 53.7644L39.6021 55.2334L39.8068 56.57C39.67 57.0251 39.5813 57.4933 39.5419 57.9669C39.8539 58.2527 40.1513 58.5542 40.433 58.87L41.4565 60.1464L42.8051 61.4469L43.2266 62.2657L43.3229 63.2411L42.9376 64.4452L42.7811 65.0955L43.0701 66.2996V67.1184L43.3711 68.0577H42.2874L42.7811 68.9849L42.9978 69.6231L42.8654 70.6827L33.1117 65.6855L34.3158 55.3298L37.8079 49.3451Z" fill="#011B33"/>
<path id="Vector_17" d="M42.8172 38.2187L43.0099 38.4716L43.8287 37.8454H44.2261L44.6716 37.0748L45.5506 36.8099L44.9365 37.2433V37.5444L45.3098 37.7611L45.8637 37.2915L46.2009 36.7978L46.0323 36.3523L46.6464 35.8586L47.1642 35.5696L46.6585 35.1481L47.3689 34.9555C47.4299 35.0837 47.4983 35.2083 47.5736 35.3287C47.5736 35.4492 48.5129 35.3287 48.5129 35.3287L46.6223 36.5329L46.5621 37.0146L46.9595 37.7491L48.0914 36.7978V36.0874L48.5129 35.6418L49.3317 35.1481L49.5003 34.1607L49.9217 33.39L50.2589 32.9806L50.018 32.6194L50.584 32.1979L51.2704 31.7163L51.0657 30.9938L49.127 29.9582L43.2507 34.6062L42.8172 38.2187Z" fill="#011B33"/>
<path id="Vector_18" d="M51.5112 33.8837L54.2807 31.5477L55.0393 31.1262L56.4723 30.2954L57.9052 29.4525L57.6885 29.2237L58.2304 28.9588L57.9293 28.8745L58.0257 28.4289L57.4958 28.5373V28.8745L56.5927 29.0912L56.3519 28.453L58.7602 27.0201C59.1826 27.1278 59.5879 27.294 59.9643 27.5138C59.9287 27.8652 59.8436 28.2098 59.7115 28.5373L59.0973 29.332L59.6633 29.7415V29.5368L61.2287 29.609L61.4455 29.8498L61.1805 30.3195L61.8308 30.5001L61.7104 30.7891C61.3098 30.7537 60.9068 30.7537 60.5062 30.7891C60.3723 31.1238 60.2911 31.4771 60.2654 31.8367L59.0131 32.1979C59.0131 32.1979 58.8204 31.7885 58.7241 31.8849C58.5442 32.133 58.3908 32.3994 58.2665 32.6796L57.6644 32.8843L56.1351 32.5351L54.931 32.9927L54.4493 32.788L53.6184 33.8235L52.053 34.5099L51.5112 33.8837Z" fill="#011B33"/>
<path id="Vector_19" d="M57.3995 33.1733C57.3995 33.3298 56.7372 33.5948 56.7372 33.5948L56.6048 34.0042L56.087 34.0764V34.6062L56.7974 34.8712L58.0016 34.5581L58.712 34.1607L58.5675 33.5827C58.5675 33.5827 58.5675 33.2455 58.411 33.3298C58.2919 33.3896 58.1583 33.4146 58.0257 33.4021L57.8089 33.1492L57.3995 33.1733Z" fill="#011B33"/>
</g>
</g>
</g>
<path id="Vector_20" d="M58.399 51.8016C59.1954 50.9717 59.6913 49.8993 59.8078 48.7551C59.7723 47.6729 59.359 46.6372 58.6398 45.8278C57.9206 45.0184 56.9407 44.4863 55.8702 44.3238C55.6418 44.3059 55.4123 44.3059 55.1839 44.3238C54.9554 44.3059 54.7259 44.3059 54.4975 44.3238C53.4314 44.4914 52.4571 45.0257 51.7427 45.8347C51.0283 46.6436 50.6185 47.6764 50.584 48.7551C50.7005 49.8993 51.1964 50.9717 51.9928 51.8016L55.2079 55.6428L58.423 51.8016H58.399ZM56.7733 49.3933C56.6728 49.7386 56.4629 50.042 56.1752 50.2579C55.8875 50.4738 55.5375 50.5905 55.1778 50.5905C54.8181 50.5905 54.4682 50.4738 54.1805 50.2579C53.8927 50.042 53.6829 49.7386 53.5823 49.3933C53.534 49.2456 53.5096 49.0911 53.5101 48.9357C53.5099 48.689 53.5677 48.4456 53.6787 48.2252C53.8471 47.8746 54.1323 47.5936 54.4855 47.4305C54.7 47.3298 54.9349 47.2803 55.1718 47.286C55.4127 47.2793 55.6518 47.3288 55.8702 47.4305C56.2211 47.5969 56.5054 47.8769 56.677 48.2252C56.788 48.4456 56.8457 48.689 56.8456 48.9357C56.8424 49.079 56.818 49.221 56.7733 49.3571V49.3933Z" fill="#9FFFB3"/>
<path id="Vector_21" d="M71.5604 65.4326C72.3561 64.5975 72.8517 63.5216 72.9692 62.3741C72.9337 61.2919 72.5205 60.2562 71.8012 59.4468C71.082 58.6374 70.1022 58.1053 69.0316 57.9428C68.8032 57.9248 68.5737 57.9248 68.3453 57.9428C68.1168 57.9248 67.8873 57.9248 67.6589 57.9428C66.5884 58.1053 65.6085 58.6374 64.8893 59.4468C64.1701 60.2562 63.7569 61.2919 63.7213 62.3741C63.8388 63.5216 64.3344 64.5975 65.1302 65.4326L68.3453 69.2739L71.5604 65.4326ZM69.9348 63.0243C69.8342 63.3697 69.6243 63.6731 69.3366 63.889C69.0489 64.1049 68.6989 64.2216 68.3392 64.2216C67.9796 64.2216 67.6296 64.1049 67.3419 63.889C67.0542 63.6731 66.8443 63.3697 66.7437 63.0243C66.6954 62.8766 66.671 62.7221 66.6715 62.5667C66.6743 62.3203 66.7319 62.0777 66.8401 61.8563C67.0056 61.5065 67.2922 61.2284 67.6469 61.0736C67.8605 60.9691 68.0954 60.9156 68.3332 60.917C68.5749 60.9159 68.8136 60.9694 69.0316 61.0736C69.3839 61.232 69.6694 61.509 69.8384 61.8563C69.9466 62.0777 70.0042 62.3203 70.007 62.5667C70.0026 62.706 69.9783 62.8438 69.9348 62.9761V63.0243Z" fill="#9FFFB3"/>
<path id="Vector_22" d="M80.3507 41.482C81.1465 40.6469 81.6421 39.5709 81.7596 38.4234C81.724 37.3412 81.3108 36.3056 80.5916 35.4962C79.8724 34.6868 78.8925 34.1547 77.822 33.9921C77.5935 33.9742 77.3641 33.9742 77.1356 33.9921C76.9072 33.9742 76.6777 33.9742 76.4492 33.9921C75.3787 34.1547 74.3989 34.6868 73.6797 35.4962C72.9604 36.3056 72.5472 37.3412 72.5117 38.4234C72.6292 39.5709 73.1248 40.6469 73.9205 41.482L77.0754 45.3232L80.2905 41.482H80.3507ZM78.7251 39.0737C78.6246 39.419 78.4147 39.7224 78.127 39.9383C77.8393 40.1542 77.4893 40.2709 77.1296 40.2709C76.7699 40.2709 76.4199 40.1542 76.1322 39.9383C75.8445 39.7224 75.6346 39.419 75.5341 39.0737C75.4858 38.926 75.4614 38.7715 75.4618 38.6161C75.4647 38.3697 75.5222 38.127 75.6304 37.9056C75.8021 37.5573 76.0864 37.2773 76.4372 37.1109C76.6578 37.0158 76.8954 36.9667 77.1356 36.9664C77.3719 36.9666 77.6056 37.0158 77.822 37.1109C78.1097 37.2446 78.3539 37.4567 78.5265 37.723C78.699 37.9893 78.7929 38.2988 78.7974 38.6161C78.793 38.7553 78.7686 38.8932 78.7251 39.0255V39.0737Z" fill="#9FFFB3"/>
<path id="Vector_23" d="M11.3646 80.3762H98.5696" stroke="#DCF6FF" stroke-width="0.986714" stroke-miterlimit="10"/>
<path id="Vector_24" d="M94.4273 23.0223V24.9971V26.9719V28.9467V30.9215H99.9182V28.9467V26.9719V24.9971V23.0223H94.4273Z" fill="#F6FCFF"/>
<path id="Vector_25" d="M99.9182 23.0223V26.9719V30.9215H105.397V26.9719V23.0223H99.9182Z" fill="#00E1FF"/>
<path id="Vector_26" d="M105.397 23.0223V26.9719V30.9215H110.876V26.9719V23.0223H105.397Z" fill="#011B33"/>
<path id="Vector_27" d="M94.4273 80.9542V23.0223" stroke="#DCF6FF" stroke-width="0.986714" stroke-miterlimit="10"/>
</g>
<defs>
<clipPath id="clip0_16_1471">
<rect width="116.791" height="79.98" fill="white" transform="translate(0.00946045 0.889893)"/>
</clipPath>
</defs>
</svg>
