<svg width="129" height="81" viewBox="0 0 129 81" fill="none" xmlns="http://www.w3.org/2000/svg">
<g id="For-Large-Corporations_180823_165502.svg" clip-path="url(#clip0_16_1597)">
<path id="Vector" d="M109.45 72.3324V55.7873" stroke="#CAF1FC" stroke-width="0.986203" stroke-miterlimit="10"/>
<path id="Vector_2" d="M109.45 80.7013V72.3324" stroke="#BDDEF4" stroke-width="0.986203" stroke-miterlimit="10"/>
<path id="Vector_3" d="M109.45 60.3872L111.75 58.2799" stroke="#CAF1FC" stroke-width="0.986203" stroke-miterlimit="10"/>
<path id="Vector_4" d="M109.45 63.518L107.355 61.0856" stroke="#CAF1FC" stroke-width="0.986203" stroke-miterlimit="10"/>
<path id="Vector_5" d="M109.45 68.5153L111.811 66.6488" stroke="#CAF1FC" stroke-width="0.986203" stroke-miterlimit="10"/>
<path id="Vector_6" d="M105.994 27.5619H61.4769V80.8699H105.994V27.5619Z" fill="#F6FCFF"/>
<path id="Vector_7" d="M32.9745 80.8699C50.9039 80.8699 65.4385 66.3352 65.4385 48.4059C65.4385 30.4765 50.9039 15.9418 32.9745 15.9418C15.0451 15.9418 0.510468 30.4765 0.510468 48.4059C0.510468 66.3352 15.0451 80.8699 32.9745 80.8699Z" fill="#DCF6FF"/>
<path id="Vector_8" d="M46.4249 28.1881H21.3544C21.0765 28.1881 20.8101 28.2985 20.6136 28.4949C20.4171 28.6914 20.3068 28.9579 20.3068 29.2357V39.1339C20.2941 39.9526 19.96 40.7336 19.3765 41.3081C18.7929 41.8826 18.0069 42.2046 17.188 42.2045H14.6232C14.4846 42.2029 14.3471 42.2288 14.2186 42.2807C14.0901 42.3327 13.9731 42.4096 13.8746 42.507C13.776 42.6045 13.6978 42.7205 13.6444 42.8484C13.591 42.9763 13.5635 43.1135 13.5635 43.2521V67.865C13.5635 68.0036 13.591 68.1408 13.6444 68.2687C13.6978 68.3966 13.776 68.5126 13.8746 68.6101C13.9731 68.7075 14.0901 68.7844 14.2186 68.8364C14.3471 68.8883 14.4846 68.9142 14.6232 68.9126H39.6937C39.9715 68.9126 40.238 68.8023 40.4345 68.6058C40.6309 68.4093 40.7413 68.1429 40.7413 67.865V43.2521C40.7404 43.001 40.6484 42.7587 40.4822 42.5705C40.3161 42.3822 40.0872 42.2607 39.8382 42.2285H46.4249C46.5645 42.2302 46.703 42.2039 46.8323 42.1512C46.9616 42.0985 47.0791 42.0205 47.1778 41.9218C47.2765 41.8231 47.3545 41.7056 47.4072 41.5763C47.4599 41.447 47.4862 41.3085 47.4846 41.1689V29.2357C47.4846 29.0971 47.4571 28.9599 47.4037 28.832C47.3503 28.7041 47.272 28.5881 47.1735 28.4906C47.0749 28.3932 46.958 28.3163 46.8295 28.2644C46.701 28.2124 46.5635 28.1865 46.4249 28.1881Z" fill="white"/>
<g id="Clip path group">
<mask id="mask0_16_1597" style="mask-type:luminance" maskUnits="userSpaceOnUse" x="10" y="28" width="35" height="41">
<g id="a">
<path id="Vector_9" d="M43.4747 42.2045C43.6143 42.2061 43.7528 42.1798 43.8821 42.1271C44.0114 42.0744 44.1289 41.9964 44.2276 41.8977C44.3263 41.799 44.4043 41.6815 44.457 41.5522C44.5097 41.4229 44.536 41.2844 44.5344 41.1448V29.2357C44.5344 29.0971 44.5069 28.9599 44.4535 28.832C44.4001 28.7041 44.3219 28.5881 44.2233 28.4906C44.1247 28.3932 44.0078 28.3163 43.8793 28.2644C43.7508 28.2124 43.6133 28.1865 43.4747 28.1881H18.4042C18.1252 28.1881 17.8575 28.2981 17.6591 28.4942C17.4608 28.6903 17.3477 28.9568 17.3446 29.2357V39.1339C17.3382 39.9525 17.0077 40.7353 16.4254 41.3108C15.8431 41.8863 15.0565 42.2077 14.2378 42.2045H11.673C11.5344 42.2029 11.3969 42.2288 11.2684 42.2807C11.1399 42.3327 11.023 42.4096 10.9244 42.507C10.8259 42.6045 10.7476 42.7205 10.6942 42.8484C10.6408 42.9763 10.6133 43.1135 10.6133 43.2521V67.865C10.6133 68.0036 10.6408 68.1408 10.6942 68.2687C10.7476 68.3966 10.8259 68.5126 10.9244 68.6101C11.023 68.7075 11.1399 68.7844 11.2684 68.8364C11.3969 68.8883 11.5344 68.9142 11.673 68.9126H36.7435C37.0213 68.9126 37.2878 68.8023 37.4843 68.6058C37.6807 68.4093 37.7911 68.1429 37.7911 67.865V43.2521C37.7911 42.9742 37.6807 42.7078 37.4843 42.5113C37.2878 42.3148 37.0213 42.2045 36.7435 42.2045H43.4747Z" fill="white"/>
</g>
</mask>
<g mask="url(#mask0_16_1597)">
<g id="Group">
<path id="Vector_10" d="M37.1529 27.5619L13.5635 51.1513V79.8102H43.2941H63.4637L37.1529 27.5619Z" fill="#BDDEF4"/>
</g>
</g>
</g>
<path id="Vector_11" d="M105.994 27.5619H61.4769V80.8699H105.994V27.5619Z" fill="#F6FCFF"/>
<path id="Vector_12" d="M81.2371 32.9566H75.6377V41.7228H81.2371V32.9566Z" fill="white"/>
<path id="Vector_13" d="M83.1516 32.9566H81.2491V41.7228H83.1516V32.9566Z" fill="#DCF6FF"/>
<path id="Vector_14" d="M43.7758 32.9566H40.2717V41.7228H43.7758V32.9566Z" fill="#F6FCFF"/>
<path id="Vector_15" d="M40.2717 32.9566H39.0796V41.7228H40.2717V32.9566Z" fill="#BDDEF4"/>
<path id="Vector_16" d="M49.917 32.9566H46.4129V41.7228H49.917V32.9566Z" fill="#F6FCFF"/>
<path id="Vector_17" d="M46.4249 32.9566H45.2328V41.7228H46.4249V32.9566Z" fill="#BDDEF4"/>
<path id="Vector_18" d="M56.0461 32.9566H52.542V41.7228H56.0461V32.9566Z" fill="#F6FCFF"/>
<path id="Vector_19" d="M52.542 32.9566H51.3499V41.7228H52.542V32.9566Z" fill="#BDDEF4"/>
<path id="Vector_20" d="M43.7758 32.9566H40.2717V41.7228H43.7758V32.9566Z" fill="#F6FCFF"/>
<path id="Vector_21" d="M40.2717 32.9566H39.0796V41.7228H40.2717V32.9566Z" fill="#BDDEF4"/>
<path id="Vector_22" d="M49.917 32.9566H46.4129V41.7228H49.917V32.9566Z" fill="#F6FCFF"/>
<path id="Vector_23" d="M46.4249 32.9566H45.2328V41.7228H46.4249V32.9566Z" fill="#BDDEF4"/>
<path id="Vector_24" d="M56.0461 32.9566H52.542V41.7228H56.0461V32.9566Z" fill="#F6FCFF"/>
<path id="Vector_25" d="M52.542 32.9566H51.3499V41.7228H52.542V32.9566Z" fill="#BDDEF4"/>
<path id="Vector_26" d="M43.7758 32.9566H40.2717V41.7228H43.7758V32.9566Z" fill="#F6FCFF"/>
<path id="Vector_27" d="M40.2717 32.9566H39.0796V41.7228H40.2717V32.9566Z" fill="#BDDEF4"/>
<path id="Vector_28" d="M49.917 32.9566H46.4129V41.7228H49.917V32.9566Z" fill="#F6FCFF"/>
<path id="Vector_29" d="M46.4249 32.9566H45.2328V41.7228H46.4249V32.9566Z" fill="#BDDEF4"/>
<path id="Vector_30" d="M56.0461 32.9566H52.542V41.7228H56.0461V32.9566Z" fill="#F6FCFF"/>
<path id="Vector_31" d="M52.542 32.9566H51.3499V41.7228H52.542V32.9566Z" fill="#BDDEF4"/>
<path id="Vector_32" d="M43.7758 44.7211H40.2717V53.4874H43.7758V44.7211Z" fill="#F6FCFF"/>
<path id="Vector_33" d="M40.2717 44.7211H39.0796V53.4874H40.2717V44.7211Z" fill="#BDDEF4"/>
<path id="Vector_34" d="M46.4249 44.7211H45.2328V53.4874H46.4249V44.7211Z" fill="#BDDEF4"/>
<path id="Vector_35" d="M56.0461 44.7211H52.542V53.4874H56.0461V44.7211Z" fill="#F6FCFF"/>
<path id="Vector_36" d="M52.542 44.7211H51.3499V53.4874H52.542V44.7211Z" fill="#BDDEF4"/>
<path id="Vector_37" d="M43.7758 56.5098H40.2717V65.2761H43.7758V56.5098Z" fill="#F6FCFF"/>
<path id="Vector_38" d="M40.2717 56.5098H39.0796V65.2761H40.2717V56.5098Z" fill="#BDDEF4"/>
<path id="Vector_39" d="M49.917 56.5098H46.4129V65.2761H49.917V56.5098Z" fill="#F6FCFF"/>
<path id="Vector_40" d="M46.4249 56.5098H45.2328V65.2761H46.4249V56.5098Z" fill="#BDDEF4"/>
<path id="Vector_41" d="M56.0461 56.5098H52.542V65.2761H56.0461V56.5098Z" fill="#F6FCFF"/>
<path id="Vector_42" d="M52.542 56.5098H51.3499V65.2761H52.542V56.5098Z" fill="#BDDEF4"/>
<path id="Vector_43" d="M43.7758 68.2744H40.2717V77.0407H43.7758V68.2744Z" fill="#F6FCFF"/>
<path id="Vector_44" d="M40.2717 68.2744H39.0796V77.0407H40.2717V68.2744Z" fill="#BDDEF4"/>
<path id="Vector_45" d="M49.917 68.2744H46.4129V77.0407H49.917V68.2744Z" fill="#F6FCFF"/>
<path id="Vector_46" d="M46.4249 68.2744H45.2328V77.0407H46.4249V68.2744Z" fill="#BDDEF4"/>
<path id="Vector_47" d="M56.0461 68.2744H52.542V77.0407H56.0461V68.2744Z" fill="#F6FCFF"/>
<path id="Vector_48" d="M52.542 68.2744H51.3499V77.0407H52.542V68.2744Z" fill="#BDDEF4"/>
<path id="Vector_49" d="M81.2371 32.9566H75.6377V41.7228H81.2371V32.9566Z" fill="white"/>
<path id="Vector_50" d="M83.1516 32.9566H81.2491V41.7228H83.1516V32.9566Z" fill="#DCF6FF"/>
<path id="Vector_51" d="M81.2371 32.9566H75.6377V41.7228H81.2371V32.9566Z" fill="white"/>
<path id="Vector_52" d="M83.1516 32.9566H81.2491V41.7228H83.1516V32.9566Z" fill="#DCF6FF"/>
<path id="Vector_53" d="M91.0991 32.9566H85.4998V41.7228H91.0991V32.9566Z" fill="white"/>
<path id="Vector_54" d="M93.0016 32.9566H91.0991V41.7228H93.0016V32.9566Z" fill="#DCF6FF"/>
<path id="Vector_55" d="M100.949 33.0529H95.3497V53.4994H100.949V33.0529Z" fill="white"/>
<path id="Vector_56" d="M102.852 32.9566H100.949V41.7228H102.852V32.9566Z" fill="#DCF6FF"/>
<path id="Vector_57" d="M91.0991 32.8723H85.4998V53.3188H91.0991V32.8723Z" fill="white"/>
<path id="Vector_58" d="M93.0016 32.8723H91.0991V41.6385H93.0016V32.8723Z" fill="#DCF6FF"/>
<path id="Vector_59" d="M102.852 32.9566H100.949V41.6506H102.852V32.9566Z" fill="#DCF6FF"/>
<path id="Vector_60" d="M81.2371 44.7332H75.6377V53.4994H81.2371V44.7332Z" fill="white"/>
<path id="Vector_61" d="M83.1516 44.7332H81.2491V53.4994H83.1516V44.7332Z" fill="#DCF6FF"/>
<path id="Vector_62" d="M91.0991 44.7332H85.4998V53.4994H91.0991V44.7332Z" fill="white"/>
<path id="Vector_63" d="M93.0016 44.7332H91.0991V53.4994H93.0016V44.7332Z" fill="#DCF6FF"/>
<path id="Vector_64" d="M100.949 44.7332H95.3497V53.4994H100.949V44.7332Z" fill="white"/>
<path id="Vector_65" d="M102.852 44.7332H100.949V53.4994H102.852V44.7332Z" fill="#DCF6FF"/>
<path id="Vector_66" d="M34.1305 27.5619V43.8542V80.8699H61.4769V27.5619H34.1305Z" fill="#DCF6FF"/>
<path id="Vector_67" d="M81.2371 32.9566H75.6377V41.7228H81.2371V32.9566Z" fill="white"/>
<path id="Vector_68" d="M83.1516 32.9566H81.2491V41.7228H83.1516V32.9566Z" fill="#DCF6FF"/>
<path id="Vector_69" d="M43.7758 32.9566H40.2717V41.7228H43.7758V32.9566Z" fill="#F6FCFF"/>
<path id="Vector_70" d="M40.2717 32.9566H39.0796V41.7228H40.2717V32.9566Z" fill="#BDDEF4"/>
<path id="Vector_71" d="M49.917 32.9566H46.4129V41.7228H49.917V32.9566Z" fill="#F6FCFF"/>
<path id="Vector_72" d="M46.4249 32.9566H45.2328V41.7228H46.4249V32.9566Z" fill="#BDDEF4"/>
<path id="Vector_73" d="M56.0461 32.9566H52.542V41.7228H56.0461V32.9566Z" fill="#F6FCFF"/>
<path id="Vector_74" d="M52.542 32.9566H51.3499V41.7228H52.542V32.9566Z" fill="#BDDEF4"/>
<path id="Vector_75" d="M43.7758 32.9566H40.2717V41.7228H43.7758V32.9566Z" fill="#F6FCFF"/>
<path id="Vector_76" d="M40.2717 32.9566H39.0796V41.7228H40.2717V32.9566Z" fill="#BDDEF4"/>
<path id="Vector_77" d="M49.917 32.9566H46.4129V41.7228H49.917V32.9566Z" fill="#F6FCFF"/>
<path id="Vector_78" d="M46.4249 32.9566H45.2328V41.7228H46.4249V32.9566Z" fill="#BDDEF4"/>
<path id="Vector_79" d="M56.0461 32.9566H52.542V41.7228H56.0461V32.9566Z" fill="#F6FCFF"/>
<path id="Vector_80" d="M52.542 32.9566H51.3499V41.7228H52.542V32.9566Z" fill="#BDDEF4"/>
<path id="Vector_81" d="M46.4008 32.9566H45.2087V77.0527H46.4008V32.9566Z" fill="#BDDEF4"/>
<path id="Vector_82" d="M52.542 32.9566H51.3499V77.0527H52.542V32.9566Z" fill="#BDDEF4"/>
<path id="Vector_83" d="M43.7758 44.7211H40.2717V53.4874H43.7758V44.7211Z" fill="white"/>
<path id="Vector_84" d="M40.2717 44.7211H39.0796V53.4874H40.2717V44.7211Z" fill="#BDDEF4"/>
<path id="Vector_85" d="M49.917 44.7211H46.4129V53.4874H49.917V44.7211Z" fill="white"/>
<path id="Vector_86" d="M46.4249 44.7211H45.2328V53.4874H46.4249V44.7211Z" fill="#BDDEF4"/>
<path id="Vector_87" d="M56.0461 44.7211H52.542V53.4874H56.0461V44.7211Z" fill="white"/>
<path id="Vector_88" d="M52.542 44.7211H51.3499V53.4874H52.542V44.7211Z" fill="#BDDEF4"/>
<path id="Vector_89" d="M43.7758 56.5098H40.2717V65.2761H43.7758V56.5098Z" fill="white"/>
<path id="Vector_90" d="M40.2717 56.5098H39.0796V65.2761H40.2717V56.5098Z" fill="#BDDEF4"/>
<path id="Vector_91" d="M49.917 56.5098H46.4129V65.2761H49.917V56.5098Z" fill="white"/>
<path id="Vector_92" d="M46.4249 56.5098H45.2328V65.2761H46.4249V56.5098Z" fill="#BDDEF4"/>
<path id="Vector_93" d="M56.0461 56.5098H52.542V65.2761H56.0461V56.5098Z" fill="white"/>
<path id="Vector_94" d="M52.542 56.5098H51.3499V65.2761H52.542V56.5098Z" fill="#BDDEF4"/>
<path id="Vector_95" d="M43.7758 68.2744H40.2717V77.0407H43.7758V68.2744Z" fill="white"/>
<path id="Vector_96" d="M40.2717 68.2744H39.0796V77.0407H40.2717V68.2744Z" fill="#BDDEF4"/>
<path id="Vector_97" d="M49.917 68.2744H46.4129V77.0407H49.917V68.2744Z" fill="white"/>
<path id="Vector_98" d="M46.4249 68.2744H45.2328V77.0407H46.4249V68.2744Z" fill="#BDDEF4"/>
<path id="Vector_99" d="M56.0461 68.2744H52.542V77.0407H56.0461V68.2744Z" fill="white"/>
<path id="Vector_100" d="M52.542 68.2744H51.3499V77.0407H52.542V68.2744Z" fill="#BDDEF4"/>
<path id="Vector_101" d="M81.2371 33.0529H75.6377V53.5717H81.2371V33.0529Z" fill="white"/>
<path id="Vector_102" d="M83.1516 32.9566H81.2491V41.7228H83.1516V32.9566Z" fill="#DCF6FF"/>
<path id="Vector_103" d="M83.1516 44.7332H81.2491V53.4994H83.1516V44.7332Z" fill="#DCF6FF"/>
<path id="Vector_104" d="M93.0016 44.7332H91.0991V53.4994H93.0016V44.7332Z" fill="#DCF6FF"/>
<path id="Vector_105" d="M102.852 44.7332H100.949V53.4994H102.852V44.7332Z" fill="#DCF6FF"/>
<path id="Vector_106" d="M92.9896 0.877853H56.1425V27.574H92.9896V0.877853Z" fill="#F6FCFF"/>
<path id="Vector_107" d="M56.1424 27.5619H39.0796V9.31898L56.1424 0.877853V27.5619Z" fill="#DCF6FF"/>
<path id="Vector_108" d="M106.38 11.7514H98.1554V16.2429H106.38V11.7514Z" fill="#9FFFB3"/>
<path id="Vector_109" d="M106.38 16.2308H98.1554V20.7223H106.38V16.2308Z" fill="#9FFFB3"/>
<path id="Vector_110" d="M114.604 11.7514H106.38V16.2429H114.604V11.7514Z" fill="#9FFFB3"/>
<path id="Vector_111" d="M114.604 16.2308H106.38V20.7223H114.604V16.2308Z" fill="#9FFFB3"/>
<path id="Vector_112" d="M98.1554 27.5619V11.7514" stroke="#DCF6FF" stroke-width="0.986714" stroke-miterlimit="10"/>
<path id="Vector_113" d="M86.8123 8.19911H61.4769V27.5619H86.8123V8.19911Z" fill="white"/>
<path id="Vector_114" d="M88.7149 8.19911H86.8123V27.5619H88.7149V8.19911Z" fill="#BDDEF4"/>
<path id="Vector_115" d="M102.852 32.9566H100.949V53.4994H102.852V32.9566Z" fill="#BDDEF4"/>
<path id="Vector_116" d="M83.1276 32.8723H81.225V53.5717H83.1276V32.8723Z" fill="#BDDEF4"/>
<path id="Vector_117" d="M93.0016 32.8723H91.0991V53.4994H93.0016V32.8723Z" fill="#BDDEF4"/>
<path id="Vector_118" d="M95.3498 31.9571H92.9896V53.4994H95.3498V31.9571Z" fill="#F6FCFF"/>
<path id="Vector_119" d="M85.4877 31.9571H83.1276V53.4994H85.4877V31.9571Z" fill="#F6FCFF"/>
<path id="Vector_120" d="M87.7636 16.9413H61.4769V17.9407H87.7636V16.9413Z" fill="#00E1FF"/>
<path id="Vector_121" d="M88.7149 8.19911H86.8123V10.7399H88.7149V8.19911Z" fill="#BDDEF4"/>
<path id="Vector_122" d="M83.1276 32.8723H81.225V36.0271H83.1276V32.8723Z" fill="#BDDEF4"/>
<path id="Vector_123" d="M93.0016 32.8723H91.0991V36.0271H93.0016V32.8723Z" fill="#BDDEF4"/>
<path id="Vector_124" d="M102.852 32.8723H100.949V36.0271H102.852V32.8723Z" fill="#BDDEF4"/>
<path id="Vector_125" d="M90.786 59.7008H82.7543V80.8579H90.786V59.7008Z" fill="white"/>
<path id="Vector_126" d="M110.63 59.7008H93.8687V80.8579H110.63V59.7008Z" fill="white"/>
<path id="Vector_127" d="M83.8621 59.7129V79.148L90.786 72.212V59.7129H83.8621Z" fill="#BDDEF4"/>
<path id="Vector_128" d="M82.7543 59.7008H75.6377V80.8579H82.7543V59.7008Z" fill="#DCF6FF"/>
<path id="Vector_129" d="M113.171 59.7008V80.8699" stroke="#DCF6FF" stroke-width="1.11274" stroke-miterlimit="10"/>
<path id="Vector_130" d="M93.3027 59.7008V80.8699" stroke="#DCF6FF" stroke-width="1.11274" stroke-miterlimit="10"/>
<path id="Vector_131" d="M83.3082 59.7008V80.8699" stroke="#DCF6FF" stroke-width="1.11274" stroke-miterlimit="10"/>
<path id="Vector_132" d="M112.593 59.7129H110.63V62.8437H112.593V59.7129Z" fill="#BDDEF4"/>
<path id="Vector_133" d="M112.593 62.8557H110.63V80.8579H112.593V62.8557Z" fill="#BDDEF4"/>
<path id="Vector_134" d="M92.7488 62.3259H90.786V80.8579H92.7488V62.3259Z" fill="#BDDEF4"/>
<path id="Vector_135" d="M86.5835 56.4978H74.4336V59.7008H86.5835V56.4978Z" fill="#BDDEF4"/>
<path id="Vector_136" d="M82.7543 59.7008H75.6377V80.8579H82.7543V59.7008Z" fill="#F6FCFF"/>
<path id="Vector_137" d="M86.5835 56.4978H85.3312V62.3259H86.5835V56.4978Z" fill="#BDDEF4"/>
<path id="Vector_138" d="M43.7758 32.9566H40.2717V77.0527H43.7758V32.9566Z" fill="white"/>
<path id="Vector_139" d="M49.917 32.9566H46.4129V77.0527H49.917V32.9566Z" fill="white"/>
<path id="Vector_140" d="M56.0461 32.9566H52.542V77.0527H56.0461V32.9566Z" fill="white"/>
<path id="Vector_141" d="M32.3363 80.3642H128.32" stroke="#DCF6FF" stroke-width="0.986203" stroke-miterlimit="10"/>
<path id="Vector_142" d="M40.7534 32.9566H39.0675V77.0527H40.7534V32.9566Z" fill="#BDDEF4"/>
<path id="Vector_143" d="M46.9186 32.9566H45.2328V77.0527H46.9186V32.9566Z" fill="#BDDEF4"/>
<path id="Vector_144" d="M53.0357 32.9566H51.3499V77.0527H53.0357V32.9566Z" fill="#BDDEF4"/>
<path id="Vector_145" d="M114.785 56.4978H105.38H86.5715V62.3259H105.38H114.785H116.844V56.4978H114.785Z" fill="#011B33"/>
<path id="Vector_146" d="M74.4336 56.4978L61.4889 69.4425V79.8102H75.6377V59.7008H74.4336V56.4978Z" fill="#BDDEF4"/>
<g id="Clip path group_2">
<mask id="mask1_16_1597" style="mask-type:luminance" maskUnits="userSpaceOnUse" x="0" y="15" width="66" height="66">
<g id="b">
<path id="Vector_147" d="M32.9745 80.8699C50.9039 80.8699 65.4385 66.3352 65.4385 48.4059C65.4385 30.4765 50.9039 15.9418 32.9745 15.9418C15.0451 15.9418 0.510468 30.4765 0.510468 48.4059C0.510468 66.3352 15.0451 80.8699 32.9745 80.8699Z" fill="white"/>
</g>
</mask>
<g mask="url(#mask1_16_1597)">
<g id="Group_2">
<path id="Vector_148" d="M27.5678 80.7013V68.9126" stroke="#BDDEF4" stroke-width="0.986203" stroke-miterlimit="10"/>
</g>
</g>
</g>
<path id="Vector_149" d="M110.63 62.3018L93.7964 79.1479V62.3259L110.63 62.3018Z" fill="#BDDEF4"/>
<path id="Vector_150" d="M104.525 73.3921C104.998 73.3921 105.38 73.0093 105.38 72.5371C105.38 72.065 104.998 71.6822 104.525 71.6822C104.053 71.6822 103.67 72.065 103.67 72.5371C103.67 73.0093 104.053 73.3921 104.525 73.3921Z" fill="#00E1FF"/>
<path id="Vector_151" d="M101.611 73.3921C102.084 73.3921 102.466 73.0093 102.466 72.5371C102.466 72.065 102.084 71.6822 101.611 71.6822C101.139 71.6822 100.756 72.065 100.756 72.5371C100.756 73.0093 101.139 73.3921 101.611 73.3921Z" fill="#00E1FF"/>
</g>
<defs>
<clipPath id="clip0_16_1597">
<rect width="127.809" height="79.98" fill="white" transform="translate(0.510468 0.889893)"/>
</clipPath>
</defs>
</svg>
