<svg width="128" height="29" viewBox="0 0 128 29" fill="none" xmlns="http://www.w3.org/2000/svg">
<g id="GIGM-Plain_180827_172142.svg" clip-path="url(#clip0_16_1975)">
<path id="Vector" fill-rule="evenodd" clip-rule="evenodd" d="M100.078 28.1954L95.0096 9.56188L87.4978 26.8098C87.2304 27.3689 86.9024 27.8065 86.513 28.1225C86.1485 28.4142 85.6869 28.5601 85.1273 28.5601C84.0337 28.5601 83.2433 27.9766 82.7575 26.8098L76.6801 13.6095L77.1053 28.1954H72.4742V3.25348C72.7902 1.98936 73.556 1.3573 74.7715 1.3573C75.2577 1.3573 75.7075 1.49103 76.1207 1.75844C76.5583 2.02584 76.8865 2.41478 77.1053 2.92531L85.2734 21.6682L93.4412 2.92531C93.8788 1.87997 94.6202 1.3573 95.6656 1.3573C96.784 1.3573 97.5255 1.98936 97.89 3.25348L104.673 28.1954H100.078ZM13.3404 28.3172C11.4929 28.3172 9.77906 27.9768 8.19889 27.2961C6.64305 26.5911 5.2817 25.643 4.11482 24.4518C2.97226 23.2363 2.07279 21.802 1.41642 20.149C0.784366 18.496 0.468338 16.7091 0.468338 14.7887C0.468338 12.8439 0.784366 11.0692 1.41642 9.4648C2.07279 7.86037 2.97226 6.49899 4.11482 5.38074C5.2817 4.2382 6.64305 3.36302 8.19889 2.75529C9.77906 2.12323 11.4929 1.8072 13.3404 1.8072H27.7076V6.43823H13.3404C12.1493 6.43823 11.0431 6.65701 10.0221 7.09458C9.02546 7.50786 8.16243 8.0913 7.43312 8.84489C6.70382 9.59856 6.13254 10.498 5.71927 11.5433C5.30601 12.5886 5.09938 13.7434 5.09938 15.0075C5.09938 16.2473 5.30601 17.402 5.71927 18.4716C6.13254 19.5413 6.70382 20.4651 7.43312 21.243C8.16243 21.9966 9.02546 22.5922 10.0221 23.0297C11.0431 23.4673 12.1493 23.6861 13.3404 23.6861H24.681V16.7942H12.7205V12.8925H29.3485V28.3172H13.3404ZM33.1298 28.3172V1.8072H37.7608V28.3172H33.1298ZM48.8315 27.2961C50.4117 27.9768 52.1255 28.3172 53.9731 28.3172H69.9811V12.8925H53.3532V16.7942H65.3137V23.6861H53.9731C52.7819 23.6861 51.6758 23.4673 50.6548 23.0297C49.6581 22.5922 48.7951 21.9966 48.0658 21.243C47.3365 20.4651 46.7652 19.5413 46.3519 18.4716C45.9387 17.402 45.732 16.2473 45.732 15.0075C45.732 13.7434 45.9387 12.5886 46.3519 11.5433C46.7652 10.498 47.3365 9.59856 48.0658 8.84489C48.7951 8.0913 49.6581 7.50786 50.6548 7.09458C51.6758 6.65701 52.7819 6.43823 53.9731 6.43823H68.3403V1.8072H53.9731C52.1255 1.8072 50.4117 2.12323 48.8315 2.75529C47.2757 3.36302 45.9144 4.2382 44.7475 5.38074C43.6049 6.49899 42.7055 7.86037 42.0491 9.4648C41.4171 11.0692 41.101 12.8439 41.101 14.7887C41.101 16.7091 41.4171 18.496 42.0491 20.149C42.7055 21.802 43.6049 23.2363 44.7475 24.4518C45.9144 25.643 47.2757 26.5911 48.8315 27.2961ZM119.184 25.5821C119.184 27.6387 117.794 28.4264 116.514 28.4264H116.503C114.95 28.4264 113.845 27.3872 113.845 25.6587C113.845 23.8865 114.961 22.8253 116.58 22.8253C118.177 22.8253 119.184 23.963 119.184 25.5821ZM115.77 25.6258C115.77 26.4682 116 27.0699 116.536 27.0699H116.546C117.028 27.0699 117.258 26.4572 117.258 25.6258C117.258 24.893 117.061 24.1818 116.536 24.1818C115.956 24.1818 115.77 24.9148 115.77 25.6258ZM113.492 26.8074C113.274 26.9057 113.033 26.9386 112.737 26.9386C112.06 26.9386 111.523 26.4791 111.523 25.604C111.512 24.7944 112.004 24.2913 112.716 24.2913C113.054 24.2913 113.284 24.346 113.459 24.4116L113.711 23.0004C113.405 22.891 112.978 22.8363 112.606 22.8363C110.659 22.8363 109.609 24.0834 109.609 25.6805C109.609 27.409 110.681 28.4154 112.366 28.4154C112.912 28.4154 113.416 28.3279 113.679 28.2186L113.492 26.8074ZM108.105 28.4264C108.751 28.4264 109.188 27.9669 109.188 27.2996C109.178 26.6104 108.729 26.1619 108.116 26.1619C107.503 26.1619 107.033 26.6323 107.033 27.2996C107.033 27.9669 107.493 28.4264 108.094 28.4264H108.105ZM119.849 28.317H121.698V25.1554C121.698 25.0132 121.709 24.8711 121.752 24.7616C121.84 24.5648 122.004 24.3569 122.299 24.3569C122.726 24.3569 122.858 24.7726 122.858 25.2758V28.317H124.706V25.1554C124.706 25.0351 124.717 24.8711 124.75 24.7835C124.837 24.532 125.024 24.3569 125.308 24.3569C125.712 24.3569 125.865 24.7507 125.865 25.3852V28.317H127.714V25.1007C127.714 23.6786 127.135 22.8253 126.008 22.8253C125.669 22.8253 125.373 22.9019 125.111 23.0332C124.848 23.1754 124.619 23.3833 124.421 23.6349H124.4C124.192 23.1426 123.699 22.8253 123.032 22.8253C122.212 22.8253 121.741 23.2848 121.523 23.5911H121.49L121.403 22.9348H119.805C119.827 23.4489 119.849 24.0615 119.849 24.7288V28.317ZM102.323 5.83026H101.377V2.95866H100.529V2.14367H103.188V2.95866H102.323V5.83026ZM107.314 5.83026H106.417L106.368 4.55585C106.357 4.17843 106.346 3.69708 106.346 3.17744H106.33C106.237 3.63693 106.094 4.16202 105.996 4.51206L105.662 5.7537H104.94L104.65 4.51751C104.568 4.16747 104.459 3.64784 104.388 3.17744H104.377C104.361 3.52056 104.346 3.88313 104.332 4.19968V4.20395L104.317 4.55585L104.262 5.83026H103.408L103.655 2.14367H104.847L105.088 3.1884C105.187 3.61501 105.29 4.08545 105.361 4.52847H105.378C105.466 4.09091 105.58 3.59314 105.679 3.18294L105.941 2.14367H107.117L107.314 5.83026Z" fill="#011B33"/>
</g>
<defs>
<clipPath id="clip0_16_1975">
<rect width="127.182" height="27.98" fill="white" transform="translate(0.594086 0.859863)"/>
</clipPath>
</defs>
</svg>
