<svg width="90" height="29" viewBox="0 0 90 29" fill="none" xmlns="http://www.w3.org/2000/svg">
<g id="Ibom-Air-Stack-Blue_200304_154259.svg" clip-path="url(#clip0_16_1856)">
<g id="Layer 2">
<g id="Layer 1">
<path id="Vector" d="M6.39618 28.5274C5.82317 28.4392 5.26832 28.368 4.73165 28.3141C4.20602 28.2604 3.678 28.2333 3.14964 28.2331C2.71144 28.2356 2.27373 28.2626 1.83856 28.3141C1.35794 28.367 0.832679 28.4381 0.262782 28.5274L0.121086 28.0992C0.743924 27.8137 1.14929 27.5189 1.33718 27.2148C1.56244 26.8224 1.7114 26.1263 1.78406 25.1267C1.82455 24.4115 1.82455 22.8217 1.78406 20.3573C1.75396 18.7151 1.72074 17.3267 1.68441 16.1921C1.64808 15.0575 1.60448 14.1606 1.55361 13.5014C1.52559 12.8786 1.41815 12.4021 1.24219 12.0813C1.06624 11.7606 0.712782 11.4834 0.152228 11.1969L0.250325 10.7142C0.969703 10.9478 1.88268 11.064 2.98926 11.063C3.95403 11.0563 4.91426 10.9303 5.84808 10.6877L5.99134 11.1969C5.3685 11.5 4.9813 11.8307 4.82974 12.1888C4.70933 12.4566 4.65742 12.9564 4.67403 13.6883C4.67403 13.9203 4.68338 14.2146 4.6896 14.5727C4.69583 14.9308 4.6896 15.3139 4.6896 15.7779C4.6896 16.2419 4.6787 16.653 4.6896 17.0096C4.7005 17.3661 4.7005 17.6324 4.70362 17.8675C4.70362 18.2054 4.73787 19.0104 4.78614 20.2779C4.83441 21.5454 4.8967 23.3049 4.97144 25.5549C5.00154 26.2514 5.12248 26.7783 5.33424 27.1353C5.54601 27.4924 5.94203 27.8137 6.52231 28.0992L6.39618 28.5274Z" fill="#011B33"/>
<path id="Vector_2" d="M16.086 26.5421C14.5 28.045 12.3912 28.8715 10.2064 28.8466C9.31016 28.8551 8.41664 28.7468 7.54843 28.5242L7.54065 28.0992C8.24964 27.7597 8.55431 25.7775 8.45466 22.1526L8.35656 19.6083C8.34099 18.6616 8.28909 17.0988 8.20085 14.9199C8.17283 14.3313 8.14687 13.8642 8.123 13.5185C8.09809 13.1697 8.07629 12.9424 8.0576 12.835C7.87905 12.0284 7.43217 11.6147 6.71694 11.5939V11.1393C7.42842 11.0492 8.13285 10.9103 8.82525 10.7235C9.51971 10.5367 10.2111 10.3171 10.904 10.068L11.1204 10.1739C11.1204 10.2284 11.1204 10.3125 11.1111 10.4292C11.1017 10.546 11.1017 10.6659 11.1111 10.7905C11.1165 10.8973 11.1165 11.0044 11.1111 11.1112C11.1111 11.2187 11.1017 11.2825 11.1017 11.2997V12.6917L11.2029 18.453C12.159 17.0069 13.3336 16.2839 14.7266 16.2839C15.9412 16.2839 16.8962 16.7568 17.5917 17.7024C18.2145 18.5246 18.5363 19.5782 18.5571 20.8633C18.5789 23.0983 17.7552 24.9912 16.086 26.5421ZM13.4202 18.1337C11.8631 18.0299 11.1116 19.4671 11.1656 22.4453C11.1656 22.9125 11.1811 23.3204 11.1874 23.6786C11.1936 24.0367 11.2029 24.3699 11.2185 24.6829C11.2341 24.9959 11.2512 25.3057 11.2746 25.6172C11.2979 25.9286 11.3213 26.2556 11.3446 26.595C11.4848 27.4151 11.858 27.8256 12.4642 27.8267C13.4659 27.8267 14.2746 27.0678 14.8901 25.5502C15.3587 24.4352 15.593 23.2358 15.5784 22.0265C15.5348 19.5206 14.8154 18.223 13.4202 18.1337Z" fill="#011B33"/>
<path id="Vector_3" d="M28.2703 26.3864C27.1357 27.8687 25.6824 28.6099 23.9104 28.6099C22.4467 28.6099 21.3049 28.1547 20.4848 27.2444C19.7208 26.3869 19.3253 25.1994 19.2983 23.6817C19.2365 21.8854 19.76 20.1176 20.79 18.6445C21.9401 17.0376 23.4355 16.2341 25.276 16.2341C26.722 16.2341 27.8384 16.7791 28.6253 17.8691C29.3384 18.8324 29.7085 20.0646 29.7355 21.5656C29.7697 23.4206 29.2813 25.0276 28.2703 26.3864ZM26.5917 19.6084C26.0966 17.8436 25.3133 16.9613 24.2421 16.9613C22.5998 16.9613 21.8062 18.5506 21.8613 21.7291C21.8839 22.9928 22.0884 24.2467 22.4685 25.4521C22.9959 27.113 23.7869 27.9435 24.8415 27.9435C26.4121 27.9435 27.172 26.4523 27.1211 23.47C27.1036 22.1659 26.9258 20.869 26.5917 19.6084Z" fill="#011B33"/>
<path id="Vector_4" d="M49.1696 28.5274C48.757 28.4573 48.3365 28.4028 47.9083 28.3717C47.4801 28.3405 47.0317 28.3187 46.5677 28.3187C46.2999 28.3187 45.9365 28.3317 45.4777 28.3576C45.0215 28.3857 44.4827 28.4339 43.8583 28.5134L43.7431 28.0042C44.4002 27.8267 44.8237 27.5412 45.0137 27.1478C45.1507 26.8255 45.213 26.3085 45.2006 25.5907L45.1819 24.5459V24.2781C45.1616 24.1005 45.1492 23.9121 45.1461 23.7159C45.1429 23.5197 45.1383 23.2691 45.1336 23.0184L45.1149 21.9471C45.0952 20.7336 45.0272 19.9125 44.9109 19.4838C44.6431 18.4654 44.1075 17.9562 43.304 17.9562C42.1621 17.9562 41.4962 18.6704 41.3063 20.0988C41.2656 20.3606 41.2432 20.6249 41.2393 20.8898C41.2269 21.2386 41.2175 21.6886 41.2097 22.2429C41.1952 22.4921 41.1905 22.7516 41.1957 23.0215C41.1957 23.2909 41.2051 23.5493 41.2097 23.8C41.2346 25.1765 41.2756 25.9805 41.3327 26.212C41.5258 27.0871 42.009 27.658 42.7824 27.9248L42.6578 28.4604C42.2682 28.3797 41.8732 28.3276 41.476 28.3047C41.0286 28.2788 40.5194 28.2653 39.9485 28.2642C39.0707 28.2606 38.1951 28.3488 37.3357 28.5274L37.2469 28.0462C38.012 27.8313 38.4464 27.126 38.5502 25.9301C38.5642 25.7869 38.5736 25.4879 38.5736 25.0317C38.5736 24.5755 38.5736 23.9417 38.5549 23.1429C38.5424 22.4827 38.5191 21.8973 38.4832 21.4021C38.4474 20.9069 38.4101 20.4678 38.368 20.1175C38.1438 18.5812 37.6663 17.813 36.9355 17.813C36.2742 17.813 35.7438 18.1244 35.3441 18.7472C34.8573 19.5154 34.6336 21.0248 34.673 23.2753C34.6969 24.6507 34.739 25.5331 34.7992 25.9223C34.9819 27.1182 35.4137 27.8147 36.0947 28.012L36.023 28.5196C35.1752 28.3353 34.3106 28.2393 33.4429 28.2331C32.5358 28.2224 31.6303 28.3122 30.7429 28.5009L30.6012 28.0198C31.3798 27.6616 31.8396 26.9111 31.9808 25.7682C31.9964 25.68 31.9891 24.7338 31.959 22.9296C31.9372 21.7151 31.9201 20.7595 31.9076 20.063C31.8952 19.3498 31.8781 18.8936 31.8578 18.6974C31.8267 17.9293 31.7197 17.4289 31.537 17.1964C31.4623 17.0718 31.1665 16.9566 30.6464 16.8491L30.4907 16.7962V16.34C32.326 16.1075 33.6952 15.7592 34.5983 15.2952L34.8599 15.6424C34.8272 15.8931 34.8054 16.1734 34.7945 16.4863C34.7836 16.7993 34.7789 17.1419 34.7851 17.5171C34.7851 17.6962 34.7851 17.8472 34.7851 17.9718C34.7836 18.0714 34.7946 18.1708 34.8178 18.2677C35.8248 16.7106 37.0341 15.932 38.4459 15.932C39.6791 15.932 40.5858 16.7178 41.1661 18.2895C42.2353 16.7946 43.5106 16.0467 44.9919 16.0457C46.8833 16.0457 47.8518 17.3137 47.8974 19.8497C47.8974 19.9914 47.8975 20.1611 47.9068 20.3573C47.9161 20.5535 47.9068 20.7325 47.8897 20.9474L47.843 22.8767C47.8284 23.0905 47.8237 23.3225 47.8289 23.5727C47.8289 23.8234 47.8383 24.099 47.843 24.4026C47.8689 25.8684 47.9556 26.7435 48.103 27.0279C48.3241 27.4203 48.7227 27.7416 49.2988 27.9917L49.1696 28.5274Z" fill="#011B33"/>
<path id="Vector_5" d="M73.1567 28.4978C72.1974 28.2886 71.2189 28.1811 70.2371 28.177C69.7362 28.178 69.2358 28.2045 68.7376 28.2564C68.1967 28.3144 67.6596 28.4038 67.1291 28.5243L67.0233 28.0696C67.915 27.6056 68.3613 26.9827 68.3624 26.2011C68.3624 25.5575 68.0852 24.3159 67.5309 22.4765C66.7101 22.206 65.8508 22.0703 64.9866 22.0748C63.825 22.0748 62.9675 22.2715 62.4143 22.6649C61.9584 23.7233 61.713 24.8604 61.6918 26.0127C61.6918 27.0507 62.2108 27.7115 63.2489 27.9948L63.1149 28.5305C62.427 28.3913 61.7272 28.3198 61.0253 28.3172C60.4043 28.313 59.7847 28.3757 59.1771 28.504L59.0961 28.1288C59.6847 27.5402 60.2115 26.6386 60.6765 25.4241C61.016 24.5666 61.3196 23.7362 61.5874 22.9327C61.8553 22.1293 62.0966 21.3507 62.3115 20.5971L64.1566 14.2722C64.2267 14.0946 64.3606 13.6384 64.5584 12.9066C64.5147 12.7438 64.4514 12.587 64.37 12.4395C64.2812 12.2697 64.1644 12.0689 64.0227 11.8369L64.1286 11.5426C65.3982 11.1678 66.3631 10.6488 67.0233 9.98547L67.2911 10.1194C67.3804 10.5834 67.4842 11.0921 67.6025 11.6453C67.7208 12.1986 67.8682 12.7971 68.0447 13.4407C68.135 13.7272 68.2689 14.2083 68.4464 14.8872C68.624 15.5661 68.8669 16.4443 69.1705 17.5125C70.2605 21.5672 71.1428 24.4068 71.8176 26.0313C72.2473 27.086 72.7295 27.7649 73.2641 28.068L73.1567 28.4978ZM65.9862 17.0858C65.7885 16.4256 65.611 15.8495 65.449 15.3575C65.2871 14.8654 65.1376 14.4434 64.9944 14.0853L62.6587 21.7151C63.4496 21.4344 64.2845 21.2983 65.1236 21.3133C65.3727 21.3133 65.6764 21.3315 66.0345 21.3678C66.3926 21.4042 66.7944 21.4561 67.2397 21.5236L65.9862 17.0858Z" fill="#011B33"/>
<path id="Vector_6" d="M78.9444 28.5243L78.703 28.5788C78.6127 28.5601 78.457 28.5383 78.2359 28.5118C78.0148 28.4853 77.7127 28.4449 77.3375 28.3904C76.6586 28.2845 76.2926 28.2346 76.2397 28.2346C75.4076 28.2163 74.577 28.3137 73.7717 28.5243L73.616 27.9622C73.9332 27.8397 74.2133 27.6372 74.4291 27.3745C74.6449 27.1117 74.7891 26.7976 74.8477 26.4627C74.9027 26.2301 74.9297 25.5424 74.9286 24.3995V23.8374C74.9286 23.6054 74.938 23.3376 74.9551 23.0324C74.9722 22.7272 74.9816 22.4625 74.9816 22.2289V21.6668C74.9816 22.5772 75.0086 21.9876 75.0625 19.898C75.1155 17.9339 74.6779 16.8896 73.7499 16.7651V16.3353C74.4695 16.2695 75.1841 16.1577 75.8894 16.0005C76.5566 15.8532 77.2106 15.6517 77.8451 15.398L78.1129 15.7203C78.0771 16.0052 78.0459 16.4988 78.0195 17.1793C77.993 17.8597 77.9619 18.7644 77.926 19.8715C77.9074 20.1829 77.8996 20.5333 77.8996 20.9428V26.0064C78.0241 27.0445 78.4435 27.6964 79.1577 27.9622L78.9444 28.5243ZM77.4978 13.9109C77.1224 14.1762 76.6712 14.3127 76.2117 14.3002C75.796 14.3108 75.3892 14.1783 75.0594 13.9249C74.9075 13.8145 74.7844 13.6691 74.7004 13.5011C74.6164 13.3331 74.574 13.1474 74.5767 12.9595C74.5787 12.7458 74.6374 12.5365 74.7469 12.3529C74.8563 12.1693 75.0125 12.0181 75.1996 11.9147C75.5561 11.6779 75.9769 11.5567 76.4048 11.5675C76.8182 11.5571 77.2235 11.6841 77.557 11.9287C77.7092 12.0357 77.8327 12.1784 77.9169 12.3443C78.0011 12.5102 78.0432 12.6942 78.0397 12.8801C78.0431 13.0836 77.9953 13.2847 77.9006 13.4648C77.8059 13.6449 77.6674 13.7984 77.4978 13.9109Z" fill="#011B33"/>
<path id="Vector_7" d="M88.9767 19.1085C88.831 19.2627 88.6542 19.3841 88.4579 19.4646C88.2617 19.5451 88.0505 19.583 87.8385 19.5756C87.3371 19.5756 86.9619 19.2123 86.7127 18.4857C86.5695 18.1109 86.3375 17.923 86.0167 17.922C84.9984 17.922 84.3755 18.5651 84.1482 19.8512C83.9297 21.1704 83.8312 22.5067 83.8539 23.8436C83.8539 25.1661 83.8809 25.9696 83.9349 26.254C84.0947 27.1644 84.5229 27.7717 85.2195 28.0758L84.9797 28.5305C84.1454 28.3307 83.2916 28.2231 82.4338 28.2097C81.5762 28.2188 80.7225 28.3265 79.8895 28.5305V27.9948C80.4418 27.7634 80.8165 27.3082 81.0138 26.6293C81.1176 26.2369 81.1695 25.614 81.1695 24.7608V20.3542C81.1695 20.158 81.1695 19.887 81.1554 19.5242C81.1414 19.1614 81.1321 18.7379 81.115 18.2381C81.0978 17.827 81.0028 17.5327 80.8331 17.3537C80.6634 17.1746 80.3473 17.0235 79.8833 16.8974V16.421C80.5768 16.3524 81.2653 16.2405 81.9449 16.0862C82.6018 15.9358 83.2463 15.7354 83.8726 15.4867L84.1669 15.8339C84.1669 15.9056 84.1669 16.013 84.1544 16.1562C84.142 16.2995 84.1311 16.4957 84.1139 16.7448C84.0968 16.994 84.0875 17.1746 84.0875 17.335V18.2459C84.9625 16.8528 86.0525 16.1562 87.3574 16.1562C87.8898 16.1374 88.4117 16.3079 88.8304 16.6374C89.0238 16.7954 89.1778 16.9963 89.2803 17.2241C89.3827 17.4519 89.4307 17.7004 89.4205 17.95C89.4304 18.3795 89.271 18.7955 88.9767 19.1085Z" fill="#011B33"/>
<path id="Vector_8" d="M45.7985 9.56976C45.6724 9.59312 53.6151 12.6123 54.3454 21.1452V14.8779C54.2815 14.8234 51.158 9.18205 45.7985 9.56976Z" fill="#011B33"/>
<path id="Vector_9" d="M62.8923 9.56976C63.0169 9.59312 55.0757 12.6123 54.3454 21.1452V14.8779C54.4092 14.8234 57.5312 9.18205 62.8923 9.56976Z" fill="#011B33"/>
<path id="Vector_10" d="M61.3554 0.868695C61.6513 0.949664 55.7063 1.98358 54.3485 5.9931V3.80849C54.4108 3.71195 56.6935 0.579075 61.3554 0.868695Z" fill="#011B33"/>
<path id="Vector_11" d="M47.3338 0.868695C47.0395 0.949664 52.9829 1.98358 54.3407 5.9931V3.80849C54.28 3.71195 51.9973 0.579075 47.3338 0.868695Z" fill="#011B33"/>
<path id="Vector_12" d="M62.1713 5.69572C62.5015 5.78915 55.8651 6.98811 54.3454 11.6392V8.71337C54.5213 8.63552 57.3366 5.47773 62.1713 5.69572Z" fill="#011B33"/>
<path id="Vector_13" d="M46.5225 5.69572C46.1924 5.78915 52.8272 6.98811 54.3485 11.6392V8.71337C54.1694 8.63552 51.3495 5.47773 46.5225 5.69572Z" fill="#011B33"/>
</g>
</g>
</g>
<defs>
<clipPath id="clip0_16_1856">
<rect width="89.2979" height="27.98" fill="white" transform="translate(0.12109 0.859863)"/>
</clipPath>
</defs>
</svg>
