<svg width="20" height="21" viewBox="0 0 20 21" fill="none" xmlns="http://www.w3.org/2000/svg">
<g id="Frame">
<g id="Clip path group">
<mask id="mask0_16_2153" style="mask-type:luminance" maskUnits="userSpaceOnUse" x="0" y="0" width="20" height="21">
<g id="clip0">
<path id="Vector" d="M20 0.309814H0V20.3098H20V0.309814Z" fill="white"/>
</g>
</mask>
<g mask="url(#mask0_16_2153)">
<g id="Group">
<path id="Vector_2" d="M20 0.309814H0V20.3098H20V0.309814Z" fill="white"/>
<path id="Vector_3" d="M14.0419 0.309814H5.95811C2.67279 0.309814 0 2.9826 0 6.26792V14.3517C0 17.637 2.67279 20.3098 5.95811 20.3098H14.0419C17.3272 20.3098 20 17.637 20 14.3517V6.26792C20 2.9826 17.3272 0.309814 14.0419 0.309814ZM17.988 14.3517C17.988 16.531 16.2212 18.2978 14.0419 18.2978H5.95811C3.77875 18.2978 2.012 16.531 2.012 14.3517V6.26792C2.012 4.08852 3.77875 2.32181 5.95811 2.32181H14.0419C16.2212 2.32181 17.988 4.08852 17.988 6.26792V14.3517Z" fill="#3D5E69"/>
<path id="Vector_4" d="M10.0007 5.13794C7.14847 5.13794 4.828 7.45841 4.828 10.3106C4.828 13.1628 7.14847 15.4833 10.0007 15.4833C12.853 15.4833 15.1734 13.1628 15.1734 10.3106C15.1734 7.45838 12.853 5.13794 10.0007 5.13794ZM10.0007 13.4714C8.25508 13.4714 6.84 12.0563 6.84 10.3106C6.84 8.56502 8.25512 7.14994 10.0007 7.14994C11.7463 7.14994 13.1614 8.56502 13.1614 10.3106C13.1614 12.0562 11.7463 13.4714 10.0007 13.4714Z" fill="#3D5E69"/>
<path id="Vector_5" d="M15.1827 6.41575C15.8672 6.41575 16.4222 5.86081 16.4222 5.17626C16.4222 4.49171 15.8672 3.93677 15.1827 3.93677C14.4981 3.93677 13.9432 4.49171 13.9432 5.17626C13.9432 5.86081 14.4981 6.41575 15.1827 6.41575Z" fill="#3D5E69"/>
</g>
</g>
</g>
</g>
</svg>
