<svg width="100" height="29" viewBox="0 0 100 29" fill="none" xmlns="http://www.w3.org/2000/svg">
<g id="IrokoTV-Plain.svg" clip-path="url(#clip0_16_1978)">
<path id="Vector" d="M50.4598 25.6789V4.45059H54.4088V14.0701L62.5439 4.4209H66.7892L58.001 14.5748L67.2349 25.6789H62.5734L54.4088 15.7625V25.6789H50.4598Z" fill="#011B33"/>
<path id="Vector_2" d="M77.7151 4.42133C77.68 4.42104 77.6449 4.4209 77.6098 4.4209C71.3723 4.4209 66.8335 8.86725 66.8335 15.0736C66.8335 21.28 71.3723 25.7264 77.6098 25.7264C83.1916 25.7264 87.4247 22.1297 88.2204 16.8907H83.6515C83.0029 19.7925 80.7797 21.8358 77.6098 21.8358C73.7812 21.8358 71.3418 18.9025 71.3418 15.0736C71.3418 11.2139 73.7812 8.31147 77.6098 8.31147C77.6449 8.31147 77.68 8.31172 77.7151 8.31223V4.42133Z" fill="#011B33"/>
<path id="Vector_3" fill-rule="evenodd" clip-rule="evenodd" d="M37.0516 25.7264C43.258 25.7264 47.797 21.28 47.797 15.0736C47.797 8.86725 43.258 4.4209 37.0516 4.4209C30.8144 4.4209 26.2754 8.86725 26.2754 15.0736C26.2754 21.28 30.8144 25.7264 37.0516 25.7264ZM37.0516 21.8358C33.2228 21.8358 30.7835 18.9025 30.7835 15.0736C30.7835 11.2139 33.2228 8.31147 37.0516 8.31147C40.8496 8.31147 43.2889 11.2139 43.2889 15.0736C43.2889 18.9025 40.8496 21.8358 37.0516 21.8358Z" fill="#011B33"/>
<path id="Vector_4" d="M4.56871 4.76062V25.3559H0.184097V4.76062H4.56871Z" fill="#011B33"/>
<path id="Vector_5" fill-rule="evenodd" clip-rule="evenodd" d="M20.082 17.513L24.7445 25.3559H19.6806L15.6357 18.038H12.4244V25.3559H8.03976V4.76062H17.6736C21.9655 4.76062 24.621 7.57047 24.621 11.3993C24.621 15.0119 22.3052 16.9881 20.082 17.513ZM12.4244 14.1782H17.056C18.7852 14.1782 20.1129 13.1284 20.1129 11.3684C20.1129 9.67016 18.7852 8.62031 17.056 8.62031H12.4244V14.1782Z" fill="#011B33"/>
<path id="Vector_6" d="M84.5535 15.5714V6.51058H87.7966V4.4209H78.903V6.51058H82.1624V15.5714H84.5535Z" fill="#011B33"/>
<path id="Vector_7" d="M93.9156 15.5714L98.2118 4.4209H95.5206L92.4275 12.9802L89.335 4.4209H86.6433L90.94 15.5714H93.9156Z" fill="#011B33"/>
</g>
<defs>
<clipPath id="clip0_16_1978">
<rect width="98.7529" height="27.98" fill="white" transform="translate(0.408535 0.859863)"/>
</clipPath>
</defs>
</svg>
