<svg width="127" height="29" viewBox="0 0 127 29" fill="none" xmlns="http://www.w3.org/2000/svg">
<g id="kuda-Stack-Blue_200304_154345.svg" clip-path="url(#clip0_16_1873)">
<g id="Layer 2">
<g id="Layer 1">
<path id="Vector" d="M74.9673 9.52997V28.5402H69.4561V25.7657C68.8931 26.7298 68.0762 27.5206 67.0944 28.052C66.078 28.5877 64.9429 28.8587 63.7941 28.8398C61.4192 28.8398 59.6444 28.1776 58.4695 26.8533C57.2946 25.5289 56.7072 23.5291 56.7072 20.8539V9.52997H62.3616V20.9651C62.3667 23.2683 63.3562 24.42 65.3302 24.42C66.5051 24.42 67.455 24.0198 68.1801 23.2193C68.9051 22.4189 69.2676 21.3691 69.2676 20.0698V9.52997H74.9673Z" fill="#051C32"/>
<path id="Vector_2" d="M96.586 0.859863V28.5402H90.9994V25.728C90.421 26.7064 89.5756 27.4995 88.5624 28.0143C87.4604 28.577 86.2372 28.8605 85.0001 28.8399C83.458 28.8638 81.9439 28.4267 80.6518 27.5846C79.3472 26.7124 78.314 25.4911 77.67 24.06C76.9576 22.5521 76.6013 20.8206 76.6013 18.8654C76.6013 16.9103 76.9576 15.192 77.67 13.7105C78.3126 12.3044 79.3398 11.1086 80.633 10.2613C81.9379 9.43616 83.4564 9.01215 85.0001 9.04182C86.2103 9.02694 87.4063 9.30364 88.487 9.84852C89.4937 10.3474 90.3387 11.1211 90.924 12.0801V0.859863H96.586ZM89.8742 23.0837C90.6281 22.1224 91.0051 20.7402 91.0051 18.9371C91.0051 17.1628 90.6237 15.7945 89.861 14.832C89.0983 13.8694 88.0302 13.3882 86.6568 13.3882C85.257 13.3882 84.1695 13.8632 83.3942 14.8131C82.6189 15.7631 82.2313 17.1126 82.2313 18.8617C82.2313 20.661 82.6189 22.0546 83.3942 23.0422C84.1695 24.0298 85.257 24.5236 86.6568 24.5236C88.0516 24.5262 89.124 24.0462 89.8742 23.0837Z" fill="#051C32"/>
<path id="Vector_3" d="M118.205 9.52999V28.5402H112.618V25.728C112.042 26.7054 111.199 27.4984 110.189 28.0143C109.087 28.577 107.863 28.8605 106.626 28.8399C105.085 28.8704 103.568 28.4533 102.259 27.6392C100.964 26.8026 99.9357 25.6121 99.2964 24.2089C98.5789 22.7161 98.2201 20.9978 98.2201 19.0539C98.2201 17.1101 98.5763 15.3729 99.2888 13.8424C99.9286 12.4031 100.963 11.1746 102.272 10.299C103.564 9.45629 105.078 9.01853 106.621 9.04183C107.864 9.02129 109.093 9.3191 110.189 9.90696C111.199 10.4437 112.042 11.2476 112.626 12.2309V9.52999H118.205ZM111.493 23.1006C112.247 22.1507 112.624 20.776 112.624 18.9767C112.624 17.1773 112.247 15.7951 111.493 14.8301C110.739 13.8688 109.664 13.3876 108.268 13.3863C106.872 13.3851 105.785 13.8877 105.007 14.8942C104.233 15.8994 103.846 17.2866 103.844 19.0558C103.843 20.825 104.224 22.1808 104.988 23.1232C105.75 24.0619 106.843 24.5306 108.268 24.5293C109.674 24.5281 110.749 24.0518 111.493 23.1006Z" fill="#051C32"/>
<path id="Vector_4" d="M55.5594 28.8078H48.5347L40.9785 20.1886V28.8078H35.2449V0.859863H40.9785V17.8345L48.1935 9.59407H55.0655L46.9024 18.8296L55.5594 28.8078Z" fill="#051C32"/>
<path id="Vector_5" d="M19.535 28.8172L8.53146 16.1532L14.5421 28.8172H10.3767L4.24729 15.9063L6.79555 28.8172H4.23598L1.68583 15.8856V28.8172H0.681229V0.859863H1.68583V14.8093L4.27179 0.859863H6.82194L4.22656 14.8697L10.4747 0.859863H14.5949L8.37125 14.8169L19.6726 0.859863H26.1299L14.4385 15.2994L26.1846 28.8172H19.535Z" fill="#051C32"/>
<path id="Vector_6" d="M122.954 28.5101C124.669 28.5101 126.059 27.1202 126.059 25.4058C126.059 23.6913 124.669 22.3015 122.954 22.3015C121.24 22.3015 119.85 23.6913 119.85 25.4058C119.85 27.1202 121.24 28.5101 122.954 28.5101Z" fill="#051C32"/>
</g>
</g>
</g>
<defs>
<clipPath id="clip0_16_1873">
<rect width="125.284" height="27.98" fill="white" transform="translate(0.72821 0.859863)"/>
</clipPath>
</defs>
</svg>
