<svg width="110" height="29" viewBox="0 0 110 29" fill="none" xmlns="http://www.w3.org/2000/svg">
<g id="Lagos-Internal-Revenue-Service.svg" clip-path="url(#clip0_16_1918)">
<path id="Vector" d="M0.617828 12.1709H7.09014V10.3563H2.93243V1.9552H0.617828V12.1709ZM10.1559 12.328C11.3274 12.328 11.9847 11.8708 12.4133 11.2708V12.1709H14.4279V7.29879C14.4279 5.26994 13.1277 4.52698 11.2989 4.52698C9.47005 4.52698 8.06986 5.3128 7.94127 7.08447H9.89868C9.9844 6.44153 10.3559 6.02718 11.1703 6.02718C12.1133 6.02718 12.3847 6.51296 12.3847 7.3988V7.69884H11.5418C9.25573 7.69884 7.65551 8.35607 7.65551 10.0992C7.65551 11.6708 8.79853 12.328 10.1559 12.328ZM10.7702 10.885C10.013 10.885 9.68436 10.5278 9.68436 9.98486C9.68436 9.18476 10.3845 8.92758 11.5846 8.92758H12.3847V9.55624C12.3847 10.3849 11.6846 10.885 10.7702 10.885ZM19.235 14.9284C21.6925 14.9284 23.1641 13.7997 23.1784 11.5851V4.69843H21.121V5.81287C20.6923 5.05562 19.9637 4.52698 18.7492 4.52698C16.8918 4.52698 15.4631 6.02718 15.4631 8.17033V8.27035C15.4631 10.4849 16.9061 11.8423 18.7206 11.8423C19.8208 11.8423 20.7066 11.185 21.121 10.4564V11.5851C21.121 12.7567 20.4923 13.4139 19.235 13.4139C18.1777 13.4139 17.7062 12.9853 17.5776 12.328H15.5202C15.7202 13.8711 16.8204 14.9284 19.235 14.9284ZM19.335 10.2849C18.3063 10.2849 17.5776 9.51337 17.5776 8.27035V8.15604C17.5776 6.92731 18.2206 6.09862 19.3779 6.09862C20.5066 6.09862 21.1781 6.87016 21.1781 8.14176V8.24177C21.1781 9.51337 20.4209 10.2849 19.335 10.2849ZM28.204 10.7564C27.0324 10.7564 26.3751 9.89914 26.3751 8.47037V8.35607C26.3751 6.92731 27.061 6.09862 28.204 6.09862C29.3613 6.09862 30.0328 6.95588 30.0328 8.38465V8.48466C30.0328 9.89914 29.3613 10.7564 28.204 10.7564ZM28.1897 12.328C30.4328 12.328 32.1331 10.8278 32.1331 8.47037V8.35607C32.1331 6.02718 30.4471 4.52698 28.204 4.52698C25.9608 4.52698 24.2606 6.05576 24.2606 8.39893V8.51324C24.2606 10.8421 25.9608 12.328 28.1897 12.328ZM35.9509 12.328C37.9226 12.328 39.0941 11.4851 39.0941 9.87056C39.0941 8.27035 38.0654 7.79885 36.1937 7.52739C35.1079 7.37022 34.7507 7.18448 34.7507 6.71299C34.7507 6.25579 35.1365 5.94146 35.808 5.94146C36.5224 5.94146 36.8653 6.22721 36.9796 6.84158H38.8798C38.6941 5.12706 37.4511 4.52698 35.7937 4.52698C34.2649 4.52698 32.8361 5.29851 32.8361 6.85587C32.8361 8.31321 33.6077 8.88472 35.5937 9.18476C36.6652 9.34192 37.1082 9.55624 37.1082 10.0706C37.1082 10.5849 36.7367 10.885 35.9366 10.885C35.0364 10.885 34.7078 10.4992 34.6221 9.8277H32.6933C32.7647 11.4422 33.9363 12.328 35.9509 12.328ZM43.2466 12.1709H45.5755V1.9552H43.2466V12.1709ZM47.3643 12.1709H49.436V7.856C49.436 6.75585 50.1075 6.21292 50.9933 6.21292C51.9077 6.21292 52.3078 6.6987 52.3078 7.71313V12.1709H54.3795V7.41309C54.3795 5.41281 53.3365 4.52698 51.8649 4.52698C50.6218 4.52698 49.8074 5.14135 49.436 5.88431V4.69843H47.3643V12.1709ZM58.5977 12.3138C59.155 12.3138 59.5693 12.2137 59.8551 12.1137V10.5135C59.6122 10.6135 59.3836 10.6564 59.0692 10.6564C58.5405 10.6564 58.2405 10.3706 58.2405 9.77055V6.17006H59.8122V4.69843H58.2405V3.08393H56.1831V4.69843H55.2258V6.17006H56.1831V9.95629C56.1831 11.5136 57.026 12.3138 58.5977 12.3138ZM64.4122 12.328C66.4554 12.328 67.7413 11.4279 67.9841 9.81341H66.0267C65.8981 10.4421 65.4267 10.8564 64.4694 10.8564C63.3407 10.8564 62.6691 10.142 62.612 8.899H67.9984V8.3275C67.9984 5.6557 66.2839 4.52698 64.3551 4.52698C62.1834 4.52698 60.5117 6.05576 60.5117 8.41322V8.52752C60.5117 10.9136 62.1548 12.328 64.4122 12.328ZM62.6406 7.6274C62.7977 6.57011 63.4264 5.95575 64.3551 5.95575C65.3409 5.95575 65.9124 6.49868 65.9839 7.6274H62.6406ZM69.0688 12.1709H71.1405V8.42751C71.1405 6.99874 72.0264 6.49868 73.5551 6.51296V4.58413C72.3407 4.59842 71.612 5.12706 71.1405 6.1272V4.69843H69.0688V12.1709ZM74.6291 12.1709H76.7008V7.856C76.7008 6.75585 77.3723 6.21292 78.2582 6.21292C79.1726 6.21292 79.5726 6.6987 79.5726 7.71313V12.1709H81.6443V7.41309C81.6443 5.41281 80.6013 4.52698 79.1297 4.52698C77.8867 4.52698 77.0723 5.14135 76.7008 5.88431V4.69843H74.6291V12.1709ZM85.1484 12.328C86.32 12.328 86.9772 11.8708 87.4058 11.2708V12.1709H89.4204V7.29879C89.4204 5.26994 88.1202 4.52698 86.2914 4.52698C84.4626 4.52698 83.0624 5.3128 82.9338 7.08447H84.8912C84.9769 6.44153 85.3484 6.02718 86.1628 6.02718C87.1058 6.02718 87.3773 6.51296 87.3773 7.3988V7.69884H86.5343C84.2483 7.69884 82.648 8.35607 82.648 10.0992C82.648 11.6708 83.7911 12.328 85.1484 12.328ZM85.7627 10.885C85.0055 10.885 84.6769 10.5278 84.6769 9.98486C84.6769 9.18476 85.377 8.92758 86.5771 8.92758H87.3773V9.55624C87.3773 10.3849 86.6772 10.885 85.7627 10.885ZM90.97 12.1709H93.0274V1.31226H90.97V12.1709ZM0.617828 28.2445H2.91814V24.3011H3.91828L6.36147 28.2445H8.81894L6.11858 23.901C7.31874 23.5439 8.21886 22.7295 8.21886 21.1864V21.1292C8.21886 19.0147 6.69008 18.0288 4.27547 18.0288H0.617828V28.2445ZM2.91814 22.7295V19.8005H4.21832C5.33276 19.8005 5.96141 20.1577 5.96141 21.2007V21.2578C5.96141 22.2437 5.37562 22.7295 4.21832 22.7295H2.91814ZM12.9102 28.4017C14.9533 28.4017 16.2392 27.5015 16.4821 25.887H14.5247C14.3961 26.5157 13.9246 26.93 12.9673 26.93C11.8386 26.93 11.1671 26.2156 11.1099 24.9726H16.4964V24.4011C16.4964 21.7293 14.7818 20.6006 12.853 20.6006C10.6813 20.6006 9.00963 22.1294 9.00963 24.4868V24.6011C9.00963 26.9872 10.6527 28.4017 12.9102 28.4017ZM11.1385 23.701C11.2957 22.6437 11.9243 22.0294 12.853 22.0294C13.8389 22.0294 14.4104 22.5723 14.4818 23.701H11.1385ZM19.3719 28.2445H21.7008L24.4155 20.7721H22.4152L20.6435 26.1156L18.8576 20.7721H16.643L19.3719 28.2445ZM28.3285 28.4017C30.3716 28.4017 31.6575 27.5015 31.9004 25.887H29.943C29.8144 26.5157 29.3429 26.93 28.3857 26.93C27.2569 26.93 26.5854 26.2156 26.5283 24.9726H31.9147V24.4011C31.9147 21.7293 30.2002 20.6006 28.2714 20.6006C26.0996 20.6006 24.428 22.1294 24.428 24.4868V24.6011C24.428 26.9872 26.0711 28.4017 28.3285 28.4017ZM26.5568 23.701C26.714 22.6437 27.3427 22.0294 28.2714 22.0294C29.2572 22.0294 29.8287 22.5723 29.9001 23.701H26.5568ZM32.9851 28.2445H35.0568V23.9296C35.0568 22.8295 35.7283 22.2865 36.6142 22.2865C37.5286 22.2865 37.9286 22.7723 37.9286 23.7867V28.2445H40.0003V23.4867C40.0003 21.4864 38.9573 20.6006 37.4857 20.6006C36.2427 20.6006 35.4283 21.215 35.0568 21.9579V20.7721H32.9851V28.2445ZM43.9756 28.4017C45.2044 28.4017 45.9616 27.8302 46.3474 27.0729V28.2445H48.4048V20.7721H46.3474V25.1584C46.3474 26.2585 45.6616 26.8014 44.79 26.8014C43.9042 26.8014 43.4899 26.3157 43.4899 25.3012V20.7721H41.4324V25.587C41.4324 27.5444 42.5183 28.4017 43.9756 28.4017ZM53.3956 28.4017C55.4387 28.4017 56.7246 27.5015 56.9675 25.887H55.0101C54.8815 26.5157 54.41 26.93 53.4527 26.93C52.324 26.93 51.6525 26.2156 51.5953 24.9726H56.9818V24.4011C56.9818 21.7293 55.2672 20.6006 53.3384 20.6006C51.1667 20.6006 49.495 22.1294 49.495 24.4868V24.6011C49.495 26.9872 51.1381 28.4017 53.3956 28.4017ZM51.6239 23.701C51.781 22.6437 52.4097 22.0294 53.3384 22.0294C54.3242 22.0294 54.8958 22.5723 54.9672 23.701H51.6239ZM64.6914 28.4017C67.106 28.4017 68.592 26.9586 68.592 25.1441C68.592 23.0295 67.3204 22.358 64.8486 22.0437C63.277 21.815 62.9483 21.4721 62.9483 20.7435C62.9483 20.0577 63.4627 19.5862 64.4771 19.5862C65.4915 19.5862 66.0345 20.0148 66.1774 20.9435H68.3062C68.1205 18.9147 66.7774 17.8859 64.4771 17.8859C62.2197 17.8859 60.7623 19.1861 60.7623 20.9292C60.7623 22.9009 61.8339 23.6867 64.4485 24.0296C65.9487 24.2582 66.3774 24.544 66.3774 25.3584C66.3774 26.1585 65.7059 26.7157 64.6914 26.7157C63.1769 26.7157 62.7912 25.9585 62.6912 25.0441H60.4766C60.6052 27.0872 61.8911 28.4017 64.6914 28.4017ZM73.2301 28.4017C75.2732 28.4017 76.5591 27.5015 76.802 25.887H74.8446C74.716 26.5157 74.2445 26.93 73.2872 26.93C72.1585 26.93 71.487 26.2156 71.4298 24.9726H76.8163V24.4011C76.8163 21.7293 75.1018 20.6006 73.1729 20.6006C71.0012 20.6006 69.3296 22.1294 69.3296 24.4868V24.6011C69.3296 26.9872 70.9726 28.4017 73.2301 28.4017ZM71.4584 23.701C71.6156 22.6437 72.2442 22.0294 73.1729 22.0294C74.1588 22.0294 74.7303 22.5723 74.8017 23.701H71.4584ZM77.8867 28.2445H79.9584V24.5011C79.9584 23.0724 80.8442 22.5723 82.373 22.5866V20.6577C81.1585 20.672 80.4299 21.2007 79.9584 22.2008V20.7721H77.8867V28.2445ZM85.5318 28.2445H87.8606L90.5753 20.7721H88.575L86.8034 26.1156L85.0174 20.7721H82.8028L85.5318 28.2445ZM91.4647 28.2445H93.5221V20.7721H91.4647V28.2445ZM92.4791 19.7576C93.1507 19.7576 93.665 19.2718 93.665 18.6289C93.665 17.986 93.1507 17.5002 92.4791 17.5002C91.8219 17.5002 91.3076 17.986 91.3076 18.6289C91.3076 19.2718 91.8219 19.7576 92.4791 19.7576ZM98.5264 28.4017C100.698 28.4017 101.984 27.1729 102.098 25.4013H100.227C100.127 26.3585 99.4551 26.8443 98.6264 26.8443C97.4691 26.8443 96.7976 26.0728 96.7976 24.5726V24.4583C96.7976 23.0295 97.512 22.2294 98.5835 22.2294C99.4265 22.2294 99.9552 22.6294 100.098 23.501H102.055C101.87 21.3578 100.269 20.6006 98.5407 20.6006C96.4118 20.6006 94.683 22.0722 94.683 24.4868V24.6011C94.683 27.0443 96.3404 28.4017 98.5264 28.4017ZM106.558 28.4017C108.601 28.4017 109.887 27.5015 110.13 25.887H108.172C108.044 26.5157 107.572 26.93 106.615 26.93C105.486 26.93 104.815 26.2156 104.758 24.9726H110.144V24.4011C110.144 21.7293 108.43 20.6006 106.501 20.6006C104.329 20.6006 102.657 22.1294 102.657 24.4868V24.6011C102.657 26.9872 104.3 28.4017 106.558 28.4017ZM104.786 23.701C104.943 22.6437 105.572 22.0294 106.501 22.0294C107.487 22.0294 108.058 22.5723 108.129 23.701H104.786Z" fill="#011B33"/>
</g>
<defs>
<clipPath id="clip0_16_1918">
<rect width="109.013" height="27.98" fill="white" transform="translate(0.673523 0.859863)"/>
</clipPath>
</defs>
</svg>
