<svg width="69" height="29" viewBox="0 0 69 29" fill="none" xmlns="http://www.w3.org/2000/svg">
<g id="MTN-Plain.svg" clip-path="url(#clip0_16_1236)">
<path id="Vector" d="M34.2978 28.6699C53.0586 28.6699 68.2657 22.4051 68.2657 14.6822C68.2657 6.95478 53.0586 0.689941 34.2978 0.689941C15.537 0.689941 0.325256 6.95478 0.325256 14.6822C0.325256 22.4051 15.537 28.6699 34.2978 28.6699Z" fill="#011B33"/>
<path id="Vector_2" d="M42.798 11.2307L43.6876 7.68604H32.0902L31.2053 11.2307H35.0012L33.1382 18.6787H37.1344L38.9974 11.2307H42.798Z" fill="white"/>
<path id="Vector_3" d="M31.0933 7.68604H25.3086L21.6245 15.8327V7.68604H16.0214L12.5142 21.6737H16.366L18.6483 12.6467V21.6737H21.6245L26.0073 12.6467L23.9067 21.6737H27.5862L31.0933 7.68604Z" fill="white"/>
<path id="Vector_4" d="M56.0769 7.68604H52.3974L50.4738 15.1294L48.7178 7.68604H44.6843L41.1818 21.6737H44.866L46.7896 14.0627L48.7178 21.6737H52.5744L56.0769 7.68604Z" fill="white"/>
<path id="Vector_5" d="M32.8866 19.6755L32.3836 21.6738H36.3845L36.8829 19.6755H32.8866Z" fill="white"/>
</g>
<defs>
<clipPath id="clip0_16_1236">
<rect width="68.1695" height="27.98" fill="white" transform="translate(0.325256 0.689941)"/>
</clipPath>
</defs>
</svg>
