<svg width="148" height="29" viewBox="0 0 148 29" fill="none" xmlns="http://www.w3.org/2000/svg">
<g id="Piggyvest-Stack-Blue_200304_153734.svg" clip-path="url(#clip0_16_1842)">
<g id="Layer 2">
<g id="Layer 1">
<path id="Vector" d="M39.9551 23.5506V28.8399H36.6377V11.621H39.9551V12.4448C40.943 11.8024 42.094 11.4559 43.2724 11.4459C47.0395 11.4459 49.8094 14.4408 49.8094 18.0087C49.8094 21.5767 47.0653 24.5716 43.2724 24.5716C42.089 24.5735 40.9326 24.2176 39.9551 23.5506ZM39.9551 16.4385V19.4831C40.2168 20.0403 40.6234 20.5169 41.1325 20.8629C41.6416 21.209 42.2343 21.4119 42.8487 21.4502C43.4631 21.4886 44.0765 21.3611 44.6247 21.0811C45.1729 20.8011 45.6357 20.3789 45.9647 19.8586C46.2937 19.3383 46.4768 18.7392 46.4948 18.1239C46.5128 17.5086 46.3651 16.8997 46.067 16.3611C45.769 15.8225 45.3316 15.3739 44.8008 15.0624C44.2699 14.7508 43.665 14.5876 43.0494 14.59C42.413 14.5811 41.7866 14.7492 41.2402 15.0756C40.6938 15.402 40.2488 15.8739 39.9551 16.4385Z" fill="#011B33"/>
<path id="Vector_2" d="M51.6063 8.15066C51.5955 7.89955 51.6361 7.64887 51.7257 7.41405C51.8154 7.17922 51.9521 6.96521 52.1274 6.78517C52.3028 6.60512 52.5132 6.46286 52.7456 6.36712C52.978 6.27138 53.2275 6.22418 53.4788 6.22844C53.7336 6.22402 53.9867 6.27054 54.2232 6.36527C54.4598 6.46001 54.675 6.60104 54.8563 6.7801C55.0376 6.95916 55.1813 7.17264 55.2789 7.408C55.3766 7.64335 55.4262 7.89585 55.425 8.15066C55.4196 8.66313 55.2122 9.15276 54.8477 9.51307C54.4833 9.87338 53.9913 10.0752 53.4788 10.0747C53.2289 10.0736 52.9817 10.0226 52.7516 9.92487C52.5216 9.82712 52.3133 9.68452 52.139 9.5054C51.9647 9.32628 51.8278 9.11423 51.7364 8.88163C51.6449 8.64903 51.6007 8.40053 51.6063 8.15066ZM51.8072 11.621H55.1762V24.3725H51.8072V11.621Z" fill="#011B33"/>
<path id="Vector_3" d="M57.1703 17.9608C57.1636 17.1026 57.3285 16.2516 57.6553 15.458C57.9822 14.6644 58.4643 13.9442 59.0736 13.3396C59.6828 12.7351 60.4067 12.2584 61.2027 11.9376C61.9988 11.6168 62.851 11.4584 63.7092 11.4717C64.8825 11.4723 66.0374 11.7636 67.0707 12.3195V11.621H70.366V23.6482C70.366 26.9656 67.4946 28.7643 63.9027 28.7643C61.5566 28.7643 59.31 28.0658 57.8374 26.9214L59.2105 24.5513C60.6099 25.4478 62.2408 25.9161 63.9027 25.8985C66.223 25.8985 66.9473 24.977 67.0468 23.4787C66.0473 24.118 64.8882 24.4635 63.7018 24.4757C59.8831 24.472 57.1703 21.6283 57.1703 17.9608ZM67.0707 19.3818V16.538C66.792 15.9447 66.3511 15.4423 65.799 15.0888C65.2469 14.7353 64.6061 14.5451 63.9506 14.5403C63.4979 14.5359 63.0488 14.621 62.6292 14.7908C62.2095 14.9605 61.8275 15.2116 61.5052 15.5294C61.1829 15.8473 60.9266 16.2258 60.751 16.643C60.5754 17.0603 60.484 17.5081 60.4821 17.9608C60.4821 19.931 61.9786 21.304 63.9266 21.304C64.5803 21.321 65.2249 21.1486 65.7828 20.8075C66.3406 20.4665 66.7879 19.9713 67.0707 19.3818Z" fill="#011B33"/>
<path id="Vector_4" d="M72.3656 17.9608C72.3589 17.1026 72.5238 16.2516 72.8506 15.458C73.1775 14.6644 73.6597 13.9442 74.2689 13.3396C74.8781 12.7351 75.602 12.2584 76.398 11.9376C77.1941 11.6168 78.0463 11.4584 78.9045 11.4717C80.0803 11.4713 81.2378 11.7626 82.2734 12.3195V11.621H85.5668V23.6482C85.5668 26.9656 82.6973 28.7643 79.1053 28.7643C76.7592 28.7643 74.5127 28.0658 73.0401 26.9214L74.4131 24.5513C75.8124 25.4481 77.4434 25.9164 79.1053 25.8985C81.4256 25.8985 82.1499 24.977 82.2494 23.4787C81.2498 24.1177 80.0908 24.4632 78.9045 24.4757C75.0858 24.472 72.3656 21.6283 72.3656 17.9608ZM82.2734 19.3818V16.538C81.9945 15.9448 81.5536 15.4425 81.0015 15.0891C80.4495 14.7356 79.8088 14.5454 79.1533 14.5403C78.7006 14.5359 78.2515 14.621 77.8318 14.7908C77.4122 14.9605 77.0302 15.2116 76.7079 15.5294C76.3856 15.8473 76.1292 16.2258 75.9537 16.643C75.7781 17.0603 75.6867 17.5081 75.6848 17.9608C75.6848 19.931 77.1813 21.304 79.1293 21.304C79.7829 21.3208 80.4274 21.1483 80.9852 20.8072C81.5431 20.4662 81.9904 19.9712 82.2734 19.3818Z" fill="#011B33"/>
<path id="Vector_5" d="M90.4064 11.621L93.7514 20.13L97.1941 11.621H100.696L93.3515 28.8399H90.2332L92.0762 24.249L86.715 11.621H90.4064Z" fill="#011B33"/>
<path id="Vector_6" d="M100.06 11.621H103.628L106.879 20.2313L110.099 11.621H113.6L108.484 24.3725H105.128L100.06 11.621Z" fill="#011B33"/>
<path id="Vector_7" d="M113.836 17.9092C113.836 14.3172 116.405 11.3464 120.423 11.3464C124.142 11.3464 126.967 14.1422 127.036 17.8152C127.061 18.1311 127.061 18.4485 127.036 18.7643H116.98C117.08 20.5612 118.801 21.7334 120.648 21.7334C122.17 21.7334 123.068 21.3095 124.116 20.4433L125.939 22.3655C124.465 23.9118 122.99 24.636 120.648 24.636C116.332 24.6231 113.836 21.4035 113.836 17.9092ZM117.153 16.3869H123.593C123.268 15.1908 122.118 14.1422 120.373 14.1422C118.351 14.1422 117.504 15.165 117.153 16.3869Z" fill="#011B33"/>
<path id="Vector_8" d="M127.732 23.0013L129.363 20.3548C130.827 21.3305 132.543 21.8595 134.302 21.8771C135.976 21.8771 136.824 21.4532 136.824 20.7308C136.824 20.2553 136.424 19.907 135.576 19.7319L132.074 18.9836C129.505 18.4307 128.331 17.2125 128.331 15.2166C128.331 13.0953 130.128 11.3224 133.847 11.3224C136.092 11.3224 138.086 11.973 139.461 12.8207L137.939 15.3659C136.816 14.7669 135.32 14.1182 133.746 14.1182C132.325 14.1182 131.501 14.4683 131.501 15.1152C131.501 15.5409 131.801 15.8156 132.623 15.9648L135.572 16.5177C138.766 17.1406 139.995 18.5634 139.995 20.4856C139.995 23.2501 137.231 24.7024 134.205 24.7024C131.931 24.7463 129.69 24.1574 127.732 23.0013Z" fill="#011B33"/>
<path id="Vector_9" d="M140.659 11.621H142.555V8.10274L145.873 5.95752V11.621H147.819V14.5163H145.874V24.3743H142.557V14.5163H140.657V11.621H140.659Z" fill="#011B33"/>
<path id="Vector_10" d="M28.3315 13.6722C28.2761 12.8628 28.1434 12.0605 27.9352 11.2763C26.9861 7.77469 24.9865 5.01945 21.9382 3.053C20.0182 1.8043 17.8128 1.06304 15.5283 0.898567C14.5686 0.828465 13.6042 0.854396 12.6496 0.975972C11.6439 1.10908 10.6554 1.34942 9.70086 1.69289C7.15905 2.60976 4.94066 4.24958 3.31855 6.41064C1.69644 8.57171 0.741358 11.1598 0.570774 13.8565C0.539444 14.3523 0.539444 14.8517 0.539444 15.3493V27.4466C0.539444 27.7609 0.664295 28.0623 0.886532 28.2845C1.10877 28.5068 1.41019 28.6316 1.72447 28.6316H6.39825C6.69074 28.6298 6.9724 28.5207 7.18981 28.3251C7.40722 28.1294 7.54526 27.8607 7.57775 27.5701C7.60851 27.4565 7.62461 27.3394 7.62567 27.2217V26.9416C7.62291 26.9202 7.62291 26.8985 7.62567 26.8771V26.8458C7.65755 26.8542 7.68756 26.8686 7.71413 26.8882C9.46234 27.8549 11.3985 28.4332 13.3905 28.5837C14.1884 28.6427 14.9898 28.6347 15.7864 28.5597C17.6615 28.387 19.4814 27.8323 21.134 26.9296C22.7867 26.0269 24.237 24.7954 25.3956 23.3109C27.0471 21.2334 28.0577 18.7198 28.3038 16.0773C28.3872 15.2782 28.3964 14.473 28.3315 13.6722ZM16.9419 21.4016C16.9337 21.4442 16.9107 21.4825 16.8769 21.5099C16.8432 21.5372 16.801 21.5517 16.7576 21.5509H12.1502C12.1068 21.5517 12.0645 21.5372 12.0308 21.5099C11.9971 21.4825 11.9741 21.4442 11.9659 21.4016V21.3721V21.2007C11.9649 20.9893 11.9884 20.7784 12.0359 20.5723C12.0654 20.5023 12.0838 20.4193 12.1133 20.3419C12.1428 20.2645 12.1723 20.1926 12.2018 20.1171C12.2313 20.0415 12.2792 19.9733 12.3197 19.9088L12.3861 19.8093C12.4294 19.7449 12.4768 19.6833 12.528 19.625C12.5814 19.5587 12.6349 19.5015 12.6883 19.4407C12.9656 19.168 13.3025 18.9636 13.6725 18.8436C13.3538 18.6701 13.1019 18.3954 12.9565 18.063C12.8111 17.7306 12.7804 17.3592 12.8693 17.0074C12.9582 16.6556 13.1616 16.3434 13.4475 16.1199C13.7334 15.8965 14.0855 15.7745 14.4484 15.7732C14.8816 15.7765 15.2963 15.9491 15.6039 16.2542C15.782 16.4334 15.916 16.6515 15.9955 16.8913C16.075 17.131 16.0978 17.386 16.0621 17.6361C16.0264 17.8862 15.9331 18.1245 15.7896 18.3325C15.6462 18.5404 15.4564 18.7122 15.2353 18.8344C15.733 18.9984 16.166 19.3156 16.4726 19.7406C16.7791 20.1657 16.9434 20.6767 16.9419 21.2007C16.9419 21.2671 16.9419 21.339 16.9419 21.4016ZM24.8851 11.3648H4.03003C3.99094 11.3645 3.95247 11.355 3.91779 11.337C3.8831 11.3189 3.8532 11.2929 3.83053 11.2611C3.80785 11.2292 3.79307 11.1924 3.78738 11.1538C3.7817 11.1151 3.78527 11.0756 3.79782 11.0386C4.57599 8.8333 6.01904 6.92366 7.92806 5.5729C9.83708 4.22214 12.1181 3.49677 14.4566 3.49677C16.7952 3.49677 19.0762 4.22214 20.9852 5.5729C22.8943 6.92366 24.3373 8.8333 25.1155 11.0386C25.128 11.0755 25.1316 11.1148 25.126 11.1533C25.1204 11.1919 25.1058 11.2285 25.0833 11.2603C25.0608 11.2921 25.0312 11.3182 24.9967 11.3363C24.9623 11.3545 24.924 11.3642 24.8851 11.3648Z" fill="#011B33"/>
</g>
</g>
</g>
<defs>
<clipPath id="clip0_16_1842">
<rect width="147.263" height="27.98" fill="white" transform="translate(0.548416 0.859863)"/>
</clipPath>
</defs>
</svg>
