<svg width="77" height="29" viewBox="0 0 77 29" fill="none" xmlns="http://www.w3.org/2000/svg">
<g id="Smile-Plain_180827_172218.svg" clip-path="url(#clip0_16_1987)">
<path id="Vector" fill-rule="evenodd" clip-rule="evenodd" d="M14.8729 28.1263L19.1148 16.5043C19.9562 14.4509 21.2625 14.3933 21.411 14.394C22.2779 14.4065 23.4605 13.9053 25.0947 12.4589C25.2116 12.3557 25.3298 12.2472 25.4517 12.1343L25.5907 12.0031C27.7419 10.1284 29.9584 9.48828 31.6053 9.48828C34.1581 9.48828 35.6182 10.443 35.8206 12.7065C37.7201 10.5138 40.4706 9.48828 42.7049 9.48828C47.2086 9.48828 47.3622 12.5649 45.8778 16.6323L41.6832 28.1263H36.931L40.8939 17.2686C41.5131 15.5714 42.3908 13.1663 39.6605 13.1663C36.5041 13.1663 34.7453 16.9149 33.8804 19.2851L30.6539 28.1264H25.9021L29.8652 17.2687C30.4848 15.5715 31.3621 13.1664 28.6313 13.1664C25.4752 13.1664 23.7174 16.9151 22.852 19.2852L19.6251 28.1265L14.8729 28.1263Z" fill="#011B33"/>
<path id="Vector_2" fill-rule="evenodd" clip-rule="evenodd" d="M43.3015 28.1263L49.9487 9.9126H54.7005L48.0532 28.1263H43.3015Z" fill="#011B33"/>
<path id="Vector_3" d="M19.2365 9.82264C19.6229 9.89827 20.0447 9.99215 20.4929 10.1091L20.7073 10.1604C21.1309 10.2817 21.5811 10.4191 22.0454 10.5812C19.4902 13.5974 15.548 12.9885 15.548 12.9885L15.297 12.9497H14.8878C13.5909 12.9541 11.8576 13.414 11.1529 14.9704C9.84012 17.8707 18.9358 16.0313 15.9579 22.6094C14.0365 26.8538 9.47389 28.5507 5.60807 28.5507C3.7998 28.5507 2.09924 28.233 0.569885 27.7731L1.98799 25.0749H6.33725C6.4733 25.0817 6.61177 25.085 6.75179 25.085C7.95714 25.085 10.0805 24.6255 10.8812 22.857C12.4983 19.2851 3.13043 21.7248 6.10836 15.147C7.88501 11.2213 12.1097 9.48828 15.8337 9.48828C17.2678 9.48828 18.3147 9.6344 19.2365 9.82264Z" fill="#011B33"/>
<path id="Vector_4" fill-rule="evenodd" clip-rule="evenodd" d="M64.1241 1.6012L55.7844 24.4516C54.357 27.7516 50.6817 28.0918 49.9644 28.127L49.6916 28.1264L59.3722 1.6012H64.1241Z" fill="#011B33"/>
<path id="Vector_5" fill-rule="evenodd" clip-rule="evenodd" d="M64.0725 17.2334H72.158C72.8551 14.9347 72.5146 12.9541 69.855 12.9541C67.1945 12.9541 65.1759 14.7932 64.0725 17.2334ZM66.4205 25.085C66.5612 25.085 66.7021 25.0817 66.8428 25.0755H72.4874L71.7487 27.1006C69.6623 28.0557 67.4956 28.5507 64.9424 28.5507C58.9135 28.5507 56.6679 25.085 58.8493 19.108C60.7726 13.8383 65.1616 9.48828 70.8361 9.48828C77.6095 9.48828 77.8335 14.1213 75.5101 20.4873H62.8852C62.0264 23.423 63.4764 25.085 66.4205 25.085Z" fill="#011B33"/>
<path id="Vector_6" fill-rule="evenodd" clip-rule="evenodd" d="M50.4187 8.58301L51.5609 5.45352C51.7722 4.91897 52.3501 4.05554 54.8162 4.05554H56.823L56.6741 4.46274C55.0828 8.56661 50.6845 8.58216 50.6845 8.58216L50.4187 8.58301Z" fill="#022B50"/>
</g>
<defs>
<clipPath id="clip0_16_1987">
<rect width="76.3091" height="27.98" fill="white" transform="translate(0.215454 0.859863)"/>
</clipPath>
</defs>
</svg>
