<svg width="20" height="21" viewBox="0 0 20 21" fill="none" xmlns="http://www.w3.org/2000/svg">
<g id="Frame">
<g id="Clip path group">
<mask id="mask0_16_2145" style="mask-type:luminance" maskUnits="userSpaceOnUse" x="0" y="0" width="20" height="21">
<g id="clip0">
<path id="Vector" d="M20 0.309814H0V20.3098H20V0.309814Z" fill="white"/>
</g>
</mask>
<g mask="url(#mask0_16_2145)">
<g id="Group">
<path id="Vector_2" d="M20 0.309814H0V20.3098H20V0.309814Z" fill="white"/>
<path id="Vector_3" d="M19.6819 3.92678C19.2375 4.12383 18.7763 4.27928 18.3029 4.39182C18.8245 3.8962 19.2166 3.27629 19.4379 2.58435C19.501 2.38682 19.2865 2.216 19.1081 2.32177C18.4496 2.71235 17.7403 3.00537 16.9999 3.19276C16.9569 3.20364 16.9126 3.20915 16.8681 3.20915C16.7332 3.20915 16.6021 3.15907 16.499 3.06818C15.7112 2.37385 14.6979 1.99146 13.646 1.99146C13.1908 1.99146 12.7312 2.0624 12.28 2.20235C10.8819 2.63599 9.80311 3.78927 9.46465 5.21215C9.33768 5.74585 9.3033 6.28004 9.3624 6.79984C9.36918 6.85957 9.34094 6.90126 9.32353 6.92081C9.29296 6.95509 9.24961 6.97475 9.2046 6.97475C9.19958 6.97475 9.19441 6.9745 9.18929 6.97402C6.12889 6.68969 3.36915 5.21527 1.41842 2.82241C1.31895 2.70036 1.12819 2.71533 1.0489 2.85133C0.666902 3.50669 0.465027 4.25626 0.465027 5.019C0.465027 6.18791 0.934654 7.28951 1.75039 8.09257C1.40735 8.01123 1.07533 7.88313 0.766913 7.71183C0.617701 7.62893 0.434112 7.73549 0.432015 7.90615C0.410657 9.64266 1.42735 11.1878 2.95038 11.8836C2.91971 11.8844 2.88904 11.8847 2.85832 11.8847C2.6169 11.8847 2.37245 11.8614 2.13186 11.8154C1.96383 11.7833 1.82266 11.9427 1.87484 12.1057C2.36919 13.649 3.69805 14.7867 5.28828 15.045C3.96848 15.9309 2.43155 16.3983 0.831913 16.3983L0.333223 16.398C0.179574 16.398 0.0496227 16.4981 0.0104668 16.6469C-0.028104 16.7935 0.0429423 16.9481 0.173966 17.0244C1.9765 18.0734 4.03256 18.6278 6.12074 18.6278C7.94859 18.6278 9.65838 18.2651 11.2027 17.5497C12.6184 16.8939 13.8694 15.9565 14.921 14.7634C15.9007 13.652 16.6667 12.369 17.1978 10.9501C17.7041 9.59761 17.9717 8.15445 17.9717 6.77663V6.71099C17.9717 6.48976 18.0717 6.28159 18.2463 6.13988C18.9087 5.60205 19.4856 4.96891 19.9608 4.25812C20.0863 4.07043 19.8884 3.8352 19.6819 3.92678Z" fill="#3D5E69"/>
</g>
</g>
</g>
</g>
</svg>
