<svg width="20" height="21" viewBox="0 0 20 21" fill="none" xmlns="http://www.w3.org/2000/svg">
<g id="Frame">
<path id="Vector" d="M20 0.309814H0V20.3098H20V0.309814Z" fill="white"/>
<path id="Vector_2" d="M19.1 0.309814H0.9C0.402944 0.309814 0 0.712759 0 1.20981V19.4098C0 19.9069 0.402944 20.3098 0.9 20.3098H19.1C19.597 20.3098 20 19.9069 20 19.4098V1.20981C20 0.712758 19.597 0.309814 19.1 0.309814Z" fill="#3D5E69"/>
<path id="Vector_3" d="M9.99585 5.59155C9.99585 5.59155 5.78126 5.59156 4.72346 5.86642C4.15707 6.02468 3.69069 6.49106 3.53244 7.06577C3.25757 8.12358 3.25757 10.3142 3.25757 10.3142C3.25757 10.3142 3.25757 12.5132 3.53244 13.5543C3.69069 14.129 4.14874 14.5871 4.72346 14.7453C5.78959 15.0285 9.99585 15.0285 9.99585 15.0285C9.99585 15.0285 14.2188 15.0285 15.2766 14.7537C15.8513 14.5954 16.3094 14.1457 16.4593 13.5626C16.7425 12.5132 16.7425 10.3225 16.7425 10.3225C16.7425 10.3225 16.7508 8.12358 16.4593 7.06577C16.3094 6.49106 15.8513 6.03302 15.2766 5.88309C14.2188 5.59157 9.99585 5.59155 9.99585 5.59155ZM8.65484 8.29025L12.1615 10.3142L8.65484 12.3298V8.29025Z" fill="white"/>
</g>
</svg>
